<svg width="87" height="86" viewBox="0 0 87 86" fill="none" xmlns="http://www.w3.org/2000/svg">
<path d="M58.5034 66.4399C71.2893 58.049 74.8528 40.8865 66.4626 28.1062C58.0724 15.3259 40.9057 11.7676 28.1197 20.1585C15.3338 28.5494 11.7703 45.712 20.1605 58.4923C28.5507 71.2725 45.7174 74.8308 58.5034 66.4399Z" fill="url(#paint0_linear_108_376)"/>
<path d="M49.7119 33.3855C48.3259 32.7582 46.7473 32.7067 45.3229 33.2421C43.8986 33.7775 42.7449 34.8561 42.1152 36.241L41.2549 38.1461L39.3297 37.2678C38.6436 36.9549 37.9026 36.7802 37.149 36.7536C36.3953 36.727 35.6438 36.8491 34.9373 37.1129C34.2307 37.3766 33.583 37.7769 33.0312 38.2909C32.4793 38.8049 32.0341 39.4224 31.721 40.1083C31.4078 40.7943 31.2329 41.5351 31.2061 42.2885C31.1793 43.042 31.3013 43.7933 31.5649 44.4995C31.8286 45.2058 32.2289 45.8532 32.7428 46.4048C33.2568 46.9563 33.8745 47.4013 34.5605 47.7142L41.6885 50.9699C43.0767 51.5971 44.6573 51.6483 46.0835 51.1122C47.5097 50.5761 48.6652 49.4965 49.2966 48.1102L52.5353 40.9648C53.1638 39.5848 53.2196 38.0122 52.6904 36.5915C52.1611 35.1708 51.0901 34.0179 49.7119 33.3855Z" fill="white"/>
<defs>
<linearGradient id="paint0_linear_108_376" x1="4.84933" y1="27.714" x2="51.0381" y2="19.3147" gradientUnits="userSpaceOnUse">
<stop offset="0.0201594" stop-color="#99F7BE"/>
<stop offset="1" stop-color="#229F98"/>
</linearGradient>
</defs>
</svg>
