<svg width="89" height="81" viewBox="0 0 89 81" fill="none" xmlns="http://www.w3.org/2000/svg">
<path d="M3.91614 30.2642L33.8465 66.7509C34.4642 67.4967 35.316 68.0119 36.2635 68.2128C37.211 68.4138 38.1987 68.2886 39.0661 67.8577L85.1053 44.8102C85.6898 44.5175 86.1993 44.0945 86.5945 43.5738C86.9897 43.0531 87.26 42.4487 87.3846 41.8071C87.5092 41.1656 87.4848 40.504 87.3132 39.8733C87.1416 39.2426 86.8275 38.6598 86.395 38.1697L54.9316 2.44915C54.3102 1.74126 53.4715 1.25935 52.5468 1.07889C51.6221 0.898421 50.6637 1.02959 49.8215 1.45184L5.33965 23.7331C4.7628 24.0166 4.25741 24.4266 3.86117 24.9326C3.46493 25.4386 3.18807 26.0274 3.05123 26.6553C2.91439 27.2831 2.92109 27.9337 3.07085 28.5586C3.22061 29.1835 3.50955 29.7665 3.91614 30.2642Z" fill="#F0FBFF"/>
<path d="M3.91614 30.2642L33.8465 66.7509C34.4642 67.4967 35.316 68.0119 36.2635 68.2128C37.211 68.4138 38.1987 68.2886 39.0661 67.8577L85.1053 44.8103C85.6898 44.5175 86.1993 44.0945 86.5945 43.5738C86.9897 43.0531 87.26 42.4487 87.3846 41.8071C87.5092 41.1656 87.4848 40.504 87.3132 39.8733C87.1416 39.2426 86.8275 38.6598 86.395 38.1697L54.9316 2.44915C54.3102 1.74126 53.4715 1.25935 52.5468 1.07889C51.6221 0.898421 50.6637 1.02959 49.8215 1.45184L5.33965 23.7331C4.7628 24.0166 4.25741 24.4266 3.86117 24.9326C3.46493 25.4386 3.18807 26.0274 3.05123 26.6553C2.91439 27.2831 2.92109 27.9337 3.07085 28.5586C3.22061 29.1835 3.50955 29.7665 3.91614 30.2642V30.2642Z" stroke="#87BBDA" stroke-width="1.36" stroke-miterlimit="10"/>
<path d="M1.10813 37.8779C0.96411 38.5824 0.964242 39.3087 1.10852 40.0131C1.2528 40.7175 1.53824 41.3854 1.94765 41.9766L31.878 78.4634C32.4897 79.2137 33.3395 79.7325 34.2867 79.9338C35.2338 80.1351 36.2213 80.0068 37.0854 79.5701L83.1247 56.4862C83.6655 56.2175 84.1427 55.8366 84.5246 55.3689C84.9064 54.9012 85.1841 54.3575 85.339 53.774" stroke="#87BBDA" stroke-width="1.36" stroke-miterlimit="10"/>
<path d="M2.94601 27.6611L1.02365 38.3517" stroke="#87BBDA" stroke-width="1.36" stroke-miterlimit="10"/>
<path d="M85.3479 53.7742L87.4406 41.3809" stroke="#87BBDA" stroke-width="1.36" stroke-miterlimit="10"/>
<path d="M51.317 21.0944C47.01 19.793 44.3941 21.8241 43.7249 25.6795C43.5535 26.6379 42.5587 27.2096 41.6443 26.8751L40.5372 26.4701C35.6705 24.439 29.9521 27.2241 29.2707 31.0674C28.5894 34.9107 31.5094 39.3134 35.8043 40.8945L46.4259 44.7986C47.945 45.3887 49.6059 45.5115 51.1953 45.1513C52.2677 44.9093 53.2435 44.353 53.9978 43.5535C54.7521 42.754 55.2505 41.7477 55.4294 40.6634L57.0963 31.116C57.8263 27.2971 55.6971 22.42 51.317 21.0944Z" fill="url(#paint0_linear_108_388)"/>
<defs>
<linearGradient id="paint0_linear_108_388" x1="31.2456" y1="17.8287" x2="52.2044" y2="27.9421" gradientUnits="userSpaceOnUse">
<stop offset="0.0201594" stop-color="#99F7BE"/>
<stop offset="1" stop-color="#229F98"/>
</linearGradient>
</defs>
</svg>
