<svg width="88" height="105" viewBox="0 0 88 105" fill="none" xmlns="http://www.w3.org/2000/svg">
<path d="M79.5913 94.8116L18.234 80.898C16.9724 80.6135 15.8452 79.908 15.0381 78.8978C14.2309 77.8876 13.7918 76.6328 13.7932 75.3399L13.7932 6.69617C13.7944 5.82443 13.9954 4.96458 14.3809 4.18264C14.7664 3.4007 15.3261 2.71748 16.0169 2.18546C16.7077 1.65345 17.5113 1.28679 18.366 1.11364C19.2207 0.940501 20.1037 0.965483 20.9472 1.18667L82.2559 17.3868C83.4723 17.7086 84.5482 18.4234 85.3161 19.4198C86.0841 20.4162 86.501 21.6384 86.5021 22.8963V89.2535C86.4995 90.1033 86.3069 90.9418 85.9386 91.7077C85.5702 92.4736 85.0353 93.1475 84.3729 93.6803C83.7105 94.213 82.9375 94.591 82.1102 94.7868C81.2829 94.9825 80.4223 94.991 79.5913 94.8116V94.8116Z" stroke="#F7A4AD" stroke-width="1.12" stroke-linecap="round" stroke-linejoin="round"/>
<path d="M72.176 102.68C71.4231 103.275 70.5573 103.711 69.6308 103.962C68.7043 104.213 67.7366 104.273 66.7861 104.139L5.44109 90.2257C4.17943 89.9412 3.05227 89.2358 2.24511 88.2255C1.43796 87.2153 0.9989 85.9605 1.00021 84.6676L1.00021 16.0239C0.9976 15.2224 1.16548 14.4294 1.49271 13.6976C1.81993 12.9658 2.29902 12.3119 2.89823 11.7793" stroke="#F7A4AD" stroke-width="1.12" stroke-linecap="round" stroke-linejoin="round"/>
<path d="M83.2674 94.4111L71.6603 103.071" stroke="#F7A4AD" stroke-width="1.12" stroke-linecap="round" stroke-linejoin="round"/>
<path d="M2.90253 11.7799L16.4442 1.87988" stroke="#F7A4AD" stroke-width="1.12" stroke-linecap="round" stroke-linejoin="round"/>
<path d="M67.0917 36.4823C63.32 30.9972 57.0054 29.8053 52.9661 33.7945L50.3015 36.4337L47.8074 32.785C44.0478 27.2998 37.7333 26.0836 33.6695 30.0607C29.6058 34.0377 29.3747 41.6999 33.1342 47.1851L42.4053 60.746C42.401 60.7783 42.401 60.811 42.4053 60.8433C43.7042 62.8108 45.5592 64.3476 47.7344 65.2582C49.2068 65.8791 50.8314 66.0452 52.3991 65.7352C53.9668 65.4253 55.4058 64.6534 56.5309 63.519L66.5807 53.6068C70.6323 49.6297 70.8513 41.9553 67.0917 36.4823Z" fill="#FF4252"/>
</svg>
