<svg width="129" height="137" viewBox="0 0 129 137" fill="none" xmlns="http://www.w3.org/2000/svg">
<path d="M60.7321 3.57299C61.9947 0.0300074 67.0053 0.0299988 68.2679 3.57298L75.5892 24.1172C76.4699 26.5885 79.4511 27.5571 81.6162 26.0755L99.6149 13.7582C102.719 11.634 106.772 14.5792 105.711 18.1877L99.5589 39.1117C98.8188 41.6286 100.661 44.1646 103.284 44.2385L125.085 44.853C128.845 44.9589 130.393 49.7243 127.414 52.0199L110.137 65.3315C108.059 66.9327 108.059 70.0673 110.137 71.6685L127.414 84.9801C130.393 87.2757 128.845 92.0411 125.085 92.147L103.284 92.7615C100.661 92.8354 98.8188 95.3714 99.5589 97.8883L105.711 118.812C106.772 122.421 102.719 125.366 99.6149 123.242L81.6162 110.924C79.4511 109.443 76.4699 110.412 75.5892 112.883L68.2679 133.427C67.0053 136.97 61.9947 136.97 60.7321 133.427L53.4108 112.883C52.5301 110.412 49.5489 109.443 47.3838 110.924L29.3852 123.242C26.2812 125.366 22.2275 122.421 23.2886 118.812L29.4411 97.8883C30.1812 95.3714 28.3387 92.8354 25.7162 92.7615L3.91509 92.147C0.155341 92.0411 -1.39301 87.2757 1.5864 84.9801L18.8627 71.6685C20.9409 70.0673 20.9409 66.9327 18.8627 65.3315L1.5864 52.0199C-1.39301 49.7243 0.155337 44.9589 3.91508 44.853L25.7162 44.2385C28.3387 44.1646 30.1812 41.6286 29.4411 39.1117L23.2886 18.1877C22.2275 14.5792 26.2812 11.634 29.3851 13.7582L47.3838 26.0755C49.5489 27.5571 52.5301 26.5885 53.4108 24.1172L60.7321 3.57299Z" fill="url(#paint0_linear_382_474)"/>
<defs>
<linearGradient id="paint0_linear_382_474" x1="63.6472" y1="-10.8407" x2="63.6472" y2="142.046" gradientUnits="userSpaceOnUse">
<stop stop-color="#6546CB"/>
<stop offset="1" stop-color="#974EF5"/>
</linearGradient>
</defs>
</svg>
