<svg width="30" height="30" viewBox="0 0 30 30" fill="none" xmlns="http://www.w3.org/2000/svg">
<path d="M0 15C0 6.71573 6.71573 0 15 0C23.2843 0 30 6.71573 30 15C30 23.2843 23.2843 30 15 30C6.71573 30 0 23.2843 0 15Z" fill="url(#paint0_linear_382_508)"/>
<g clip-path="url(#clip0_382_508)">
<path d="M20.4357 20.5881C20.1763 20.8474 19.8246 20.9931 19.4579 20.9931C19.0911 20.9931 18.7394 20.8474 18.48 20.5881L15.4249 17.0963L12.3699 20.587C12.2418 20.7171 12.0893 20.8206 11.9211 20.8915C11.7528 20.9624 11.5722 20.9992 11.3897 21C11.2071 21.0007 11.0262 20.9653 10.8574 20.8958C10.6886 20.8263 10.5353 20.724 10.4062 20.595C10.2771 20.4659 10.1749 20.3125 10.1053 20.1437C10.0358 19.9749 10.0004 19.794 10.0012 19.6115C10.0019 19.4289 10.0388 19.2483 10.1097 19.0801C10.1806 18.9119 10.2841 18.7593 10.4142 18.6313L13.5926 15.0012L10.413 11.3687C10.2829 11.2407 10.1794 11.0881 10.1085 10.9199C10.0376 10.7517 10.0008 10.5711 10 10.3885C9.99927 10.206 10.0347 10.0251 10.1042 9.8563C10.1737 9.6875 10.276 9.53413 10.405 9.40505C10.5341 9.27596 10.6875 9.17371 10.8563 9.10419C11.0251 9.03468 11.206 8.99927 11.3885 9.00001C11.5711 9.00075 11.7517 9.03763 11.9199 9.10852C12.0881 9.17941 12.2407 9.28291 12.3687 9.41304L15.4249 12.906L18.48 9.41304C18.608 9.28291 18.7606 9.17941 18.9288 9.10852C19.097 9.03763 19.2776 9.00075 19.4602 9.00001C19.6427 8.99927 19.8236 9.03468 19.9924 9.10419C20.1612 9.17371 20.3146 9.27596 20.4437 9.40505C20.5728 9.53413 20.675 9.6875 20.7445 9.8563C20.8141 10.0251 20.8495 10.206 20.8487 10.3885C20.848 10.5711 20.8111 10.7517 20.7402 10.9199C20.6693 11.0881 20.5658 11.2407 20.4357 11.3687L17.2573 15.0012L20.4357 18.6313C20.5643 18.7597 20.6663 18.9122 20.7359 19.0801C20.8055 19.248 20.8413 19.428 20.8413 19.6097C20.8413 19.7914 20.8055 19.9714 20.7359 20.1393C20.6663 20.3072 20.5643 20.4597 20.4357 20.5881Z" fill="white"/>
</g>
<defs>
<linearGradient id="paint0_linear_382_508" x1="40.814" y1="15" x2="7.05826" y2="46.0547" gradientUnits="userSpaceOnUse">
<stop offset="0.0201594" stop-color="#FB8DC7"/>
<stop offset="1" stop-color="#F54EB4"/>
</linearGradient>
<clipPath id="clip0_382_508">
<rect width="10.8487" height="12" fill="white" transform="translate(10 9)"/>
</clipPath>
</defs>
</svg>
