<svg width="98" height="98" viewBox="0 0 98 98" fill="none" xmlns="http://www.w3.org/2000/svg">
<g filter="url(#filter0_d_382_579)">
<path d="M14 33C14 19.1929 25.1929 8 39 8C52.8071 8 64 19.1929 64 33C64 46.8071 52.8071 58 39 58C25.1929 58 14 46.8071 14 33Z" fill="url(#paint0_linear_382_579)"/>
<path d="M35.6103 43C35.1223 42.9971 34.6485 42.8357 34.2603 42.54L32.1903 41C31.7126 40.6276 31.3956 40.0863 31.3045 39.4875C31.2134 38.8887 31.355 38.2777 31.7003 37.78C31.883 37.5102 31.9991 37.201 32.0391 36.8777C32.079 36.5543 32.0418 36.2261 31.9303 35.92L31.8703 35.76C31.7927 35.4829 31.6508 35.228 31.4562 35.0161C31.2616 34.8041 31.0197 34.641 30.7503 34.54H30.5903C30.0062 34.3436 29.5231 33.9247 29.246 33.3742C28.9689 32.8237 28.9201 32.1862 29.1103 31.6L29.9303 29C30.0058 28.6988 30.1447 28.4171 30.3379 28.174C30.5311 27.9308 30.7739 27.7317 31.0503 27.59C31.3076 27.4574 31.5892 27.3784 31.878 27.3578C32.1667 27.3371 32.4567 27.3753 32.7303 27.47C33.0282 27.5703 33.346 27.5962 33.6562 27.5457C33.9664 27.4952 34.2596 27.3696 34.5103 27.18L34.6403 27.08C34.8672 26.899 35.0505 26.6693 35.1769 26.408C35.3032 26.1466 35.3693 25.8603 35.3703 25.57V25.33C35.3676 24.7181 35.6067 24.13 36.0356 23.6936C36.4645 23.2572 37.0485 23.0079 37.6603 23H40.2103C40.508 23.0008 40.8025 23.0604 41.0771 23.1754C41.3517 23.2904 41.6009 23.4585 41.8103 23.67C42.2506 24.1178 42.4951 24.722 42.4903 25.35V25.63C42.4852 25.9058 42.545 26.1788 42.6649 26.4272C42.7847 26.6756 42.9613 26.8924 43.1803 27.06L43.2903 27.14C43.5147 27.3083 43.7765 27.4198 44.0534 27.4651C44.3302 27.5104 44.6139 27.488 44.8803 27.4L45.2203 27.29C45.5083 27.1945 45.8127 27.158 46.1152 27.1827C46.4176 27.2074 46.712 27.2927 46.9808 27.4336C47.2496 27.5746 47.4872 27.7682 47.6796 28.0029C47.8719 28.2377 48.015 28.5088 48.1003 28.8L48.8903 31.32C49.0731 31.9024 49.0231 32.533 48.7509 33.0793C48.4786 33.6256 48.0053 34.0452 47.4303 34.25L47.2303 34.32C46.9361 34.4163 46.6701 34.5834 46.4556 34.8066C46.2412 35.0298 46.0848 35.3022 46.0003 35.6C45.9207 35.8768 45.9018 36.1675 45.945 36.4523C45.9881 36.7371 46.0923 37.0092 46.2503 37.25L46.5103 37.63C46.8551 38.1304 46.9954 38.7438 46.9024 39.3444C46.8094 39.945 46.4902 40.4872 46.0103 40.86L44.0003 42.41C43.7574 42.5957 43.4792 42.7297 43.1826 42.8039C42.886 42.878 42.5774 42.8906 42.2757 42.8409C41.9741 42.7913 41.6858 42.6804 41.4286 42.5152C41.1714 42.3499 40.9508 42.1337 40.7803 41.88L40.6603 41.71C40.4965 41.4639 40.273 41.2632 40.0107 41.1268C39.7484 40.9904 39.4558 40.9227 39.1603 40.93C38.8783 40.9373 38.6019 41.0108 38.3535 41.1445C38.1051 41.2783 37.8916 41.4686 37.7303 41.7L37.5003 42.03C37.3297 42.2855 37.1086 42.5034 36.8507 42.6702C36.5927 42.8371 36.3033 42.9493 36.0003 43C35.8706 43.0127 35.74 43.0127 35.6103 43ZM31.4003 32.62C31.965 32.8214 32.4745 33.1525 32.8879 33.5867C33.3013 34.0209 33.6069 34.5461 33.7803 35.12V35.24C33.9962 35.8366 34.0671 36.4761 33.9871 37.1055C33.9071 37.735 33.6786 38.3363 33.3203 38.86C33.257 38.9299 33.222 39.0208 33.222 39.115C33.222 39.2092 33.257 39.3001 33.3203 39.37L35.4703 41C35.4983 41.022 35.5308 41.0378 35.5654 41.0463C35.6001 41.0547 35.6361 41.0557 35.6712 41.049C35.7062 41.0424 35.7394 41.0284 35.7686 41.0078C35.7978 40.9873 35.8222 40.9608 35.8403 40.93L36.0703 40.6C36.4172 40.0988 36.8804 39.6891 37.4203 39.4062C37.9602 39.1232 38.5607 38.9754 39.1703 38.9754C39.7798 38.9754 40.3803 39.1232 40.9202 39.4062C41.4601 39.6891 41.9234 40.0988 42.2703 40.6L42.3903 40.78C42.4333 40.841 42.4974 40.8838 42.5703 40.9C42.6037 40.9049 42.6377 40.903 42.6704 40.8944C42.7031 40.8859 42.7336 40.8707 42.7603 40.85L44.8203 39.29C44.8924 39.2328 44.9398 39.1501 44.9529 39.0589C44.9659 38.9678 44.9435 38.8751 44.8903 38.8L44.6303 38.42C44.2915 37.926 44.068 37.3622 43.9763 36.7703C43.8845 36.1783 43.9269 35.5734 44.1003 35C44.276 34.3974 44.5939 33.8458 45.0272 33.3916C45.4605 32.9374 45.9966 32.5939 46.5903 32.39L46.7903 32.32C46.8736 32.2866 46.9404 32.2216 46.976 32.1392C47.0116 32.0567 47.0131 31.9636 46.9803 31.88L46.2003 29.39C46.1816 29.3464 46.1542 29.3071 46.1198 29.2745C46.0854 29.2418 46.0447 29.2165 46.0003 29.2C45.9708 29.1851 45.9383 29.1773 45.9053 29.1773C45.8723 29.1773 45.8397 29.1851 45.8103 29.2L45.4703 29.31C44.8951 29.4998 44.2825 29.5471 43.685 29.4478C43.0875 29.3485 42.5231 29.1056 42.0403 28.74L42.0003 28.65C41.537 28.2991 41.1613 27.8456 40.9028 27.3251C40.6442 26.8046 40.5099 26.2312 40.5103 25.65V25.34C40.5121 25.2436 40.4762 25.1503 40.4103 25.08C40.3527 25.028 40.2778 24.9995 40.2003 25H37.6603C37.6195 25.0025 37.5797 25.0131 37.5431 25.0311C37.5064 25.0491 37.4737 25.0741 37.4467 25.1048C37.4198 25.1354 37.3992 25.1711 37.386 25.2098C37.3729 25.2484 37.3676 25.2893 37.3703 25.33V25.58C37.3703 26.177 37.2333 26.7661 36.9698 27.3019C36.7063 27.8376 36.3233 28.3057 35.8503 28.67L35.7203 28.77C35.21 29.1585 34.612 29.4155 33.979 29.5184C33.3459 29.6213 32.6973 29.5669 32.0903 29.36C32.0449 29.3448 31.9957 29.3448 31.9503 29.36C31.8938 29.3943 31.8513 29.4474 31.8303 29.51L31.0003 32.12C30.9713 32.2089 30.9781 32.3056 31.0192 32.3895C31.0602 32.4735 31.1324 32.5382 31.2203 32.57L31.4003 32.62Z" fill="white"/>
<path d="M39 36.5C38.3078 36.5 37.6311 36.2947 37.0555 35.9101C36.4799 35.5256 36.0313 34.9789 35.7664 34.3394C35.5015 33.6999 35.4322 32.9961 35.5673 32.3172C35.7023 31.6383 36.0356 31.0146 36.5251 30.5251C37.0146 30.0356 37.6383 29.7023 38.3172 29.5673C38.9961 29.4322 39.6999 29.5015 40.3394 29.7664C40.9789 30.0313 41.5256 30.4799 41.9101 31.0555C42.2947 31.6311 42.5 32.3078 42.5 33C42.5 33.9283 42.1313 34.8185 41.4749 35.4749C40.8185 36.1313 39.9283 36.5 39 36.5ZM39 31.5C38.7033 31.5 38.4133 31.588 38.1666 31.7528C37.92 31.9176 37.7277 32.1519 37.6142 32.426C37.5007 32.7001 37.4709 33.0017 37.5288 33.2926C37.5867 33.5836 37.7296 33.8509 37.9393 34.0607C38.1491 34.2704 38.4164 34.4133 38.7074 34.4712C38.9983 34.5291 39.2999 34.4994 39.574 34.3858C39.8481 34.2723 40.0824 34.08 40.2472 33.8334C40.412 33.5867 40.5 33.2967 40.5 33C40.5 32.6022 40.342 32.2206 40.0607 31.9393C39.7794 31.658 39.3978 31.5 39 31.5Z" fill="white"/>
</g>
<defs>
<filter id="filter0_d_382_579" x="0" y="0" width="98" height="98" filterUnits="userSpaceOnUse" color-interpolation-filters="sRGB">
<feFlood flood-opacity="0" result="BackgroundImageFix"/>
<feColorMatrix in="SourceAlpha" type="matrix" values="0 0 0 0 0 0 0 0 0 0 0 0 0 0 0 0 0 0 127 0" result="hardAlpha"/>
<feOffset dx="10" dy="16"/>
<feGaussianBlur stdDeviation="12"/>
<feComposite in2="hardAlpha" operator="out"/>
<feColorMatrix type="matrix" values="0 0 0 0 0.320833 0 0 0 0 0.0374306 0 0 0 0 0.114894 0 0 0 0.16 0"/>
<feBlend mode="normal" in2="BackgroundImageFix" result="effect1_dropShadow_382_579"/>
<feBlend mode="normal" in="SourceGraphic" in2="effect1_dropShadow_382_579" result="shape"/>
</filter>
<linearGradient id="paint0_linear_382_579" x1="82.0233" y1="33" x2="25.7638" y2="84.7579" gradientUnits="userSpaceOnUse">
<stop offset="0.0201594" stop-color="#FB8DC7"/>
<stop offset="1" stop-color="#F54EB4"/>
</linearGradient>
</defs>
</svg>
