<svg width="18" height="17" viewBox="0 0 18 17" fill="none" xmlns="http://www.w3.org/2000/svg">
<path d="M13.4966 16.9592C13.3763 16.9597 13.259 16.9222 13.1613 16.8521L8.56871 13.5226L3.97615 16.8521C3.87803 16.9233 3.75983 16.9614 3.63862 16.9609C3.51741 16.9605 3.39948 16.9215 3.30189 16.8496C3.20429 16.7778 3.13208 16.6767 3.0957 16.5611C3.05931 16.4455 3.06064 16.3213 3.09949 16.2065L4.89066 10.9011L0.248463 7.71767C0.14791 7.64879 0.0720183 7.54956 0.0318765 7.43448C-0.00826528 7.3194 -0.0105534 7.19449 0.0253465 7.07802C0.0612464 6.96154 0.133453 6.8596 0.231416 6.78708C0.329379 6.71457 0.447964 6.67528 0.569846 6.67496H6.29689L8.02522 1.35607C8.06245 1.24124 8.1351 1.14115 8.23274 1.07016C8.33038 0.999174 8.448 0.960938 8.56871 0.960938C8.68943 0.960938 8.80705 0.999174 8.90469 1.07016C9.00233 1.14115 9.07498 1.24124 9.11221 1.35607L10.8405 6.67675H16.5676C16.6896 6.67669 16.8085 6.7157 16.9067 6.78808C17.005 6.86045 17.0775 6.96239 17.1136 7.07895C17.1497 7.19552 17.1476 7.32059 17.1075 7.43584C17.0674 7.5511 16.9914 7.65049 16.8907 7.71945L12.2468 10.9011L14.0369 16.205C14.0659 16.2909 14.074 16.3824 14.0607 16.4721C14.0473 16.5617 14.0128 16.6469 13.96 16.7206C13.9072 16.7943 13.8377 16.8544 13.7571 16.8958C13.6765 16.9373 13.5872 16.9591 13.4966 16.9592Z" fill="#F3B050"/>
</svg>
