<svg width="1440" height="747" viewBox="0 0 1440 747" fill="none" xmlns="http://www.w3.org/2000/svg">
<mask id="mask0_108_357" style="mask-type:alpha" maskUnits="userSpaceOnUse" x="0" y="0" width="1440" height="747">
<path d="M1257.21 735.584C1435 754.5 1440 514.26 1440 383.5V0H0V668C66.565 662.127 153.204 677.878 279.078 716.642C436.658 748.358 423.408 612.683 550.228 696.379C731.941 816.301 838.887 695.057 933.529 621.493C1028.17 547.929 1010.66 704.308 1257.21 735.584Z" fill="url(#paint0_linear_108_357)"/>
</mask>
<g mask="url(#mask0_108_357)">
<path d="M1257.21 735.584C1435 754.5 1440 514.26 1440 383.5V0H0V668C66.565 662.127 153.204 677.878 279.078 716.642C436.658 748.358 423.408 612.683 550.228 696.379C731.941 816.301 838.887 695.057 933.529 621.493C1028.17 547.929 1010.66 704.308 1257.21 735.584Z" fill="url(#paint1_linear_108_357)"/>
<path opacity="0.2" d="M334.595 -179.104C-33.9297 -343.133 -17.4646 13.0126 -82.4052 181.619L-272.866 676.115L1634.65 1410.82L1966.4 549.478C1875.31 523.089 1768.37 458.575 1620.88 344.369C1427.89 223.075 1378.06 404.779 1251.63 232.154C1070.48 -15.1891 868.599 86.5815 706.695 133.15C544.791 179.718 645.648 -12.988 334.595 -179.104Z" fill="url(#paint2_linear_108_357)"/>
<g opacity="0.54">
<path d="M1388.67 234.382C1386.76 218.476 1372.31 207.132 1356.4 209.045C1340.49 210.957 1329.14 225.402 1331.05 241.309C1332.96 257.215 1347.4 268.559 1363.32 266.646C1379.23 264.733 1390.58 250.288 1388.67 234.382Z" fill="url(#paint3_linear_108_357)"/>
<path d="M1366.52 227.464C1365.06 226.821 1363.41 226.774 1361.92 227.333C1360.43 227.893 1359.22 229.014 1358.54 230.457L1357.64 232.467L1355.64 231.541C1354.18 230.87 1352.52 230.803 1351.02 231.357C1349.51 231.91 1348.29 233.038 1347.62 234.493C1346.94 235.948 1346.88 237.61 1347.43 239.114C1347.98 240.617 1349.11 241.84 1350.57 242.512L1358.05 245.923C1359.51 246.565 1361.16 246.609 1362.65 246.048C1364.14 245.486 1365.35 244.363 1366.02 242.919L1369.42 235.43C1370.07 233.986 1370.13 232.346 1369.59 230.859C1369.04 229.371 1367.94 228.154 1366.52 227.464Z" fill="white"/>
</g>
<path d="M1257.56 227.996L1195 220.954L1263.69 186L1257.56 227.996Z" stroke="#73C4E0" stroke-width="1.39" stroke-miterlimit="10"/>
<path d="M1237.56 226.43L1222.25 246.12V224.022L1262.72 187.353" stroke="#73C4E0" stroke-width="1.39" stroke-miterlimit="10"/>
<path d="M975 563.56L1004 564.501L975 544V563.56Z" stroke="#F7A4AD" stroke-width="1.12" stroke-linecap="round" stroke-linejoin="round"/>
<path d="M984.232 564.173L989.898 574.163L991.362 564.087L975.352 544.676" stroke="#F7A4AD" stroke-width="1.12" stroke-linecap="round" stroke-linejoin="round"/>
<path d="M964.02 615.708C965.236 625.438 969.75 634.9 977.209 641.249C984.667 647.597 995.24 650.516 1004.67 647.865C1006.94 647.292 1008.99 646.041 1010.53 644.277C1014.56 639.412 1012.52 632.772 1009.32 629.682C1005.51 626.034 999.486 625.109 995.215 628.138C990.945 631.166 988.962 636.651 988.937 641.918C988.888 646.989 990.425 651.949 993.334 656.103C996.243 660.258 1000.38 663.4 1005.16 665.09C1009.94 666.78 1015.14 666.933 1020.01 665.528C1024.89 664.123 1029.2 661.23 1032.35 657.254" stroke="#73C4E0" stroke-width="1.01" stroke-miterlimit="10"/>
<path opacity="0.4" d="M1318.49 457.434C1345.83 430.108 1345.83 385.804 1318.49 358.478C1291.15 331.152 1246.83 331.152 1219.5 358.478C1192.16 385.804 1192.16 430.108 1219.5 457.434C1246.83 484.76 1291.15 484.76 1318.49 457.434Z" stroke="#F7A4AD" stroke-width="1.12" stroke-linecap="round" stroke-linejoin="round"/>
<path opacity="0.1" d="M623.399 638.72C623.394 640.44 622.879 642.12 621.919 643.547C620.959 644.975 619.597 646.086 618.006 646.739C616.415 647.393 614.665 647.56 612.978 647.22C611.292 646.88 609.744 646.047 608.531 644.828C607.318 643.608 606.494 642.056 606.163 640.369C605.832 638.681 606.009 636.933 606.672 635.346C607.335 633.759 608.453 632.404 609.887 631.452C611.32 630.501 613.003 629.995 614.724 630C615.866 630.003 616.997 630.231 618.051 630.671C619.105 631.111 620.062 631.754 620.868 632.564C621.674 633.374 622.312 634.334 622.746 635.391C623.18 636.447 623.402 637.578 623.399 638.72Z" fill="#F0FBFF"/>
<path opacity="0.5" d="M975.399 225.72C975.394 227.44 974.879 229.12 973.919 230.547C972.959 231.975 971.597 233.086 970.006 233.739C968.415 234.393 966.665 234.56 964.978 234.22C963.292 233.88 961.744 233.047 960.531 231.828C959.318 230.608 958.494 229.056 958.163 227.369C957.832 225.681 958.009 223.933 958.672 222.346C959.335 220.759 960.453 219.404 961.887 218.452C963.32 217.501 965.003 216.995 966.724 217C967.866 217.003 968.997 217.231 970.051 217.671C971.105 218.111 972.062 218.754 972.868 219.564C973.673 220.374 974.312 221.334 974.746 222.391C975.18 223.447 975.402 224.578 975.399 225.72Z" fill="#F0FBFF"/>
<path opacity="0.8" d="M954.267 425.631C954.267 426.746 953.936 427.836 953.316 428.762C952.696 429.689 951.814 430.41 950.784 430.836C949.753 431.261 948.619 431.371 947.525 431.152C946.432 430.933 945.428 430.394 944.642 429.604C943.855 428.814 943.32 427.809 943.105 426.715C942.891 425.621 943.006 424.488 943.436 423.459C943.866 422.431 944.592 421.553 945.522 420.937C946.451 420.321 947.543 419.995 948.658 420C949.396 420.002 950.127 420.149 950.808 420.432C951.489 420.716 952.108 421.131 952.629 421.654C953.15 422.177 953.562 422.798 953.843 423.48C954.124 424.162 954.268 424.893 954.267 425.631Z" fill="#F0FBFF"/>
<path d="M579.503 526.44C592.289 518.049 595.853 500.886 587.463 488.106C579.072 475.326 561.906 471.768 549.12 480.159C536.334 488.549 532.77 505.712 541.161 518.492C549.551 531.273 566.717 534.831 579.503 526.44Z" fill="url(#paint4_linear_108_357)"/>
<path d="M570.712 493.385C569.326 492.758 567.747 492.707 566.323 493.242C564.899 493.777 563.745 494.856 563.115 496.241L562.255 498.146L560.33 497.268C559.644 496.955 558.903 496.78 558.149 496.754C557.395 496.727 556.644 496.849 555.937 497.113C555.231 497.377 554.583 497.777 554.031 498.291C553.479 498.805 553.034 499.422 552.721 500.108C552.408 500.794 552.233 501.535 552.206 502.289C552.179 503.042 552.301 503.793 552.565 504.5C552.829 505.206 553.229 505.853 553.743 506.405C554.257 506.956 554.874 507.401 555.56 507.714L562.688 510.97C564.077 511.597 565.657 511.648 567.084 511.112C568.51 510.576 569.665 509.497 570.297 508.11L573.535 500.965C574.164 499.585 574.22 498.012 573.69 496.591C573.161 495.171 572.09 494.018 570.712 493.385Z" fill="white"/>
<path d="M1357.38 632.102C1365.38 628.371 1368.85 618.859 1365.11 610.855C1361.38 602.852 1351.86 599.388 1343.86 603.119C1335.85 606.85 1332.39 616.363 1336.12 624.366C1339.86 632.369 1349.37 635.833 1357.38 632.102Z" fill="url(#paint5_linear_108_357)"/>
<path d="M1357.14 615.612C1356.95 615.216 1356.69 614.861 1356.36 614.567C1356.04 614.273 1355.66 614.047 1355.25 613.902C1354.84 613.757 1354.4 613.695 1353.96 613.721C1353.52 613.746 1353.1 613.859 1352.7 614.052L1351.64 614.582L1351.1 613.511C1350.72 612.716 1350.04 612.104 1349.21 611.81C1348.38 611.515 1347.47 611.562 1346.67 611.94C1345.88 612.318 1345.27 612.996 1344.97 613.826C1344.68 614.655 1344.73 615.567 1345.1 616.362L1347.05 620.448C1347.43 621.24 1348.11 621.849 1348.94 622.141C1349.77 622.434 1350.69 622.386 1351.48 622.008L1355.59 620.003C1355.98 619.816 1356.33 619.555 1356.62 619.233C1356.91 618.911 1357.13 618.536 1357.27 618.128C1357.42 617.72 1357.48 617.288 1357.46 616.856C1357.43 616.425 1357.32 616.002 1357.14 615.612Z" fill="white"/>
<path d="M1007.59 364.812L946.234 350.898C944.972 350.613 943.845 349.908 943.038 348.898C942.231 347.888 941.792 346.633 941.793 345.34V276.696C941.794 275.824 941.995 274.965 942.381 274.183C942.766 273.401 943.326 272.717 944.017 272.185C944.708 271.653 945.511 271.287 946.366 271.114C947.221 270.941 948.104 270.965 948.947 271.187L1010.26 287.387C1011.47 287.709 1012.55 288.423 1013.32 289.42C1014.08 290.416 1014.5 291.638 1014.5 292.896V359.253C1014.5 360.103 1014.31 360.942 1013.94 361.708C1013.57 362.474 1013.04 363.148 1012.37 363.68C1011.71 364.213 1010.94 364.591 1010.11 364.787C1009.28 364.983 1008.42 364.991 1007.59 364.812V364.812Z" stroke="#F7A4AD" stroke-width="1.12" stroke-linecap="round" stroke-linejoin="round"/>
<path d="M1000.18 372.68C999.423 373.275 998.557 373.711 997.631 373.962C996.704 374.213 995.737 374.273 994.786 374.139L933.441 360.226C932.179 359.941 931.052 359.236 930.245 358.226C929.438 357.215 928.999 355.96 929 354.668V286.024C928.998 285.222 929.165 284.429 929.493 283.698C929.82 282.966 930.299 282.312 930.898 281.779" stroke="#F7A4AD" stroke-width="1.12" stroke-linecap="round" stroke-linejoin="round"/>
<path d="M1011.27 364.411L999.66 373.071" stroke="#F7A4AD" stroke-width="1.12" stroke-linecap="round" stroke-linejoin="round"/>
<path d="M930.903 281.78L944.444 271.88" stroke="#F7A4AD" stroke-width="1.12" stroke-linecap="round" stroke-linejoin="round"/>
<path d="M995.092 306.482C991.32 300.997 985.005 299.805 980.966 303.794L978.302 306.434L975.807 302.785C972.048 297.3 965.733 296.084 961.67 300.061C957.606 304.038 957.375 311.7 961.134 317.185L970.405 330.746C970.401 330.778 970.401 330.811 970.405 330.843C971.704 332.811 973.559 334.348 975.734 335.258C977.207 335.879 978.831 336.045 980.399 335.735C981.967 335.425 983.406 334.653 984.531 333.519L994.581 323.607C998.632 319.63 998.851 311.955 995.092 306.482Z" fill="#FF4252"/>
<path d="M685.916 229.264L715.847 265.751C716.464 266.497 717.316 267.012 718.263 267.213C719.211 267.414 720.199 267.289 721.066 266.858L767.105 243.81C767.69 243.517 768.199 243.094 768.594 242.574C768.99 242.053 769.26 241.449 769.385 240.807C769.509 240.166 769.485 239.504 769.313 238.873C769.142 238.243 768.827 237.66 768.395 237.17L736.932 201.449C736.31 200.741 735.471 200.259 734.547 200.079C733.622 199.898 732.664 200.03 731.822 200.452L687.34 222.733C686.763 223.017 686.257 223.427 685.861 223.933C685.465 224.439 685.188 225.027 685.051 225.655C684.914 226.283 684.921 226.934 685.071 227.559C685.221 228.183 685.51 228.767 685.916 229.264Z" fill="#F0FBFF"/>
<path d="M685.916 229.264L715.847 265.751C716.464 266.497 717.316 267.012 718.263 267.213C719.211 267.414 720.199 267.289 721.066 266.858L767.105 243.81C767.69 243.517 768.199 243.094 768.594 242.574C768.99 242.053 769.26 241.449 769.385 240.807C769.509 240.166 769.485 239.504 769.313 238.873C769.142 238.243 768.827 237.66 768.395 237.17L736.932 201.449C736.31 200.741 735.471 200.259 734.547 200.079C733.622 199.898 732.664 200.03 731.822 200.452L687.34 222.733C686.763 223.017 686.257 223.427 685.861 223.933C685.465 224.439 685.188 225.027 685.051 225.655C684.914 226.283 684.921 226.934 685.071 227.559C685.221 228.183 685.51 228.767 685.916 229.264V229.264Z" stroke="#87BBDA" stroke-width="1.36" stroke-miterlimit="10"/>
<path d="M683.108 236.878C682.964 237.582 682.964 238.309 683.109 239.013C683.253 239.718 683.538 240.385 683.948 240.977L713.878 277.463C714.49 278.214 715.34 278.733 716.287 278.934C717.234 279.135 718.221 279.007 719.085 278.57L765.125 255.486C765.665 255.217 766.143 254.837 766.525 254.369C766.906 253.901 767.184 253.357 767.339 252.774" stroke="#87BBDA" stroke-width="1.36" stroke-miterlimit="10"/>
<path d="M684.946 226.661L683.024 237.352" stroke="#87BBDA" stroke-width="1.36" stroke-miterlimit="10"/>
<path d="M767.348 252.774L769.441 240.381" stroke="#87BBDA" stroke-width="1.36" stroke-miterlimit="10"/>
<path d="M733.317 220.094C729.01 218.793 726.394 220.824 725.725 224.68C725.553 225.638 724.559 226.21 723.644 225.875L722.537 225.47C717.67 223.439 711.952 226.224 711.271 230.067C710.589 233.911 713.509 238.313 717.804 239.894L728.426 243.799C729.945 244.389 731.606 244.512 733.195 244.151C734.268 243.909 735.244 243.353 735.998 242.554C736.752 241.754 737.251 240.748 737.429 239.663L739.096 230.116C739.826 226.297 737.697 221.42 733.317 220.094Z" fill="url(#paint6_linear_108_357)"/>
<path d="M675.177 759.882H838.394C840.657 759.881 842.894 759.409 844.964 758.495C847.034 757.582 848.891 756.247 850.415 754.576C851.94 752.906 853.1 750.935 853.821 748.791C854.541 746.648 854.807 744.377 854.601 742.125L821.507 380.274C821.139 376.231 819.273 372.473 816.274 369.736C813.275 366.999 809.361 365.483 805.301 365.484H642.083C639.82 365.485 637.583 365.957 635.513 366.871C633.443 367.784 631.587 369.119 630.062 370.79C628.537 372.461 627.377 374.431 626.657 376.575C625.936 378.719 625.67 380.989 625.877 383.241L658.958 745.092C659.329 749.136 661.198 752.895 664.198 755.631C667.199 758.367 671.115 759.883 675.177 759.882Z" fill="#C74EF2"/>
<path d="M695.324 759.881H858.566C860.829 759.88 863.067 759.408 865.138 758.494C867.208 757.581 869.065 756.246 870.591 754.576C872.117 752.905 873.278 750.935 874 748.791C874.722 746.647 874.989 744.377 874.785 742.124L841.691 380.273C841.321 376.236 839.457 372.482 836.464 369.746C833.471 367.011 829.564 365.491 825.509 365.483H662.255C659.992 365.484 657.755 365.956 655.685 366.87C653.615 367.783 651.759 369.118 650.234 370.789C648.709 372.46 647.549 374.43 646.828 376.574C646.108 378.718 645.842 380.988 646.048 383.24L679.142 745.091C679.509 749.13 681.372 752.885 684.366 755.621C687.36 758.357 691.268 759.876 695.324 759.881Z" fill="#E9DFFF"/>
<path d="M825.509 375.724C827.016 375.718 828.471 376.279 829.584 377.295C830.698 378.311 831.388 379.708 831.519 381.209L864.577 743.097C864.645 743.93 864.541 744.769 864.271 745.56C864.001 746.352 863.57 747.079 863.006 747.696C862.442 748.314 861.757 748.808 860.993 749.149C860.229 749.49 859.403 749.669 858.566 749.677H695.324C693.817 749.682 692.362 749.122 691.249 748.106C690.136 747.09 689.445 745.693 689.314 744.191L656.244 382.304C656.176 381.47 656.28 380.632 656.55 379.84C656.82 379.049 657.251 378.322 657.815 377.704C658.379 377.087 659.064 376.592 659.828 376.252C660.592 375.911 661.418 375.731 662.255 375.724H825.509ZM825.509 365.483H662.255C659.992 365.484 657.755 365.956 655.685 366.87C653.615 367.783 651.759 369.118 650.234 370.789C648.709 372.46 647.549 374.43 646.828 376.574C646.108 378.718 645.842 380.988 646.048 383.24L679.142 745.091C679.509 749.13 681.372 752.885 684.366 755.621C687.36 758.357 691.268 759.876 695.324 759.881H858.566C860.829 759.88 863.067 759.408 865.138 758.494C867.208 757.581 869.065 756.246 870.591 754.576C872.117 752.905 873.278 750.935 874 748.791C874.722 746.647 874.989 744.377 874.785 742.124L841.691 380.273C841.321 376.236 839.457 372.482 836.464 369.746C833.471 367.011 829.564 365.491 825.509 365.483Z" fill="#A21DD1"/>
<path d="M709.234 387.826H791.141C792.433 387.825 793.71 387.552 794.89 387.025C796.069 386.497 797.124 385.726 797.985 384.763C798.847 383.8 799.495 382.666 799.888 381.436C800.281 380.205 800.41 378.906 800.266 377.622L799.122 366.676H698.758L700.121 379.653C700.366 381.898 701.432 383.973 703.114 385.481C704.795 386.989 706.974 387.824 709.234 387.826Z" fill="#C74EF2"/>
<path d="M773.273 375.931H731.918" stroke="white" stroke-width="1.05" stroke-linecap="round" stroke-linejoin="round"/>
<path d="M828.019 602.246C831.134 603.523 885.605 782.247 885.605 782.247L821.12 782.636L786.944 663.045L770.604 782.794L716.011 782.417C716.011 782.417 712.836 622.399 732.132 583.078L828.019 602.246Z" fill="#5E056C"/>
<path d="M786.949 663.046L807.341 650.628" stroke="#494949" stroke-width="0.63" stroke-linecap="round" stroke-linejoin="round"/>
<path d="M860.287 454.851C860.287 454.851 879.754 472.048 850.554 558.886L823.117 561.574L860.287 454.851Z" fill="#ED6470"/>
<path d="M916.511 524.287C916.511 524.287 907.897 515.907 918.117 504.73L933.52 487.241C933.849 486.881 934.251 486.595 934.699 486.402C935.147 486.209 935.631 486.114 936.119 486.122C936.606 486.13 937.087 486.241 937.528 486.449C937.97 486.657 938.362 486.956 938.679 487.326C939.125 487.849 939.404 488.493 939.483 489.175C939.561 489.857 939.433 490.548 939.117 491.157L933.8 501.945L960.798 487.898C961.267 487.629 961.789 487.465 962.328 487.417C962.867 487.37 963.41 487.44 963.919 487.623C964.428 487.805 964.891 488.096 965.277 488.476C965.662 488.855 965.961 489.314 966.152 489.819C966.457 490.625 966.474 491.511 966.198 492.327C965.923 493.143 965.374 493.839 964.643 494.295L947.074 504.937L947.269 505.959L966.991 497.567C967.497 497.41 968.032 497.365 968.557 497.436C969.082 497.507 969.586 497.691 970.033 497.975C970.48 498.26 970.859 498.639 971.145 499.085C971.431 499.531 971.616 500.034 971.688 500.559C971.777 501.38 971.585 502.208 971.143 502.906C970.701 503.604 970.035 504.131 969.254 504.402L950.067 513.779L950.177 515.068L968.427 509.62C970.069 509.316 973.427 507.455 974.328 510.325C975.544 513.657 971.396 514.728 969.558 515.385L950.469 522.414L950.529 523.631L968.001 519.155C968.387 519.148 968.769 519.228 969.12 519.387C969.472 519.546 969.783 519.782 970.033 520.076C970.282 520.371 970.462 520.717 970.561 521.09C970.66 521.463 970.675 521.853 970.605 522.232C970.494 522.804 970.193 523.323 969.752 523.705C969.311 524.086 968.754 524.308 968.171 524.336L948.157 530.259C948.157 530.259 929.347 540.135 922.217 532.509L916.511 524.287Z" fill="#C4735A"/>
<path d="M933.8 501.944C933.8 501.944 938.168 512.416 930.43 520.382" stroke="#1D0006" stroke-width="0.63" stroke-linecap="round" stroke-linejoin="round"/>
<path d="M889.547 522.827L919.684 514.046L930.075 532.885L895.874 546.483L889.547 522.827Z" fill="#C4735A"/>
<path d="M900.672 517.279L913.265 513.886L923.594 535.316L907.997 541.664L900.672 517.279Z" fill="#FFD1D5"/>
<path d="M831.12 533.907L893.73 513.231C896.521 512.361 899.537 512.57 902.181 513.818C904.824 515.066 906.902 517.262 908.002 519.969L914.718 536.498C915.847 539.285 915.855 542.4 914.739 545.193C913.624 547.985 911.471 550.239 908.732 551.482L849.516 579.807C844.483 582.098 838.769 582.401 833.522 580.655C828.275 578.909 823.883 575.243 821.228 570.394C814.962 558.791 818.868 538.638 831.12 533.907Z" fill="#ED6470"/>
<path d="M860.737 524.104L849.117 527.777" stroke="#1D0006" stroke-width="0.65" stroke-linecap="round" stroke-linejoin="round"/>
<path d="M839.033 431.743C839.033 431.743 822.851 425.456 799.101 426.38L794.453 437.399L818.264 445.912L841.661 444.696L843.765 441.473L839.033 431.743Z" fill="black"/>
<path d="M737.598 593.89C737.598 593.89 798.359 628.528 835.687 605.176L839.921 521.743L846.978 464.362L839.276 450.728L815.538 444.051L786.91 446.228L757.71 492.894L737.598 593.89Z" fill="#5725E4"/>
<path d="M788.653 443.443C788.653 443.443 815.76 473.581 845.447 454.547L840.459 441.473L824.739 433.592L794.626 433.969L788.653 443.443Z" fill="#C4735A"/>
<path d="M801.111 473.094C801.111 473.094 795.599 570.659 777.288 632.942C776.156 636.761 771.448 638.306 767.627 637.211C759.111 634.779 734.29 615.538 719.836 589.779L740.994 452.09C741.2 449.595 742.006 447.186 743.342 445.069C744.679 442.951 746.507 441.187 748.672 439.927C756.191 435.537 785.281 432.35 785.281 432.35C785.281 432.35 802.157 428.811 801.111 473.094Z" fill="#ED6470"/>
<path d="M800.084 453.235L777.867 464.813L781.189 432.899L799.098 426.368L800.084 453.235Z" fill="#C73743"/>
<path d="M826.25 637.979C825.958 640.412 834.365 641.628 835.983 639.682C839.293 634.501 842.493 628.615 842.979 622.485L850.364 511.65L864.174 469.824C864.985 467.233 865.057 464.467 864.383 461.838C863.708 459.208 862.312 456.818 860.353 454.938C854.445 449.302 847.629 444.702 840.193 441.328C840.193 441.328 840.899 513.888 826.25 637.979Z" fill="#ED6470"/>
<path d="M845.059 581.316L850.351 511.65L855.912 488.651" stroke="#1D0006" stroke-width="0.63" stroke-linecap="round" stroke-linejoin="round"/>
<path d="M840.082 453.855L854.548 468.23L848.404 442.787L839.035 431.731L840.082 453.855Z" fill="#C73743"/>
<path d="M753.538 438.287C753.538 438.287 771.216 470.505 719.678 542.226L707.304 562.585C705.608 565.38 703.36 567.8 700.697 569.697C698.033 571.593 695.011 572.927 691.815 573.617C688.618 574.307 685.315 574.338 682.106 573.709C678.897 573.079 675.85 571.802 673.152 569.956C668.188 566.563 664.676 561.433 663.311 555.579C661.946 549.724 662.827 543.571 665.779 538.334C683.664 506.7 719.933 444.466 753.538 438.287Z" fill="#ED6470"/>
<path d="M729.34 528.007L759.672 488.272" stroke="#1D0006" stroke-width="0.63" stroke-linecap="round" stroke-linejoin="round"/>
<path d="M732.33 619.674C732.33 619.674 739.131 609.762 751.87 617.923L771.738 630.085C772.149 630.348 772.499 630.696 772.765 631.104C773.031 631.513 773.207 631.973 773.282 632.455C773.357 632.937 773.329 633.429 773.199 633.899C773.069 634.369 772.841 634.806 772.529 635.181C772.095 635.7 771.516 636.08 770.867 636.273C770.218 636.465 769.526 636.462 768.879 636.264L757.333 632.797L775.765 657.012C776.112 657.427 776.364 657.912 776.504 658.434C776.643 658.956 776.668 659.503 776.575 660.035C776.483 660.568 776.275 661.073 775.967 661.518C775.659 661.962 775.258 662.333 774.792 662.607C774.047 663.044 773.173 663.21 772.32 663.077C771.466 662.944 770.685 662.52 770.108 661.877L756.627 646.383L755.654 646.747L767.285 664.76C767.523 665.231 767.656 665.749 767.674 666.277C767.692 666.804 767.596 667.33 767.391 667.817C767.186 668.304 766.878 668.74 766.488 669.096C766.098 669.453 765.635 669.72 765.132 669.88C764.337 670.106 763.489 670.056 762.727 669.738C761.964 669.42 761.332 668.852 760.934 668.129L748.378 650.858L747.161 651.187L755.678 668.287C756.25 669.856 758.196 673.358 754.279 675.061C752.794 675.548 750.763 671.826 750.191 670.379L740.019 652.768L738.803 653.023L746.2 669.479C746.272 669.859 746.259 670.25 746.161 670.625C746.063 670.999 745.883 671.347 745.633 671.643C745.384 671.938 745.072 672.175 744.719 672.335C744.367 672.495 743.983 672.575 743.596 672.568C743.027 672.55 742.48 672.345 742.04 671.984C741.6 671.624 741.292 671.127 741.163 670.573L731.831 651.88C731.831 651.88 718.898 635.023 725.2 626.716L732.33 619.674Z" fill="#C4735A"/>
<path d="M729.191 592.868L742.964 621.06L726.161 634.5L706.938 603.121L729.191 592.868Z" fill="#C4735A"/>
<path d="M736.546 602.878L742.034 614.712L722.664 628.528L713.758 614.25L736.546 602.878Z" fill="#FFD1D5"/>
<path d="M708.399 537.191L739.315 595.363C740.651 597.962 740.96 600.969 740.18 603.786C739.4 606.602 737.588 609.022 735.106 610.565L719.946 619.991C717.389 621.589 714.312 622.134 711.362 621.51C708.412 620.886 705.819 619.143 704.129 616.646L666.132 563.096C663.025 558.518 661.768 552.934 662.612 547.467C663.456 542 666.34 537.056 670.682 533.627C681.048 525.503 701.586 525.928 708.399 537.191Z" fill="#ED6470"/>
<path d="M715.092 549.778L706.125 533.298" stroke="#1D0006" stroke-width="0.63" stroke-linecap="round" stroke-linejoin="round"/>
<path d="M723.512 565.613L739.682 595.715C740.652 597.533 741.064 599.598 740.864 601.649C740.665 603.7 739.864 605.647 738.562 607.245V607.245" stroke="#1D0006" stroke-width="0.63" stroke-linecap="round" stroke-linejoin="round"/>
<path d="M803.747 345.685C803.747 345.685 791.008 341.805 786.713 354.843C782.418 367.881 810.451 388.557 810.451 388.557L803.747 345.685Z" fill="#1F0C03"/>
<path d="M822.499 326.892C822.499 326.892 851.067 311.154 869.402 323.073C892.969 338.422 860.398 363.622 860.398 363.622C860.398 363.622 818.934 355.242 822.499 326.892Z" fill="#1F0C03"/>
<path d="M795.176 357.092L824.072 403.515C846.471 406.628 864.746 390.416 867.715 369.047C870.683 347.678 857.239 329.216 834.864 326.102C812.489 322.989 798.157 335.662 795.176 357.092Z" fill="#1F0C03"/>
<path d="M873.99 389.34C876.03 384.144 873.471 378.278 868.273 376.239C863.075 374.199 857.207 376.758 855.167 381.954C853.127 387.15 855.687 393.016 860.884 395.055C866.082 397.094 871.95 394.536 873.99 389.34Z" fill="#AC503C"/>
<path d="M839.761 405.049L833.835 447.094L802.567 437.899L820.026 384.884L839.761 405.049Z" fill="#C4735A"/>
<path d="M836.838 425.09C836.838 425.09 821.191 414.594 817.59 394.587L839.49 408.087L836.838 425.09Z" fill="#AC503C"/>
<path d="M864.805 346.777C867.588 351.361 869.286 356.519 869.769 361.858C870.378 371.941 870.986 386.706 866.752 395.353C860.669 407.588 852.456 417.817 833.026 412.757C831.429 412.339 829.886 411.739 828.427 410.97C821.869 407.576 806.052 396.971 806.757 374.142C808.278 323.499 849.499 324.46 864.805 346.777Z" fill="#C4735A"/>
<path d="M817.437 376.721C817.749 372.17 817.046 367.607 815.38 363.36C813.714 359.114 811.125 355.29 807.801 352.165L798.992 367.088L811.914 378.825L817.437 376.721Z" fill="#1F0C03"/>
<path d="M794.857 382.34C795.188 384.427 796.131 386.37 797.566 387.922C799.001 389.475 800.864 390.567 802.92 391.061C804.976 391.555 807.132 391.428 809.116 390.698C811.1 389.967 812.823 388.665 814.067 386.956C815.311 385.247 816.021 383.208 816.106 381.096C816.191 378.984 815.647 376.894 814.545 375.091C813.442 373.287 811.829 371.851 809.91 370.964C807.991 370.076 805.852 369.777 803.763 370.105C800.959 370.547 798.446 372.085 796.776 374.379C795.106 376.674 794.416 379.537 794.857 382.34Z" fill="#C4735A"/>
<path d="M802.082 377.731C802.082 377.731 807.983 377.038 810.149 384.652" stroke="#1D0006" stroke-width="0.63" stroke-linecap="round" stroke-linejoin="round"/>
<path d="M810.699 360.387C810.699 360.387 823.085 353.199 819.593 339.845H807.147L800.625 352.287L810.699 360.387Z" fill="#1F0C03"/>
<path d="M819.613 341.294C819.613 341.294 828.69 348.105 844.738 344.079C860.786 340.053 865.081 347.18 865.081 347.18C865.081 347.18 853.863 325.167 824.675 330.627C795.487 336.088 819.613 341.294 819.613 341.294Z" fill="#1F0C03"/>
<path d="M828.545 326.626C828.545 326.626 814.991 319.682 805.672 325.021C796.352 330.36 794.381 347.375 800.622 352.349C800.622 352.349 818.216 328.913 828.545 326.626Z" fill="#1F0C03"/>
<path d="M860.382 355.754C860.382 355.754 859.02 358.588 863.108 359.633C865.071 360.033 866.971 360.7 868.753 361.616C869.21 361.85 869.729 361.933 870.235 361.855C870.742 361.776 871.211 361.539 871.576 361.178C871.784 360.866 871.911 360.506 871.945 360.133C871.979 359.759 871.919 359.382 871.77 359.038C871.534 357.768 870.933 356.595 870.041 355.662C869.149 354.729 868.003 354.076 866.746 353.783C861.903 352.482 860.382 355.754 860.382 355.754Z" fill="#1F0C03"/>
<path d="M848.367 353.906C848.367 353.906 849.45 357.823 843.5 357.823C839.228 357.981 834.98 358.535 830.81 359.477C830.106 359.629 829.374 359.574 828.7 359.32C828.027 359.065 827.441 358.621 827.014 358.042C826.73 357.629 826.607 357.127 826.668 356.63C826.728 356.132 826.968 355.674 827.343 355.342C831.119 352.452 835.674 350.758 840.422 350.477C847.491 350.355 848.367 353.906 848.367 353.906Z" fill="#1F0C03"/>
<path d="M847.107 375.604C847.107 375.604 844.005 363.965 829.028 371.761C829.028 371.761 834.417 381.296 847.107 375.604Z" fill="white"/>
<path d="M844.048 372.974C844.091 374.005 843.826 375.025 843.289 375.906C842.751 376.786 841.965 377.488 841.029 377.922C840.093 378.356 839.049 378.503 838.029 378.344C837.01 378.185 836.06 377.727 835.3 377.029C834.541 376.331 834.005 375.423 833.761 374.421C833.517 373.419 833.576 372.367 833.931 371.398C834.285 370.429 834.918 369.586 835.751 368.977C836.584 368.368 837.579 368.02 838.61 367.975C839.295 367.946 839.98 368.052 840.624 368.288C841.269 368.523 841.861 368.883 842.366 369.347C842.871 369.812 843.28 370.371 843.568 370.993C843.857 371.616 844.02 372.289 844.048 372.974Z" fill="black"/>
<path d="M828.544 371.236C830.024 369.95 831.823 369.085 833.752 368.731C835.613 368.34 837.528 368.283 839.409 368.56C841.321 368.769 843.139 369.496 844.665 370.664C846.186 371.862 847.174 373.609 847.415 375.529C847.42 375.569 847.417 375.609 847.406 375.647C847.395 375.685 847.377 375.72 847.352 375.751C847.327 375.782 847.296 375.807 847.261 375.825C847.226 375.844 847.187 375.855 847.147 375.858C847.069 375.868 846.989 375.847 846.925 375.8C846.861 375.752 846.819 375.681 846.807 375.602C846.529 373.872 845.58 372.321 844.167 371.285C842.733 370.274 841.05 369.673 839.3 369.546C837.542 369.347 835.762 369.463 834.044 369.886C832.365 370.262 830.816 371.076 829.554 372.246C829.49 372.323 829.41 372.385 829.32 372.43C829.23 372.474 829.131 372.499 829.031 372.503C828.931 372.507 828.831 372.489 828.737 372.452C828.644 372.415 828.56 372.359 828.49 372.287C828.419 372.215 828.365 372.129 828.33 372.035C828.295 371.941 828.28 371.841 828.287 371.741C828.293 371.64 828.32 371.543 828.367 371.454C828.413 371.365 828.478 371.286 828.557 371.224L828.544 371.236Z" fill="#1D0006"/>
<path d="M857.383 376.429C857.383 376.429 860.924 366.797 869.148 375.979C869.148 375.979 862.858 384.031 857.383 376.429Z" fill="white"/>
<path d="M859.939 375.127C859.525 377.681 860.766 379.992 862.701 380.308C864.636 380.624 866.546 378.812 866.959 376.258C867.373 373.704 866.132 371.393 864.198 371.089C862.263 370.785 860.353 372.585 859.939 375.127Z" fill="black"/>
<path d="M868.457 376.283C867.996 375.203 867.238 374.275 866.271 373.608C865.304 372.941 864.168 372.561 862.994 372.513C861.79 372.458 860.603 372.809 859.624 373.51C858.655 374.255 857.958 375.298 857.641 376.478C857.621 376.545 857.575 376.602 857.514 376.636C857.452 376.67 857.38 376.679 857.312 376.66C857.248 376.643 857.192 376.602 857.156 376.546C857.12 376.49 857.106 376.422 857.117 376.356C857.376 374.987 858.104 373.752 859.177 372.864C860.251 371.975 861.601 371.49 862.994 371.491C864.415 371.459 865.816 371.835 867.03 372.574C868.244 373.314 869.221 374.386 869.844 375.663C869.906 375.841 869.9 376.036 869.828 376.21C869.755 376.384 869.621 376.525 869.451 376.607C869.28 376.688 869.086 376.704 868.905 376.651C868.724 376.598 868.569 376.48 868.469 376.32L868.457 376.283Z" fill="#1D0006"/>
<path d="M854.197 379.081L857.543 386.512L854.039 388.482" stroke="#1D0006" stroke-width="0.61" stroke-linecap="round" stroke-linejoin="round"/>
<path d="M855.461 392.824L838.427 389.832C838.427 389.832 836.943 397.786 845.947 399.185C854.95 400.583 855.461 392.824 855.461 392.824Z" fill="black"/>
<path d="M856.101 395.609L835.977 392.155L837.206 387.107L860.408 389.151L856.101 395.609Z" fill="white"/>
<path d="M835.918 401.337C836.167 402.444 836.738 403.453 837.56 404.236C838.382 405.019 839.418 405.541 840.536 405.736C841.655 405.931 842.806 405.79 843.844 405.331C844.883 404.872 845.762 404.115 846.37 403.157C846.979 402.199 847.29 401.082 847.263 399.947C847.237 398.812 846.874 397.711 846.222 396.782C845.569 395.853 844.656 395.138 843.598 394.728C842.539 394.318 841.382 394.23 840.274 394.477C838.788 394.811 837.494 395.721 836.678 397.007C835.861 398.293 835.588 399.85 835.918 401.337Z" fill="#D95758"/>
<path opacity="0.22" d="M836.528 361.36L849.68 380.492C849.68 380.492 845.276 388.3 838.73 387.193L825.383 368.5C825.383 368.5 829.398 360.631 836.528 361.36Z" fill="white"/>
<path opacity="0.22" d="M867.564 362.31L878.745 381.308C878.745 381.308 874.852 389.14 869.182 388.106L857.879 369.571C857.879 369.571 861.432 361.653 867.564 362.31Z" fill="white"/>
<path d="M850.966 374.824C850.88 377.485 850.007 380.062 848.457 382.227C846.906 384.392 844.749 386.05 842.256 386.989C839.764 387.929 837.049 388.108 834.454 387.505C831.859 386.902 829.502 385.544 827.68 383.601C825.858 381.659 824.652 379.22 824.217 376.593C823.781 373.966 824.134 371.269 825.232 368.843C826.33 366.417 828.123 364.371 830.384 362.963C832.645 361.555 835.273 360.849 837.935 360.935C841.505 361.052 844.882 362.581 847.325 365.185C849.768 367.789 851.077 371.256 850.966 374.824V374.824Z" stroke="white" stroke-width="0.79" stroke-miterlimit="10"/>
<path d="M879.932 375.628C879.64 383.059 874.213 388.934 867.765 388.776C861.316 388.618 856.377 382.439 856.669 375.008C856.961 367.577 862.375 361.702 868.836 361.873C875.296 362.043 880.26 368.197 879.932 375.628Z" stroke="white" stroke-width="0.74" stroke-miterlimit="10"/>
<path d="M850.973 374.823C851.876 374.404 852.866 374.202 853.861 374.236C854.857 374.27 855.831 374.538 856.703 375.018" stroke="white" stroke-width="0.79" stroke-miterlimit="10"/>
<path d="M815.645 377.501L824.101 374.546" stroke="white" stroke-width="0.79" stroke-miterlimit="10"/>
<path d="M1255.55 759.879H1092.33C1090.07 759.875 1087.84 759.4 1085.77 758.485C1083.7 757.57 1081.85 756.235 1080.33 754.564C1078.8 752.894 1077.65 750.925 1076.93 748.783C1076.21 746.641 1075.94 744.372 1076.15 742.122L1109.23 380.271C1109.6 376.232 1111.47 372.476 1114.46 369.74C1117.46 367.005 1121.37 365.486 1125.43 365.481H1288.64C1290.91 365.477 1293.15 365.946 1295.22 366.857C1297.3 367.768 1299.16 369.102 1300.69 370.773C1302.22 372.445 1303.38 374.417 1304.1 376.563C1304.83 378.709 1305.09 380.983 1304.89 383.238L1271.79 745.089C1271.42 749.138 1269.55 752.902 1266.55 755.639C1263.54 758.377 1259.62 759.889 1255.55 759.879Z" fill="#C74EF2"/>
<path d="M1235.37 759.881H1072.16C1069.89 759.88 1067.66 759.408 1065.59 758.494C1063.51 757.581 1061.66 756.246 1060.13 754.576C1058.61 752.905 1057.44 750.935 1056.72 748.791C1056 746.647 1055.73 744.377 1055.94 742.124L1089.03 380.273C1089.4 376.231 1091.27 372.474 1094.27 369.738C1097.27 367.002 1101.18 365.485 1105.24 365.483H1268.47C1270.73 365.484 1272.97 365.956 1275.04 366.87C1277.11 367.783 1278.96 369.118 1280.49 370.789C1282.01 372.46 1283.17 374.43 1283.89 376.574C1284.61 378.718 1284.88 380.988 1284.67 383.24L1251.58 745.091C1251.21 749.134 1249.35 752.892 1246.35 755.629C1243.35 758.366 1239.43 759.882 1235.37 759.881Z" fill="#E9DFFF"/>
<path d="M1268.47 375.724C1269.3 375.733 1270.13 375.914 1270.89 376.255C1271.65 376.597 1272.34 377.091 1272.9 377.709C1273.46 378.326 1273.89 379.053 1274.16 379.843C1274.43 380.634 1274.53 381.471 1274.47 382.304L1241.38 744.155C1241.25 745.656 1240.56 747.053 1239.45 748.069C1238.34 749.085 1236.88 749.646 1235.37 749.64H1072.16C1071.32 749.633 1070.49 749.453 1069.73 749.113C1068.97 748.772 1068.28 748.277 1067.72 747.66C1067.15 747.042 1066.72 746.315 1066.45 745.524C1066.18 744.732 1066.08 743.894 1066.15 743.06L1099.26 381.209C1099.39 379.709 1100.08 378.312 1101.19 377.296C1102.3 376.28 1103.76 375.719 1105.26 375.724H1268.47ZM1268.47 365.483H1105.24C1101.18 365.485 1097.27 367.002 1094.27 369.738C1091.27 372.474 1089.4 376.231 1089.03 380.273L1055.94 742.124C1055.73 744.377 1056 746.647 1056.72 748.791C1057.44 750.935 1058.61 752.905 1060.13 754.576C1061.66 756.246 1063.51 757.581 1065.59 758.494C1067.66 759.408 1069.89 759.88 1072.16 759.881H1235.37C1239.43 759.882 1243.35 758.366 1246.35 755.629C1249.35 752.892 1251.21 749.134 1251.58 745.091L1284.67 383.24C1284.88 380.988 1284.61 378.718 1283.89 376.574C1283.17 374.43 1282.01 372.46 1280.49 370.789C1278.96 369.118 1277.11 367.783 1275.04 366.87C1272.97 365.956 1270.73 365.484 1268.47 365.483Z" fill="#A21DD1"/>
<path d="M1221.5 387.825H1139.59C1138.3 387.824 1137.02 387.551 1135.84 387.024C1134.66 386.496 1133.61 385.725 1132.75 384.762C1131.89 383.799 1131.24 382.665 1130.85 381.435C1130.45 380.204 1130.32 378.905 1130.47 377.621L1131.61 366.675H1231.98L1230.67 379.688C1230.42 381.937 1229.34 384.012 1227.65 385.514C1225.95 387.016 1223.76 387.839 1221.5 387.825Z" fill="#C74EF2"/>
<path d="M1157.46 375.932H1198.81" stroke="white" stroke-width="1.05" stroke-linecap="round" stroke-linejoin="round"/>
<path d="M1137.9 559.701C1109.03 672.044 1102.61 756.73 1102.61 756.73L1155.69 752.947L1201.2 583.624L1137.9 559.701Z" fill="#3E96E7"/>
<path d="M1246.18 651.5L1261.57 764.403L1208.37 753.019L1143.06 555.796L1195.98 543.828L1210.66 558.496C1226.16 580.327 1241.75 619.039 1246.18 651.5Z" fill="#3E96E7"/>
<path d="M1179.13 665.706L1167.45 631.712L1154.93 626.823" stroke="#1D0006" stroke-width="0.65" stroke-linecap="round" stroke-linejoin="round"/>
<path d="M1068.44 495.24L1046.39 553.887C1044.89 557.928 1045.03 562.394 1046.77 566.336C1048.52 570.278 1051.73 573.386 1055.72 575C1059.68 576.592 1064.1 576.595 1068.07 575.009C1072.03 573.423 1075.22 570.37 1076.99 566.487L1105.88 503.498L1068.44 495.24Z" fill="#E7B38E"/>
<path d="M1097.66 448.902C1097.66 448.902 1086.41 449.705 1075.3 458.973C1064.19 468.24 1050.13 509.58 1050.13 509.58C1050.13 509.58 1057.77 526.145 1103.73 532.007L1097.66 448.902Z" fill="#F5C045"/>
<path d="M1010.89 483.214L1010.48 479.565C1009.92 474.668 1008.22 469.972 1005.5 465.858L1000.73 458.561C1000.46 458.157 1000.11 457.817 999.698 457.564C999.285 457.311 998.822 457.15 998.34 457.094C997.859 457.037 997.371 457.086 996.91 457.236C996.45 457.386 996.027 457.635 995.672 457.965C995.047 458.542 994.611 459.294 994.42 460.123C994.229 460.951 994.292 461.818 994.601 462.611L997.898 471.209L973.273 451.202C972.996 450.962 972.671 450.784 972.319 450.68C971.968 450.576 971.598 450.548 971.235 450.599C970.872 450.65 970.524 450.777 970.214 450.974C969.904 451.17 969.641 451.431 969.44 451.738L968.868 452.613C968.539 453.11 968.393 453.706 968.455 454.298C968.518 454.891 968.784 455.443 969.209 455.861L985.281 469.92L964.598 456.323C964.304 456.105 963.968 455.952 963.611 455.874C963.254 455.795 962.884 455.792 962.526 455.866C962.168 455.939 961.829 456.087 961.532 456.3C961.235 456.513 960.986 456.786 960.802 457.101L960.425 457.77C960.112 458.316 960.01 458.958 960.138 459.574C960.266 460.19 960.614 460.738 961.118 461.115L978.748 474.165L963.186 467.196C962.838 467.027 962.456 466.938 962.068 466.937C961.681 466.935 961.298 467.02 960.948 467.186C960.598 467.351 960.289 467.593 960.045 467.894C959.8 468.195 959.627 468.546 959.536 468.923L959.463 469.239C959.337 469.778 959.386 470.343 959.605 470.851C959.824 471.359 960.201 471.783 960.68 472.061L976.327 480.453L967.287 478.02C966.887 477.838 966.447 477.76 966.009 477.795C965.571 477.83 965.149 477.976 964.784 478.22C964.418 478.464 964.121 478.797 963.92 479.187C963.719 479.578 963.622 480.014 963.637 480.453C963.654 480.897 963.787 481.328 964.021 481.706C964.256 482.083 964.585 482.393 964.975 482.605L1004.69 503.281L1009.06 494.135C1010.68 490.74 1011.32 486.954 1010.89 483.214Z" fill="#E7B38E"/>
<path d="M997.902 471.27C996.899 473.549 996.411 476.021 996.474 478.51C996.537 481 997.149 483.444 998.267 485.67" stroke="#1D0006" stroke-width="0.52" stroke-linecap="round" stroke-linejoin="round"/>
<path d="M1075.24 553.669L1010.8 484.977L999.981 496.713L1048.38 569.018L1075.24 553.669Z" fill="#E7B38E"/>
<path d="M1054.71 531.775L1065.85 543.731" stroke="#1D0006" stroke-width="0.64" stroke-linecap="round" stroke-linejoin="round"/>
<path d="M1111.15 446.337C1111.15 446.337 1089.44 448.587 1080.81 457.112C1072.18 465.638 1087.93 515.272 1087.93 515.272L1132.94 582.736C1132.94 582.736 1166.88 591.505 1203.14 566.925L1201.92 465.833L1188.53 449.17C1183.47 442.895 1170.77 438.224 1162.75 439.063L1144.09 439.672L1111.15 446.337Z" fill="#F5C045"/>
<path d="M1098.61 531.241C1098.61 531.241 1084.97 511.295 1084.09 497.126" stroke="#1D0006" stroke-width="0.64" stroke-linecap="round" stroke-linejoin="round"/>
<path d="M1226.59 486.24C1226.59 486.24 1213.12 504.837 1192.23 510.419L1204.65 485.645L1226.59 486.24Z" fill="#1F0C03"/>
<path d="M1174.04 504.18L1204.46 558.63C1206.56 562.372 1210.05 565.143 1214.17 566.354C1218.29 567.565 1222.72 567.12 1226.51 565.113C1230.27 563.132 1233.12 559.78 1234.46 555.755C1235.81 551.73 1235.55 547.34 1233.74 543.5L1204.33 481.011L1174.04 504.18Z" fill="#E7B38E"/>
<path d="M1159.21 439.283C1166.78 438.351 1174.46 439.274 1181.6 441.971C1188.73 444.668 1195.1 449.059 1200.16 454.766C1221.11 478.117 1226.59 486.242 1226.59 486.242C1226.59 486.242 1194.66 493.138 1175.49 511.637L1145.07 475.43L1159.21 439.283Z" fill="#F5C045"/>
<path d="M1175.43 511.635L1161.66 488.648" stroke="#1D0006" stroke-width="0.64" stroke-linecap="round" stroke-linejoin="round"/>
<path d="M1213.36 533.419L1139.74 597.988L1149.18 611.038L1227.79 564.384L1213.36 533.419Z" fill="#E7B38E"/>
<path d="M1141.27 591.65L1137.89 590.24C1133.34 588.353 1128.4 587.565 1123.48 587.941L1114.83 588.585C1114.35 588.623 1113.88 588.764 1113.46 589.001C1113.04 589.238 1112.67 589.564 1112.39 589.956C1112.1 590.349 1111.91 590.798 1111.82 591.273C1111.72 591.749 1111.74 592.238 1111.85 592.709C1112.05 593.535 1112.5 594.282 1113.13 594.852C1113.76 595.422 1114.55 595.79 1115.39 595.907L1124.52 597.196L1095.04 608.982C1094.69 609.112 1094.38 609.314 1094.12 609.574C1093.86 609.835 1093.65 610.148 1093.52 610.493C1093.39 610.838 1093.33 611.207 1093.36 611.576C1093.38 611.944 1093.48 612.304 1093.65 612.63L1094.14 613.555C1094.43 614.069 1094.88 614.469 1095.43 614.69C1095.97 614.912 1096.58 614.94 1097.14 614.771L1117.26 607.546L1095.35 619.04C1095.03 619.188 1094.73 619.404 1094.49 619.674C1094.25 619.944 1094.07 620.261 1093.96 620.606C1093.85 620.95 1093.82 621.314 1093.86 621.673C1093.9 622.031 1094.01 622.378 1094.2 622.688L1094.59 623.345C1094.91 623.886 1095.42 624.289 1096.02 624.477C1096.63 624.666 1097.27 624.626 1097.85 624.367L1117.78 615.391L1104.13 625.583C1103.81 625.804 1103.55 626.093 1103.36 626.43C1103.17 626.766 1103.06 627.14 1103.03 627.526C1103 627.911 1103.07 628.297 1103.21 628.655C1103.35 629.014 1103.58 629.336 1103.86 629.597L1104.1 629.828C1104.51 630.201 1105.03 630.434 1105.58 630.493C1106.13 630.552 1106.68 630.434 1107.16 630.156L1122.09 620.56L1115.54 627.261C1115.2 627.529 1114.92 627.879 1114.75 628.28C1114.58 628.68 1114.51 629.118 1114.55 629.552C1114.59 629.986 1114.74 630.403 1114.99 630.764C1115.23 631.125 1115.56 631.418 1115.95 631.616C1116.35 631.812 1116.8 631.904 1117.24 631.883C1117.69 631.862 1118.12 631.728 1118.5 631.494L1155.84 606.878L1149.96 598.619C1147.78 595.525 1144.77 593.109 1141.27 591.65Z" fill="#E7B38E"/>
<path d="M1164.34 344.051C1156.32 352.82 1134.33 356.956 1124.79 348.235C1115.25 339.515 1115.83 317.343 1123.85 308.574C1131.87 299.805 1147.65 304.099 1157.19 312.819C1166.73 321.539 1172.36 335.295 1164.34 344.051Z" fill="#412C36"/>
<path d="M1143.21 352.566C1140.7 357.918 1131.59 358.939 1122.86 354.841C1114.14 350.742 1109.12 343.08 1111.63 337.728C1114.15 332.377 1123.42 330.662 1132.14 334.761C1140.85 338.86 1145.73 347.203 1143.21 352.566Z" fill="#E27CAE"/>
<path d="M1091.67 343.906C1091.67 343.906 1064.82 339.041 1056.92 352.505C1049.02 365.968 1078.58 380.66 1078.58 380.66L1091.67 343.906Z" fill="#412C36"/>
<path d="M1113.87 409.67C1136.12 405.41 1150.86 384.747 1146.8 363.517C1142.73 342.287 1121.39 328.53 1099.14 332.79C1076.88 337.05 1062.14 357.713 1066.21 378.943C1070.27 400.172 1091.61 413.929 1113.87 409.67Z" fill="#412C36"/>
<path d="M1078.65 419.031C1080.94 418.504 1083 417.268 1084.54 415.5C1086.08 413.731 1087.02 411.52 1087.23 409.184C1087.44 406.849 1086.9 404.507 1085.7 402.494C1084.49 400.481 1082.68 398.901 1080.52 397.979L1080.06 399.037C1082.04 399.878 1083.69 401.336 1084.77 403.192C1085.85 405.048 1086.3 407.203 1086.05 409.336C1085.8 411.468 1084.87 413.463 1083.39 415.023C1081.92 416.583 1079.98 417.625 1077.86 417.992C1075.75 418.359 1073.57 418.032 1071.65 417.06C1069.74 416.087 1068.19 414.522 1067.24 412.598C1066.29 410.673 1065.98 408.493 1066.37 406.382C1066.77 404.271 1067.83 402.343 1069.4 400.885L1068.61 400.046C1066.82 401.711 1065.63 403.92 1065.22 406.332C1064.81 408.744 1065.2 411.224 1066.35 413.387C1067.49 415.551 1069.32 417.276 1071.54 418.296C1073.77 419.317 1076.26 419.575 1078.65 419.031Z" fill="#E69624"/>
<path d="M1080.11 400.071C1083.49 395.61 1082.61 389.256 1078.15 385.878C1073.68 382.499 1067.33 383.377 1063.95 387.837C1060.57 392.297 1061.45 398.652 1065.91 402.03C1070.37 405.408 1076.73 404.531 1080.11 400.071Z" fill="#D9A07D"/>
<path d="M1097.88 412.112L1105.81 447.456L1131.41 443.053L1110.48 391.363L1097.88 412.112Z" fill="#E7B38E"/>
<path d="M1101.7 429.723C1101.7 429.723 1114.83 420.419 1117.4 400.218L1097.94 412.112L1101.7 429.723Z" fill="#CB8D6D"/>
<path d="M1068.84 357.746C1066.78 360.373 1065.66 363.623 1065.68 366.965C1065.59 376.853 1065.07 394.33 1070.38 403.793C1077.27 416.089 1089.73 423.362 1106.35 416.782C1106.35 416.782 1128.58 408.366 1127.81 381.378C1126.6 338.384 1086.86 335.477 1068.84 357.746Z" fill="#E7B38E"/>
<path d="M1080.78 401.799C1080.78 401.799 1080.78 406.165 1086.86 405.18C1088.51 404.953 1090.04 404.243 1091.28 403.14C1092.52 402.038 1093.4 400.593 1093.81 398.989L1080.78 401.799Z" fill="#DC3D82"/>
<path d="M1074.4 368.499C1074.4 368.499 1076.07 370.761 1072.12 372.148C1070.23 372.735 1068.42 373.552 1066.74 374.58C1066.31 374.855 1065.82 375.001 1065.31 375.001C1064.81 375.001 1064.31 374.855 1063.89 374.58C1063.65 374.351 1063.49 374.059 1063.41 373.738C1063.33 373.417 1063.35 373.081 1063.45 372.768C1063.6 371.561 1064.1 370.424 1064.89 369.496C1065.68 368.567 1066.72 367.887 1067.88 367.538C1072.49 365.909 1074.4 368.499 1074.4 368.499Z" fill="#412C36"/>
<path d="M1086.08 365.007C1086.08 365.007 1085.33 368.133 1091.27 367.294C1095.49 366.814 1099.73 366.632 1103.97 366.747C1104.67 366.778 1105.36 366.648 1105.99 366.367C1106.62 366.086 1107.18 365.663 1107.62 365.129C1107.75 364.968 1107.83 364.781 1107.86 364.583C1107.9 364.386 1107.89 364.182 1107.84 363.988C1107.78 363.794 1107.69 363.615 1107.55 363.465C1107.42 363.315 1107.25 363.198 1107.06 363.122C1102.83 361.404 1098.23 360.756 1093.68 361.237C1086.65 362.186 1086.08 365.007 1086.08 365.007Z" fill="#412C36"/>
<path d="M1088.74 382.897C1088.74 382.897 1090.81 371.002 1106.44 377.472C1106.44 377.472 1101.89 387.457 1088.74 382.897Z" fill="white"/>
<path d="M1091.57 380.003C1091.61 381.035 1091.96 382.032 1092.57 382.866C1093.18 383.701 1094.02 384.336 1094.99 384.691C1095.96 385.046 1097.02 385.105 1098.02 384.86C1099.03 384.616 1099.93 384.079 1100.63 383.317C1101.33 382.556 1101.79 381.604 1101.95 380.583C1102.1 379.562 1101.95 378.517 1101.51 377.582C1101.08 376.646 1100.37 375.861 1099.49 375.326C1098.6 374.792 1097.58 374.531 1096.55 374.579C1095.17 374.642 1093.87 375.248 1092.94 376.264C1092.01 377.281 1091.51 378.625 1091.57 380.003Z" fill="black"/>
<path d="M1105.99 378.021C1104.62 376.97 1103 376.295 1101.29 376.063C1099.54 375.793 1097.76 375.834 1096.03 376.184C1094.28 376.463 1092.64 377.211 1091.29 378.349C1089.98 379.51 1089.17 381.138 1089.04 382.886C1089.04 382.966 1089.01 383.044 1088.95 383.101C1088.9 383.158 1088.82 383.19 1088.74 383.19C1088.66 383.19 1088.58 383.158 1088.52 383.101C1088.47 383.044 1088.43 382.966 1088.43 382.886C1088.49 380.932 1089.32 379.082 1090.75 377.741C1092.17 376.445 1093.92 375.558 1095.81 375.175C1097.66 374.737 1099.57 374.626 1101.46 374.846C1103.42 375.033 1105.29 375.743 1106.88 376.902C1107.01 377.023 1107.09 377.186 1107.1 377.361C1107.12 377.537 1107.07 377.711 1106.96 377.852C1106.86 377.993 1106.7 378.091 1106.53 378.126C1106.36 378.162 1106.18 378.133 1106.03 378.045L1105.99 378.021Z" fill="#1D0006"/>
<path d="M1078.58 384.625C1078.58 384.625 1074.2 375.321 1066.79 385.197C1066.78 385.197 1073.71 392.677 1078.58 384.625Z" fill="white"/>
<path d="M1075.9 383.542C1076.53 386.047 1075.5 388.48 1073.59 388.954C1071.68 389.428 1069.62 387.799 1068.99 385.305C1068.36 382.812 1069.39 380.44 1071.29 379.893C1073.19 379.346 1075.26 381.036 1075.9 383.542Z" fill="black"/>
<path d="M1066.06 384.941C1066.57 383.612 1067.46 382.459 1068.61 381.616C1069.75 380.774 1071.12 380.277 1072.54 380.185C1073.94 380.062 1075.33 380.432 1076.47 381.23C1077.62 382.028 1078.45 383.204 1078.82 384.552C1078.84 384.619 1078.83 384.692 1078.8 384.753C1078.76 384.815 1078.71 384.86 1078.64 384.88C1078.58 384.897 1078.51 384.89 1078.45 384.861C1078.39 384.832 1078.35 384.782 1078.32 384.722C1077.9 383.573 1077.12 382.594 1076.08 381.937C1075.05 381.323 1073.83 381.079 1072.64 381.244C1071.47 381.391 1070.37 381.868 1069.46 382.62C1068.55 383.372 1067.88 384.367 1067.52 385.488C1067.49 385.585 1067.44 385.675 1067.38 385.753C1067.31 385.831 1067.23 385.895 1067.14 385.943C1067.05 385.99 1066.96 386.019 1066.86 386.029C1066.75 386.039 1066.65 386.029 1066.56 385.999C1066.46 385.969 1066.37 385.921 1066.29 385.857C1066.21 385.793 1066.15 385.714 1066.1 385.624C1066.05 385.535 1066.03 385.437 1066.02 385.337C1066.01 385.236 1066.02 385.135 1066.05 385.038L1066.06 384.941Z" fill="#1D0006"/>
<path d="M1080.79 390.243L1079.49 393.855L1082.12 395.047" stroke="#1D0006" stroke-width="0.61" stroke-linecap="round" stroke-linejoin="round"/>
<path d="M1080.78 401.799C1080.78 401.799 1080.63 400.206 1083.33 399.367C1087.32 398.15 1093.81 398.941 1093.81 398.941C1089.83 401.11 1085.31 402.102 1080.78 401.799Z" fill="#DC3D82"/>
<path d="M1080 401.701C1080 401.701 1085.86 403.148 1094.44 398.611" stroke="#1D0006" stroke-width="0.61" stroke-linecap="round" stroke-linejoin="round"/>
<path d="M1087.36 403.16C1087.36 403.488 1086.63 403.877 1085.61 404.048C1084.59 404.218 1083.72 404.048 1083.67 403.768C1083.63 403.488 1084.4 403.05 1085.41 402.88C1086.42 402.71 1087.3 402.844 1087.36 403.16Z" fill="#D9699F"/>
<path d="M1119.78 383.726C1117.93 381.596 1116.56 379.1 1115.75 376.402C1114.94 373.704 1114.71 370.865 1115.08 368.073C1116.47 355.996 1123.82 350.973 1123.82 350.973L1135.16 370.432L1119.78 383.726Z" fill="#412C36"/>
<path d="M1134.35 394.227C1139.54 391.86 1141.82 385.735 1139.45 380.546C1137.09 375.358 1130.96 373.072 1125.77 375.44C1120.58 377.807 1118.29 383.932 1120.66 389.12C1123.03 394.308 1129.16 396.595 1134.35 394.227Z" fill="#E7B38E"/>
<path d="M1133.13 381.804C1133.13 381.804 1127.4 381.427 1125.69 388.882" stroke="#1D0006" stroke-width="0.61" stroke-linecap="round" stroke-linejoin="round"/>
<path d="M1137.08 410.494C1139.37 409.972 1141.44 408.738 1142.98 406.968C1144.53 405.199 1145.47 402.985 1145.68 400.645C1145.89 398.306 1145.34 395.961 1144.13 393.948C1142.92 391.934 1141.11 390.357 1138.94 389.441L1138.49 390.5C1140.47 391.342 1142.12 392.802 1143.2 394.66C1144.28 396.519 1144.73 398.677 1144.48 400.812C1144.24 402.947 1143.3 404.945 1141.83 406.506C1140.35 408.068 1138.41 409.11 1136.29 409.478C1134.17 409.845 1131.99 409.517 1130.07 408.543C1128.15 407.569 1126.6 406.002 1125.65 404.075C1124.7 402.148 1124.4 399.964 1124.79 397.851C1125.18 395.737 1126.24 393.807 1127.82 392.348L1127.04 391.509C1125.25 393.174 1124.06 395.383 1123.65 397.795C1123.24 400.207 1123.63 402.687 1124.78 404.85C1125.92 407.013 1127.75 408.739 1129.97 409.759C1132.2 410.78 1134.69 411.038 1137.08 410.494Z" fill="#E69624"/>
<path d="M1120.25 355.472C1120.25 355.472 1099.77 362.368 1079.98 357.223C1077.73 356.593 1075.38 356.359 1073.05 356.53C1071.27 356.601 1069.58 357.304 1068.28 358.512C1068.28 358.512 1076.79 341.108 1103.97 340.269C1131.16 339.43 1120.25 355.472 1120.25 355.472Z" fill="#412C36"/>
<path d="M1105.81 447.455L1116.16 458.34L1131.41 443.053L1118.29 439.282L1105.81 447.455Z" fill="#E7B38E"/>
<path d="M1116.16 458.342L1130.25 440.147L1128.45 435.769L1144.08 439.636L1132.57 465.846L1116.16 458.342Z" fill="#C99724"/>
<path d="M1116.16 458.34L1104.36 467.547L1095.25 449.267L1104.78 442.603L1105.81 447.455L1116.16 458.34Z" fill="#C99724"/>
</g>
<defs>
<linearGradient id="paint0_linear_108_357" x1="720.5" y1="-19" x2="720.5" y2="737.331" gradientUnits="userSpaceOnUse">
<stop stop-color="#6546CB"/>
<stop offset="1" stop-color="#974EF5"/>
</linearGradient>
<linearGradient id="paint1_linear_108_357" x1="720.5" y1="-19" x2="720.5" y2="737.331" gradientUnits="userSpaceOnUse">
<stop stop-color="#6546CB"/>
<stop offset="1" stop-color="#974EF5"/>
</linearGradient>
<linearGradient id="paint2_linear_108_357" x1="670.794" y1="1067.71" x2="1046.42" y2="92.4743" gradientUnits="userSpaceOnUse">
<stop stop-color="#632DFF"/>
<stop offset="1" stop-color="#C972FF"/>
</linearGradient>
<linearGradient id="paint3_linear_108_357" x1="1353.91" y1="188.281" x2="1421.32" y2="245.945" gradientUnits="userSpaceOnUse">
<stop offset="0.0201594" stop-color="#FB8DC7"/>
<stop offset="1" stop-color="#F54EB4"/>
</linearGradient>
<linearGradient id="paint4_linear_108_357" x1="525.849" y1="487.714" x2="572.038" y2="479.315" gradientUnits="userSpaceOnUse">
<stop offset="0.0201594" stop-color="#99F7BE"/>
<stop offset="1" stop-color="#229F98"/>
</linearGradient>
<linearGradient id="paint5_linear_108_357" x1="1343.86" y1="603.119" x2="1357.37" y2="632.107" gradientUnits="userSpaceOnUse">
<stop stop-color="#5EC3FC"/>
<stop offset="1" stop-color="#0066FF"/>
</linearGradient>
<linearGradient id="paint6_linear_108_357" x1="713.246" y1="216.829" x2="734.204" y2="226.942" gradientUnits="userSpaceOnUse">
<stop offset="0.0201594" stop-color="#99F7BE"/>
<stop offset="1" stop-color="#229F98"/>
</linearGradient>
</defs>
</svg>
