<svg width="680" height="444" viewBox="0 0 680 444" fill="none" xmlns="http://www.w3.org/2000/svg">
<path d="M350 260.56L379 261.501L350 241V260.56Z" stroke="#F7A4AD" stroke-width="1.12" stroke-linecap="round" stroke-linejoin="round"/>
<path d="M359.232 261.173L364.898 271.163L366.362 261.087L350.352 241.676" stroke="#F7A4AD" stroke-width="1.12" stroke-linecap="round" stroke-linejoin="round"/>
<path d="M339.02 312.708C340.236 322.438 344.75 331.9 352.209 338.249C359.667 344.597 370.24 347.516 379.669 344.865C381.943 344.292 383.989 343.041 385.533 341.277C389.561 336.412 387.517 329.772 384.317 326.682C380.509 323.034 374.486 322.109 370.215 325.138C365.945 328.166 363.962 333.651 363.937 338.918C363.888 343.989 365.425 348.949 368.334 353.103C371.243 357.258 375.378 360.4 380.161 362.09C384.945 363.78 390.137 363.933 395.011 362.528C399.886 361.123 404.2 358.23 407.349 354.254" stroke="#73C4E0" stroke-width="1.01" stroke-miterlimit="10"/>
<path d="M50.1765 456.882H213.394C215.657 456.881 217.894 456.409 219.964 455.495C222.034 454.582 223.891 453.247 225.415 451.576C226.94 449.906 228.1 447.935 228.821 445.791C229.541 443.648 229.807 441.377 229.601 439.125L196.507 77.2737C196.139 73.2314 194.273 69.4727 191.274 66.7361C188.275 63.9995 184.361 62.4829 180.301 62.4844H17.0828C14.8203 62.4851 12.5828 62.9573 10.513 63.8707C8.44321 64.7842 6.58665 66.1189 5.06176 67.7897C3.53686 69.4605 2.37711 71.4307 1.65652 73.5746C0.935924 75.7185 0.670301 77.989 0.876599 80.2413L33.9582 442.092C34.3285 446.136 36.1976 449.895 39.1983 452.631C42.1991 455.367 46.1148 456.883 50.1765 456.882Z" fill="#C74EF2"/>
<path d="M70.3241 456.881H233.566C235.829 456.88 238.067 456.408 240.138 455.494C242.208 454.581 244.065 453.246 245.591 451.576C247.117 449.905 248.278 447.935 249 445.791C249.722 443.647 249.989 441.377 249.785 439.124L216.691 77.2727C216.321 73.2356 214.457 69.4819 211.464 66.7465C208.471 64.011 204.564 62.4908 200.509 62.4834H37.2547C34.9922 62.4841 32.7546 62.9563 30.6849 63.8697C28.6151 64.7832 26.7585 66.1179 25.2336 67.7887C23.7087 69.4595 22.549 71.4297 21.8284 73.5736C21.1078 75.7175 20.8422 77.988 21.0485 80.2403L54.1422 442.091C54.5093 446.13 56.3724 449.885 59.366 452.621C62.3596 455.357 66.2678 456.876 70.3241 456.881Z" fill="#E9DFFF"/>
<path d="M200.509 72.724C202.016 72.7183 203.471 73.279 204.584 74.295C205.698 75.311 206.388 76.708 206.519 78.2092L239.577 440.097C239.645 440.93 239.541 441.769 239.271 442.56C239.001 443.352 238.57 444.079 238.006 444.696C237.442 445.314 236.757 445.808 235.993 446.149C235.229 446.49 234.403 446.669 233.566 446.677H70.3241C68.8167 446.682 67.3621 446.122 66.2489 445.106C65.1356 444.09 64.4449 442.693 64.3137 441.191L31.2443 79.3038C31.1756 78.4704 31.2797 77.6318 31.5499 76.8404C31.8202 76.0491 32.2508 75.3219 32.8148 74.7044C33.3789 74.0869 34.0643 73.5923 34.8282 73.2516C35.5922 72.9108 36.4182 72.7312 37.2547 72.724H200.509ZM200.509 62.4834H37.2547C34.9922 62.4841 32.7546 62.9563 30.6849 63.8697C28.6151 64.7832 26.7585 66.1179 25.2336 67.7887C23.7087 69.4595 22.549 71.4297 21.8284 73.5736C21.1078 75.7175 20.8422 77.988 21.0485 80.2403L54.1422 442.091C54.5093 446.13 56.3724 449.885 59.366 452.621C62.3596 455.357 66.2678 456.876 70.3241 456.881H233.566C235.829 456.88 238.067 456.408 240.138 455.494C242.208 454.581 244.065 453.246 245.591 451.576C247.117 449.905 248.278 447.935 249 445.791C249.722 443.647 249.989 441.377 249.785 439.124L216.691 77.2727C216.321 73.2356 214.457 69.4819 211.464 66.7465C208.471 64.011 204.564 62.4908 200.509 62.4834Z" fill="#A21DD1"/>
<path d="M84.2337 84.8259H166.141C167.433 84.8254 168.71 84.5523 169.89 84.0245C171.069 83.4968 172.124 82.7262 172.985 81.7632C173.847 80.8001 174.495 79.6663 174.888 78.4357C175.281 77.2051 175.41 75.9055 175.266 74.6218L174.122 63.6758H73.758L75.1207 76.6529C75.3664 78.8978 76.4321 80.9732 78.1137 82.4813C79.7953 83.9895 81.9745 84.8243 84.2337 84.8259Z" fill="#C74EF2"/>
<path d="M148.273 72.9307H106.918" stroke="white" stroke-width="1.05" stroke-linecap="round" stroke-linejoin="round"/>
<path d="M203.019 299.246C206.134 300.523 260.605 479.247 260.605 479.247L196.12 479.636L161.944 360.045L145.604 479.794L91.0113 479.417C91.0113 479.417 87.8358 319.399 107.132 280.078L203.019 299.246Z" fill="#5E056C"/>
<path d="M161.949 360.046L182.341 347.628" stroke="#494949" stroke-width="0.63" stroke-linecap="round" stroke-linejoin="round"/>
<path d="M235.287 151.851C235.287 151.851 254.754 169.048 225.554 255.886L198.117 258.574L235.287 151.851Z" fill="#ED6470"/>
<path d="M291.511 221.287C291.511 221.287 282.897 212.907 293.117 201.73L308.52 184.241C308.849 183.881 309.251 183.595 309.699 183.402C310.147 183.209 310.631 183.114 311.119 183.122C311.606 183.13 312.087 183.241 312.528 183.449C312.97 183.657 313.362 183.956 313.679 184.326C314.125 184.849 314.404 185.493 314.483 186.175C314.561 186.857 314.433 187.548 314.117 188.157L308.8 198.945L335.798 184.898C336.267 184.629 336.789 184.465 337.328 184.417C337.867 184.37 338.41 184.44 338.919 184.623C339.428 184.805 339.891 185.096 340.277 185.476C340.662 185.855 340.961 186.314 341.152 186.819C341.457 187.625 341.474 188.511 341.198 189.327C340.923 190.143 340.374 190.839 339.643 191.295L322.074 201.937L322.269 202.959L341.991 194.567C342.497 194.41 343.032 194.365 343.557 194.436C344.082 194.507 344.586 194.691 345.033 194.975C345.48 195.26 345.859 195.639 346.145 196.085C346.431 196.531 346.616 197.034 346.688 197.559C346.777 198.38 346.585 199.208 346.143 199.906C345.701 200.604 345.035 201.131 344.254 201.402L325.067 210.779L325.177 212.068L343.427 206.62C345.069 206.316 348.427 204.455 349.328 207.325C350.544 210.657 346.396 211.728 344.558 212.385L325.469 219.414L325.529 220.631L343.001 216.155C343.387 216.148 343.769 216.228 344.12 216.387C344.472 216.546 344.783 216.782 345.033 217.076C345.282 217.371 345.462 217.717 345.561 218.09C345.66 218.463 345.675 218.853 345.605 219.232C345.494 219.804 345.193 220.323 344.752 220.705C344.311 221.086 343.754 221.308 343.171 221.336L323.157 227.259C323.157 227.259 304.347 237.135 297.217 229.509L291.511 221.287Z" fill="#C4735A"/>
<path d="M308.8 198.944C308.8 198.944 313.168 209.416 305.43 217.382" stroke="#1D0006" stroke-width="0.63" stroke-linecap="round" stroke-linejoin="round"/>
<path d="M264.547 219.827L294.684 211.046L305.075 229.885L270.874 243.483L264.547 219.827Z" fill="#C4735A"/>
<path d="M275.672 214.279L288.265 210.886L298.594 232.316L282.997 238.664L275.672 214.279Z" fill="#FFD1D5"/>
<path d="M206.12 230.907L268.73 210.231C271.521 209.361 274.537 209.57 277.181 210.818C279.824 212.066 281.902 214.262 283.002 216.969L289.718 233.498C290.847 236.285 290.855 239.4 289.739 242.193C288.624 244.985 286.471 247.239 283.732 248.482L224.516 276.807C219.483 279.098 213.769 279.401 208.522 277.655C203.275 275.909 198.883 272.243 196.228 267.394C189.962 255.791 193.868 235.638 206.12 230.907Z" fill="#ED6470"/>
<path d="M235.737 221.104L224.117 224.777" stroke="#1D0006" stroke-width="0.65" stroke-linecap="round" stroke-linejoin="round"/>
<path d="M214.033 128.743C214.033 128.743 197.851 122.456 174.101 123.38L169.453 134.399L193.264 142.912L216.661 141.696L218.765 138.473L214.033 128.743Z" fill="black"/>
<path d="M112.598 290.89C112.598 290.89 173.359 325.528 210.687 302.176L214.921 218.743L221.978 161.362L214.276 147.728L190.538 141.051L161.91 143.228L132.71 189.894L112.598 290.89Z" fill="#5725E4"/>
<path d="M163.653 140.443C163.653 140.443 190.76 170.581 220.447 151.547L215.459 138.473L199.739 130.592L169.626 130.969L163.653 140.443Z" fill="#C4735A"/>
<path d="M176.111 170.094C176.111 170.094 170.599 267.659 152.288 329.942C151.156 333.761 146.448 335.306 142.627 334.211C134.111 331.779 109.29 312.538 94.8362 286.779L115.994 149.09C116.2 146.595 117.006 144.186 118.342 142.069C119.679 139.951 121.507 138.187 123.672 136.927C131.191 132.537 160.281 129.35 160.281 129.35C160.281 129.35 177.157 125.811 176.111 170.094Z" fill="#ED6470"/>
<path d="M175.084 150.235L152.867 161.813L156.189 129.899L174.098 123.368L175.084 150.235Z" fill="#C73743"/>
<path d="M201.25 334.979C200.958 337.412 209.365 338.628 210.983 336.682C214.293 331.501 217.493 325.615 217.979 319.485L225.364 208.65L239.174 166.824C239.985 164.233 240.057 161.467 239.383 158.838C238.708 156.208 237.312 153.818 235.353 151.938C229.445 146.302 222.629 141.702 215.193 138.328C215.193 138.328 215.899 210.888 201.25 334.979Z" fill="#ED6470"/>
<path d="M220.059 278.316L225.351 208.65L230.912 185.651" stroke="#1D0006" stroke-width="0.63" stroke-linecap="round" stroke-linejoin="round"/>
<path d="M215.082 150.855L229.548 165.23L223.404 139.787L214.035 128.731L215.082 150.855Z" fill="#C73743"/>
<path d="M128.538 135.287C128.538 135.287 146.216 167.505 94.6778 239.226L82.3042 259.585C80.6081 262.38 78.3598 264.8 75.6966 266.697C73.0334 268.593 70.0112 269.927 66.8148 270.617C63.6184 271.307 60.3148 271.338 57.106 270.709C53.8971 270.079 50.8504 268.802 48.152 266.956C43.1876 263.563 39.6762 258.433 38.3111 252.579C36.9461 246.724 37.8266 240.571 40.7789 235.334C58.6641 203.7 94.9333 141.466 128.538 135.287Z" fill="#ED6470"/>
<path d="M104.34 225.007L134.672 185.272" stroke="#1D0006" stroke-width="0.63" stroke-linecap="round" stroke-linejoin="round"/>
<path d="M107.33 316.674C107.33 316.674 114.131 306.762 126.87 314.923L146.738 327.085C147.149 327.348 147.499 327.696 147.765 328.104C148.031 328.513 148.207 328.973 148.282 329.455C148.357 329.937 148.329 330.429 148.199 330.899C148.069 331.369 147.841 331.806 147.529 332.181C147.095 332.7 146.516 333.08 145.867 333.273C145.218 333.465 144.526 333.462 143.879 333.264L132.333 329.797L150.765 354.012C151.112 354.427 151.364 354.912 151.504 355.434C151.643 355.956 151.668 356.503 151.575 357.035C151.483 357.568 151.275 358.073 150.967 358.518C150.659 358.962 150.258 359.333 149.792 359.607C149.047 360.044 148.173 360.21 147.32 360.077C146.466 359.944 145.685 359.52 145.108 358.877L131.627 343.383L130.654 343.747L142.285 361.76C142.523 362.231 142.656 362.749 142.674 363.277C142.692 363.804 142.596 364.33 142.391 364.817C142.186 365.304 141.878 365.74 141.488 366.096C141.098 366.453 140.635 366.72 140.132 366.88C139.337 367.106 138.489 367.056 137.727 366.738C136.964 366.42 136.332 365.852 135.934 365.129L123.378 347.858L122.161 348.187L130.678 365.287C131.25 366.856 133.196 370.358 129.279 372.061C127.794 372.548 125.763 368.826 125.191 367.379L115.019 349.768L113.803 350.023L121.2 366.479C121.272 366.859 121.259 367.25 121.161 367.625C121.063 367.999 120.883 368.347 120.633 368.643C120.384 368.938 120.072 369.175 119.719 369.335C119.367 369.495 118.983 369.575 118.596 369.568C118.027 369.55 117.48 369.345 117.04 368.984C116.6 368.624 116.292 368.127 116.163 367.573L106.831 348.88C106.831 348.88 93.8977 332.023 100.2 323.716L107.33 316.674Z" fill="#C4735A"/>
<path d="M104.191 289.868L117.964 318.06L101.161 331.5L81.9377 300.121L104.191 289.868Z" fill="#C4735A"/>
<path d="M111.546 299.878L117.034 311.712L97.6642 325.528L88.758 311.25L111.546 299.878Z" fill="#FFD1D5"/>
<path d="M83.3994 234.191L114.315 292.363C115.651 294.962 115.96 297.969 115.18 300.786C114.4 303.602 112.588 306.022 110.106 307.565L94.9457 316.991C92.3891 318.589 89.312 319.134 86.3619 318.51C83.4118 317.886 80.8189 316.143 79.1288 313.646L41.1318 260.096C38.0254 255.518 36.7679 249.934 37.6121 244.467C38.4562 239 41.3395 234.056 45.6822 230.627C56.0484 222.503 76.586 222.928 83.3994 234.191Z" fill="#ED6470"/>
<path d="M90.0921 246.778L81.1252 230.298" stroke="#1D0006" stroke-width="0.63" stroke-linecap="round" stroke-linejoin="round"/>
<path d="M98.5119 262.613L114.682 292.715C115.652 294.533 116.064 296.598 115.864 298.649C115.665 300.7 114.864 302.647 113.562 304.245V304.245" stroke="#1D0006" stroke-width="0.63" stroke-linecap="round" stroke-linejoin="round"/>
<path d="M178.747 42.6846C178.747 42.6846 166.008 38.8048 161.713 51.8428C157.418 64.8807 185.451 85.5565 185.451 85.5565L178.747 42.6846Z" fill="#1F0C03"/>
<path d="M197.499 23.8922C197.499 23.8922 226.067 8.15429 244.402 20.0733C267.969 35.422 235.398 60.6222 235.398 60.6222C235.398 60.6222 193.934 52.2424 197.499 23.8922Z" fill="#1F0C03"/>
<path d="M170.176 54.0917L199.072 100.515C221.471 103.628 239.746 87.4162 242.715 66.0472C245.683 44.6781 232.239 26.2158 209.864 23.1023C187.489 19.9888 173.157 32.6618 170.176 54.0917Z" fill="#1F0C03"/>
<path d="M248.99 86.3396C251.03 81.1436 248.471 75.2782 243.273 73.2388C238.075 71.1994 232.207 73.7583 230.167 78.9542C228.127 84.1502 230.687 90.0156 235.884 92.055C241.082 94.0944 246.95 91.5355 248.99 86.3396Z" fill="#AC503C"/>
<path d="M214.761 102.049L208.835 144.094L177.567 134.899L195.026 81.8838L214.761 102.049Z" fill="#C4735A"/>
<path d="M211.838 122.09C211.838 122.09 196.191 111.594 192.59 91.5869L214.49 105.087L211.838 122.09Z" fill="#AC503C"/>
<path d="M239.805 43.7772C242.588 48.3606 244.286 53.519 244.769 58.8584C245.378 68.9409 245.986 83.7059 241.752 92.3532C235.669 104.588 227.456 114.817 208.026 109.757C206.429 109.339 204.886 108.739 203.427 107.97C196.869 104.576 181.052 93.9708 181.757 71.1423C183.278 20.4987 224.499 21.4595 239.805 43.7772Z" fill="#C4735A"/>
<path d="M192.437 73.7206C192.749 69.1698 192.046 64.6066 190.38 60.3602C188.714 56.1138 186.125 52.2901 182.801 49.165L173.992 64.0881L186.914 75.8247L192.437 73.7206Z" fill="#1F0C03"/>
<path d="M169.857 79.3399C170.188 81.4274 171.131 83.3701 172.566 84.9223C174.001 86.4745 175.864 87.5667 177.92 88.0607C179.976 88.5547 182.132 88.4285 184.116 87.6979C186.1 86.9673 187.823 85.6653 189.067 83.9562C190.311 82.2471 191.021 80.2077 191.106 78.0958C191.191 75.9838 190.647 73.8941 189.545 72.0907C188.442 70.2873 186.829 68.8511 184.91 67.9636C182.991 67.0761 180.852 66.7772 178.763 67.1046C175.959 67.5474 173.446 69.0849 171.776 71.3792C170.106 73.6735 169.416 76.5369 169.857 79.3399Z" fill="#C4735A"/>
<path d="M177.082 74.7313C177.082 74.7313 182.983 74.0381 185.149 81.6516" stroke="#1D0006" stroke-width="0.63" stroke-linecap="round" stroke-linejoin="round"/>
<path d="M185.699 57.3868C185.699 57.3868 198.085 50.1989 194.593 36.8447H182.147L175.625 49.2867L185.699 57.3868Z" fill="#1F0C03"/>
<path d="M194.613 38.2938C194.613 38.2938 203.69 45.1046 219.738 41.0789C235.786 37.0532 240.081 44.1803 240.081 44.1803C240.081 44.1803 228.863 22.1666 199.675 27.6275C170.487 33.0883 194.613 38.2938 194.613 38.2938Z" fill="#1F0C03"/>
<path d="M203.545 23.6263C203.545 23.6263 189.991 16.6817 180.672 22.0209C171.352 27.3602 169.381 44.3751 175.622 49.3495C175.622 49.3495 193.216 25.9128 203.545 23.6263Z" fill="#1F0C03"/>
<path d="M235.382 52.7537C235.382 52.7537 234.02 55.5875 238.108 56.6335C240.071 57.033 241.971 57.7 243.753 58.6159C244.21 58.8497 244.729 58.9332 245.235 58.8546C245.742 58.776 246.211 58.5392 246.576 58.1781C246.784 57.8659 246.911 57.5064 246.945 57.1326C246.979 56.7587 246.919 56.3823 246.77 56.0375C246.534 54.7683 245.933 53.5954 245.041 52.6622C244.149 51.7291 243.003 51.0762 241.746 50.7835C236.903 49.4821 235.382 52.7537 235.382 52.7537Z" fill="#1F0C03"/>
<path d="M223.367 50.9064C223.367 50.9064 224.45 54.8227 218.5 54.8227C214.228 54.9812 209.98 55.5349 205.81 56.4767C205.106 56.6287 204.374 56.5741 203.7 56.3195C203.027 56.0649 202.441 55.6211 202.014 55.0416C201.73 54.6288 201.607 54.1267 201.668 53.6295C201.728 53.1323 201.968 52.6744 202.343 52.3416C206.119 49.4525 210.674 47.7583 215.422 47.4767C222.491 47.3551 223.367 50.9064 223.367 50.9064Z" fill="#1F0C03"/>
<path d="M222.107 72.604C222.107 72.604 219.005 60.9647 204.028 68.7607C204.028 68.7607 209.417 78.2959 222.107 72.604Z" fill="white"/>
<path d="M219.048 69.9742C219.091 71.0049 218.826 72.025 218.289 72.9056C217.751 73.7862 216.965 74.4878 216.029 74.9218C215.093 75.3557 214.049 75.5025 213.029 75.3437C212.01 75.1848 211.06 74.7273 210.3 74.0291C209.541 73.3309 209.005 72.4233 208.761 71.421C208.517 70.4186 208.576 69.3665 208.931 68.3976C209.285 67.4287 209.918 66.5865 210.751 65.9774C211.584 65.3683 212.579 65.0196 213.61 64.9755C214.295 64.9461 214.98 65.0522 215.624 65.2876C216.269 65.523 216.861 65.8832 217.366 66.3475C217.871 66.8118 218.28 67.3711 218.568 67.9934C218.857 68.6157 219.02 69.2888 219.048 69.9742Z" fill="black"/>
<path d="M203.544 68.2361C205.024 66.9499 206.823 66.0846 208.752 65.7306C210.613 65.3403 212.528 65.2826 214.409 65.5604C216.321 65.7686 218.139 66.4963 219.665 67.6644C221.186 68.8616 222.174 70.6094 222.415 72.5293C222.42 72.5686 222.417 72.6086 222.406 72.6467C222.395 72.6848 222.377 72.7203 222.352 72.751C222.327 72.7817 222.296 72.8071 222.261 72.8254C222.226 72.8437 222.187 72.8547 222.147 72.8577C222.069 72.8682 221.989 72.8473 221.925 72.7995C221.861 72.7518 221.819 72.681 221.807 72.6023C221.529 70.8721 220.58 69.321 219.167 68.2847C217.733 67.2739 216.05 66.6726 214.3 66.5455C212.542 66.3473 210.762 66.4626 209.044 66.8861C207.365 67.2621 205.816 68.0762 204.554 69.2455C204.49 69.3226 204.41 69.3853 204.32 69.4296C204.23 69.4739 204.131 69.4988 204.031 69.5027C203.931 69.5066 203.831 69.4894 203.737 69.4523C203.644 69.4151 203.56 69.3588 203.49 69.2869C203.419 69.2151 203.365 69.1294 203.33 69.0352C203.295 68.9411 203.28 68.8407 203.287 68.7405C203.293 68.6403 203.32 68.5426 203.367 68.4536C203.413 68.3646 203.478 68.2864 203.557 68.2239L203.544 68.2361Z" fill="#1D0006"/>
<path d="M232.383 73.4293C232.383 73.4293 235.924 63.7968 244.148 72.9793C244.148 72.9793 237.858 81.0307 232.383 73.4293Z" fill="white"/>
<path d="M234.939 72.127C234.525 74.6811 235.766 76.9919 237.701 77.3081C239.636 77.6244 241.546 75.8122 241.959 73.2581C242.373 70.704 241.132 68.3932 239.198 68.0892C237.263 67.7851 235.353 69.5851 234.939 72.127Z" fill="black"/>
<path d="M243.457 73.2831C242.996 72.2029 242.238 71.2754 241.271 70.6081C240.304 69.9408 239.168 69.561 237.994 69.5128C236.79 69.4576 235.603 69.8089 234.624 70.5101C233.655 71.2551 232.958 72.2978 232.641 73.4777C232.621 73.5451 232.575 73.6021 232.514 73.6362C232.452 73.6703 232.38 73.6789 232.312 73.6601C232.248 73.6429 232.192 73.6021 232.156 73.5459C232.12 73.4896 232.106 73.4219 232.117 73.3561C232.376 71.9874 233.104 70.752 234.177 69.8636C235.251 68.9752 236.601 68.4897 237.994 68.4912C239.415 68.459 240.816 68.8349 242.03 69.5743C243.244 70.3136 244.221 71.3855 244.844 72.6628C244.906 72.8409 244.9 73.0357 244.828 73.2099C244.755 73.3841 244.621 73.5254 244.451 73.6067C244.28 73.6881 244.086 73.7037 243.905 73.6508C243.724 73.5978 243.569 73.4798 243.469 73.3196L243.457 73.2831Z" fill="#1D0006"/>
<path d="M229.197 76.0811L232.543 83.5122L229.039 85.4825" stroke="#1D0006" stroke-width="0.61" stroke-linecap="round" stroke-linejoin="round"/>
<path d="M230.461 89.8239L213.427 86.832C213.427 86.832 211.943 94.7861 220.947 96.1848C229.95 97.5834 230.461 89.8239 230.461 89.8239Z" fill="black"/>
<path d="M231.101 92.6088L210.977 89.1547L212.206 84.1074L235.408 86.1507L231.101 92.6088Z" fill="white"/>
<path d="M210.918 98.3365C211.167 99.444 211.738 100.453 212.56 101.236C213.382 102.019 214.418 102.541 215.536 102.736C216.655 102.931 217.806 102.79 218.844 102.331C219.883 101.872 220.762 101.115 221.37 100.157C221.979 99.1986 222.29 98.0815 222.263 96.9468C222.237 95.8121 221.874 94.7107 221.222 93.7818C220.569 92.8529 219.656 92.1382 218.598 91.7279C217.539 91.3177 216.382 91.2304 215.274 91.477C213.788 91.8111 212.494 92.7208 211.678 94.0067C210.861 95.2926 210.588 96.8497 210.918 98.3365Z" fill="#D95758"/>
<path opacity="0.22" d="M211.528 58.3603L224.68 77.4915C224.68 77.4915 220.276 85.2997 213.73 84.1929L200.383 65.4995C200.383 65.4995 204.398 57.6306 211.528 58.3603Z" fill="white"/>
<path opacity="0.22" d="M242.564 59.3102L253.745 78.3076C253.745 78.3076 249.852 86.1401 244.182 85.1063L232.879 66.571C232.879 66.571 236.432 58.6534 242.564 59.3102Z" fill="white"/>
<path d="M225.966 71.8239C225.88 74.4853 225.007 77.0616 223.457 79.227C221.906 81.3923 219.749 83.0495 217.256 83.9891C214.764 84.9286 212.049 85.1082 209.454 84.5052C206.859 83.9022 204.502 82.5436 202.68 80.6014C200.858 78.6591 199.652 76.2203 199.217 73.5934C198.781 70.9665 199.134 68.2694 200.232 65.8432C201.33 63.417 203.123 61.3707 205.384 59.963C207.645 58.5553 210.273 57.8494 212.935 57.9346C216.505 58.0521 219.882 59.5807 222.325 62.1848C224.768 64.7888 226.077 68.2556 225.966 71.8239V71.8239Z" stroke="white" stroke-width="0.79" stroke-miterlimit="10"/>
<path d="M254.932 72.6282C254.64 80.0594 249.213 85.9337 242.765 85.7756C236.316 85.6175 231.377 79.4391 231.669 72.008C231.961 64.5768 237.375 58.7025 243.836 58.8728C250.296 59.043 255.26 65.1971 254.932 72.6282Z" stroke="white" stroke-width="0.74" stroke-miterlimit="10"/>
<path d="M225.973 71.8235C226.876 71.4035 227.866 71.2023 228.861 71.2361C229.857 71.2699 230.831 71.5378 231.703 72.0181" stroke="white" stroke-width="0.79" stroke-miterlimit="10"/>
<path d="M190.645 74.5013L199.101 71.5459" stroke="white" stroke-width="0.79" stroke-miterlimit="10"/>
<path d="M630.55 456.879H467.332C465.071 456.875 462.837 456.4 460.77 455.485C458.703 454.57 456.849 453.235 455.327 451.564C453.805 449.894 452.647 447.925 451.928 445.783C451.209 443.641 450.944 441.372 451.15 439.122L484.232 77.2708C484.602 73.2316 486.467 69.4762 489.463 66.7404C492.458 64.0047 496.368 62.4858 500.426 62.4815H663.644C665.909 62.4771 668.151 62.9455 670.225 63.8568C672.299 64.768 674.16 66.102 675.689 67.7733C677.218 69.4447 678.381 71.4166 679.103 73.5631C679.826 75.7095 680.093 77.983 679.886 80.2384L646.792 442.089C646.424 446.138 644.553 449.902 641.546 452.639C638.54 455.377 634.617 456.889 630.55 456.879Z" fill="#C74EF2"/>
<path d="M610.374 456.881H447.156C444.893 456.88 442.655 456.408 440.585 455.494C438.515 454.581 436.657 453.246 435.132 451.576C433.606 449.905 432.445 447.935 431.723 445.791C431.001 443.647 430.733 441.377 430.938 439.124L464.032 77.2727C464.402 73.2315 466.269 69.4743 469.267 66.7383C472.266 64.0022 476.178 62.4847 480.238 62.4834H643.468C645.73 62.4841 647.968 62.9563 650.038 63.8697C652.108 64.7832 653.964 66.1179 655.489 67.7887C657.014 69.4595 658.174 71.4297 658.894 73.5736C659.615 75.7175 659.88 77.988 659.674 80.2403L626.58 442.091C626.213 446.134 624.346 449.892 621.348 452.629C618.349 455.366 614.435 456.882 610.374 456.881Z" fill="#E9DFFF"/>
<path d="M643.468 72.724C644.303 72.7329 645.128 72.9137 645.891 73.2552C646.653 73.5967 647.337 74.0915 647.9 74.7088C648.462 75.3261 648.892 76.0527 649.162 76.8433C649.431 77.6338 649.535 78.4714 649.466 79.3038L616.385 441.155C616.253 442.656 615.563 444.053 614.449 445.069C613.336 446.085 611.882 446.646 610.374 446.64H447.156C446.32 446.633 445.494 446.453 444.73 446.113C443.966 445.772 443.281 445.277 442.717 444.66C442.152 444.042 441.722 443.315 441.452 442.524C441.181 441.732 441.077 440.894 441.146 440.06L474.264 78.2092C474.392 76.7091 475.08 75.3121 476.192 74.2959C477.303 73.2797 478.756 72.7185 480.262 72.724H643.468ZM643.468 62.4834H480.238C476.178 62.4847 472.266 64.0022 469.267 66.7383C466.269 69.4743 464.402 73.2315 464.032 77.2727L430.938 439.124C430.733 441.377 431.001 443.647 431.723 445.791C432.445 447.935 433.606 449.905 435.132 451.576C436.657 453.246 438.515 454.581 440.585 455.494C442.655 456.408 444.893 456.88 447.156 456.881H610.374C614.435 456.882 618.349 455.366 621.348 452.629C624.346 449.892 626.213 446.134 626.58 442.091L659.674 80.2403C659.88 77.988 659.615 75.7175 658.894 73.5736C658.174 71.4297 657.014 69.4595 655.489 67.7887C653.964 66.1179 652.108 64.7832 650.038 63.8697C647.968 62.9563 645.73 62.4841 643.468 62.4834Z" fill="#A21DD1"/>
<path d="M596.5 84.8249H514.593C513.3 84.8244 512.023 84.5513 510.843 84.0236C509.664 83.4958 508.609 82.7252 507.748 81.7622C506.887 80.7991 506.238 79.6653 505.845 78.4347C505.452 77.2041 505.324 75.9045 505.467 74.6208L506.611 63.6748H606.975L605.673 76.6884C605.418 78.9372 604.34 81.0122 602.647 82.5143C600.953 84.0164 598.764 84.8394 596.5 84.8249Z" fill="#C74EF2"/>
<path d="M532.457 72.9316H573.812" stroke="white" stroke-width="1.05" stroke-linecap="round" stroke-linejoin="round"/>
<path d="M512.897 256.701C484.025 369.044 477.613 453.73 477.613 453.73L530.685 449.947L576.201 280.624L512.897 256.701Z" fill="#3E96E7"/>
<path d="M621.176 348.5L636.567 461.403L583.374 450.019L518.063 252.796L570.976 240.828L585.661 255.496C601.162 277.327 616.748 316.039 621.176 348.5Z" fill="#3E96E7"/>
<path d="M554.126 362.706L542.446 328.712L529.926 323.823" stroke="#1D0006" stroke-width="0.65" stroke-linecap="round" stroke-linejoin="round"/>
<path d="M443.438 192.24L421.392 250.887C419.894 254.928 420.031 259.394 421.773 263.336C423.515 267.278 426.726 270.386 430.724 272C434.683 273.592 439.104 273.595 443.066 272.009C447.028 270.423 450.225 267.37 451.991 263.487L480.875 200.498L443.438 192.24Z" fill="#E7B38E"/>
<path d="M472.661 145.902C472.661 145.902 461.407 146.705 450.298 155.973C439.19 165.24 425.125 206.58 425.125 206.58C425.125 206.58 432.766 223.145 478.732 229.007L472.661 145.902Z" fill="#F5C045"/>
<path d="M385.893 180.214L385.479 176.565C384.922 171.668 383.217 166.972 380.503 162.858L375.733 155.561C375.465 155.157 375.111 154.817 374.698 154.564C374.285 154.311 373.822 154.15 373.34 154.094C372.859 154.037 372.371 154.086 371.91 154.236C371.45 154.386 371.027 154.635 370.672 154.965C370.047 155.542 369.611 156.294 369.42 157.123C369.229 157.951 369.292 158.818 369.601 159.611L372.898 168.209L348.273 148.202C347.996 147.962 347.671 147.784 347.319 147.68C346.968 147.576 346.598 147.548 346.235 147.599C345.872 147.65 345.524 147.777 345.214 147.974C344.904 148.17 344.641 148.431 344.44 148.738L343.868 149.613C343.539 150.11 343.393 150.706 343.455 151.298C343.518 151.891 343.784 152.443 344.209 152.861L360.281 166.92L339.598 153.323C339.304 153.105 338.968 152.952 338.611 152.874C338.254 152.795 337.884 152.792 337.526 152.866C337.168 152.939 336.829 153.087 336.532 153.3C336.235 153.513 335.986 153.786 335.802 154.101L335.425 154.77C335.112 155.316 335.01 155.958 335.138 156.574C335.266 157.19 335.614 157.738 336.118 158.115L353.748 171.165L338.186 164.196C337.838 164.027 337.456 163.938 337.068 163.937C336.681 163.935 336.298 164.02 335.948 164.186C335.598 164.351 335.289 164.593 335.045 164.894C334.8 165.195 334.627 165.546 334.536 165.923L334.463 166.239C334.337 166.778 334.386 167.343 334.605 167.851C334.824 168.359 335.201 168.783 335.68 169.061L351.327 177.453L342.287 175.02C341.887 174.838 341.447 174.76 341.009 174.795C340.571 174.83 340.149 174.976 339.784 175.22C339.418 175.464 339.121 175.797 338.92 176.187C338.719 176.578 338.622 177.014 338.637 177.453C338.654 177.897 338.787 178.328 339.021 178.706C339.256 179.083 339.585 179.393 339.975 179.605L379.687 200.281L384.055 191.135C385.685 187.74 386.322 183.954 385.893 180.214Z" fill="#E7B38E"/>
<path d="M372.902 168.27C371.899 170.549 371.411 173.021 371.474 175.51C371.537 178 372.149 180.444 373.267 182.67" stroke="#1D0006" stroke-width="0.52" stroke-linecap="round" stroke-linejoin="round"/>
<path d="M450.245 250.669L385.797 181.977L374.981 193.713L423.38 266.018L450.245 250.669Z" fill="#E7B38E"/>
<path d="M429.707 228.775L440.852 240.731" stroke="#1D0006" stroke-width="0.64" stroke-linecap="round" stroke-linejoin="round"/>
<path d="M486.154 143.337C486.154 143.337 464.436 145.587 455.81 154.112C447.184 162.638 462.927 212.272 462.927 212.272L507.945 279.736C507.945 279.736 541.878 288.505 578.135 263.925L576.918 162.833L563.535 146.17C558.474 139.895 545.771 135.224 537.753 136.063L519.09 136.672L486.154 143.337Z" fill="#F5C045"/>
<path d="M473.605 228.241C473.605 228.241 459.966 208.295 459.09 194.126" stroke="#1D0006" stroke-width="0.64" stroke-linecap="round" stroke-linejoin="round"/>
<path d="M601.59 183.24C601.59 183.24 588.121 201.837 567.231 207.419L579.653 182.645L601.59 183.24Z" fill="#1F0C03"/>
<path d="M549.039 201.18L579.456 255.63C581.562 259.372 585.047 262.143 589.167 263.354C593.288 264.565 597.718 264.12 601.515 262.113C605.27 260.132 608.117 256.78 609.463 252.755C610.809 248.73 610.551 244.34 608.742 240.5L579.335 178.011L549.039 201.18Z" fill="#E7B38E"/>
<path d="M534.208 136.283C541.779 135.351 549.463 136.274 556.597 138.971C563.732 141.668 570.103 146.059 575.162 151.766C596.113 175.117 601.588 183.242 601.588 183.242C601.588 183.242 569.662 190.138 550.488 208.637L520.07 172.43L534.208 136.283Z" fill="#F5C045"/>
<path d="M550.433 208.635L536.66 185.648" stroke="#1D0006" stroke-width="0.64" stroke-linecap="round" stroke-linejoin="round"/>
<path d="M588.36 230.419L514.738 294.988L524.18 308.038L602.79 261.384L588.36 230.419Z" fill="#E7B38E"/>
<path d="M516.273 288.65L512.89 287.24C508.336 285.353 503.4 284.565 498.485 284.941L489.834 285.585C489.351 285.623 488.882 285.764 488.46 286.001C488.037 286.238 487.671 286.564 487.387 286.956C487.104 287.349 486.909 287.798 486.817 288.273C486.724 288.749 486.737 289.238 486.853 289.709C487.055 290.535 487.5 291.282 488.131 291.852C488.763 292.422 489.551 292.79 490.394 292.907L499.519 294.196L470.039 305.982C469.693 306.112 469.379 306.314 469.117 306.574C468.856 306.835 468.653 307.148 468.522 307.493C468.39 307.838 468.334 308.207 468.357 308.576C468.379 308.944 468.48 309.304 468.652 309.63L469.138 310.555C469.426 311.069 469.881 311.469 470.427 311.69C470.973 311.912 471.579 311.94 472.143 311.771L492.255 304.546L470.355 316.04C470.025 316.188 469.731 316.404 469.49 316.674C469.25 316.944 469.069 317.261 468.96 317.606C468.851 317.95 468.816 318.314 468.857 318.673C468.898 319.031 469.015 319.378 469.199 319.688L469.588 320.345C469.912 320.886 470.423 321.289 471.024 321.477C471.625 321.666 472.275 321.626 472.849 321.367L492.778 312.391L479.127 322.583C478.811 322.804 478.548 323.093 478.358 323.43C478.168 323.766 478.056 324.14 478.03 324.526C478.005 324.911 478.066 325.297 478.209 325.655C478.353 326.014 478.575 326.336 478.86 326.597L479.103 326.828C479.51 327.201 480.027 327.434 480.576 327.493C481.125 327.552 481.679 327.434 482.157 327.156L497.085 317.56L490.54 324.261C490.195 324.529 489.924 324.879 489.751 325.28C489.578 325.68 489.508 326.118 489.55 326.552C489.591 326.986 489.741 327.403 489.987 327.764C490.232 328.125 490.565 328.418 490.953 328.616C491.353 328.812 491.796 328.904 492.241 328.883C492.685 328.862 493.117 328.728 493.496 328.494L530.836 303.878L524.96 295.619C522.779 292.525 519.767 290.109 516.273 288.65Z" fill="#E7B38E"/>
<path d="M539.342 41.0515C531.324 49.8205 509.326 53.9556 499.787 45.2353C490.249 36.515 490.833 14.3432 498.851 5.57422C506.868 -3.19476 522.649 1.09852 532.188 9.81884C541.726 18.5392 547.36 32.2947 539.342 41.0515Z" fill="#412C36"/>
<path d="M518.207 49.5663C515.701 54.9177 506.588 55.9394 497.864 51.8407C489.141 47.742 484.116 40.0798 486.634 34.7284C489.153 29.377 498.424 27.6622 507.135 31.7608C515.847 35.8595 520.726 44.2028 518.207 49.5663Z" fill="#E27CAE"/>
<path d="M466.668 40.906C466.668 40.906 439.816 36.0411 431.919 49.5047C424.023 62.9683 453.576 77.6603 453.576 77.6603L466.668 40.906Z" fill="#412C36"/>
<path d="M488.865 106.67C511.119 102.41 525.863 81.7467 521.796 60.517C517.73 39.2873 496.392 25.5304 474.138 29.7901C451.884 34.0498 437.141 54.713 441.207 75.9427C445.274 97.1724 466.611 110.929 488.865 106.67Z" fill="#412C36"/>
<path d="M453.651 116.031C455.937 115.504 457.998 114.268 459.539 112.5C461.079 110.731 462.021 108.52 462.229 106.184C462.437 103.849 461.9 101.507 460.696 99.4939C459.492 97.4812 457.682 95.9007 455.525 94.9785L455.063 96.0366C457.038 96.878 458.689 98.3356 459.767 100.192C460.846 102.048 461.295 104.203 461.048 106.336C460.801 108.468 459.87 110.463 458.395 112.023C456.919 113.583 454.979 114.625 452.863 114.992C450.747 115.359 448.569 115.032 446.655 114.06C444.74 113.087 443.191 111.522 442.24 109.598C441.288 107.673 440.985 105.493 441.375 103.382C441.765 101.271 442.828 99.3428 444.404 97.8853L443.614 97.0461C441.82 98.7106 440.625 100.92 440.216 103.332C439.806 105.744 440.204 108.224 441.347 110.387C442.491 112.551 444.317 114.276 446.541 115.296C448.766 116.317 451.265 116.575 453.651 116.031Z" fill="#E69624"/>
<path d="M455.106 97.0706C458.485 92.6102 457.608 86.2558 453.146 82.8776C448.684 79.4993 442.327 80.3765 438.947 84.8369C435.568 89.2972 436.446 95.6517 440.908 99.0299C445.37 102.408 451.726 101.531 455.106 97.0706Z" fill="#D9A07D"/>
<path d="M472.879 109.112L480.812 144.456L506.411 140.053L485.484 88.3633L472.879 109.112Z" fill="#E7B38E"/>
<path d="M476.697 126.723C476.697 126.723 489.825 117.419 492.405 97.2178L472.938 109.112L476.697 126.723Z" fill="#CB8D6D"/>
<path d="M443.842 54.7463C441.775 57.3733 440.66 60.6231 440.679 63.9653C440.594 73.8532 440.07 91.3303 445.375 100.793C452.274 113.089 464.733 120.362 481.352 113.782C481.352 113.782 503.581 105.366 502.815 78.3775C501.598 35.384 461.861 32.4773 443.842 54.7463Z" fill="#E7B38E"/>
<path d="M455.781 98.7987C455.781 98.7987 455.781 103.165 461.865 102.18C463.506 101.953 465.043 101.243 466.28 100.14C467.517 99.0382 468.398 97.5933 468.812 95.9893L455.781 98.7987Z" fill="#DC3D82"/>
<path d="M449.403 65.4991C449.403 65.4991 451.07 67.7613 447.115 69.1478C445.23 69.735 443.424 70.5519 441.738 71.5802C441.314 71.8551 440.819 72.0013 440.314 72.0013C439.809 72.0013 439.315 71.8551 438.891 71.5802C438.653 71.3509 438.486 71.0587 438.408 70.7378C438.331 70.4169 438.346 70.0805 438.453 69.7681C438.604 68.5611 439.104 67.4242 439.89 66.4957C440.676 65.5672 441.716 64.8872 442.881 64.5383C447.493 62.9086 449.403 65.4991 449.403 65.4991Z" fill="#412C36"/>
<path d="M461.077 62.0075C461.077 62.0075 460.335 65.1332 466.272 64.294C470.488 63.8145 474.733 63.6316 478.974 63.7467C479.666 63.7777 480.356 63.6478 480.99 63.3671C481.623 63.0864 482.183 62.6626 482.624 62.1291C482.745 61.9681 482.827 61.7814 482.865 61.5835C482.902 61.3856 482.893 61.1818 482.839 60.9879C482.785 60.7939 482.687 60.615 482.553 60.4649C482.418 60.3148 482.251 60.1976 482.065 60.1223C477.826 58.404 473.229 57.7565 468.681 58.2372C461.649 59.1858 461.077 62.0075 461.077 62.0075Z" fill="#412C36"/>
<path d="M463.738 79.8966C463.738 79.8966 465.807 68.002 481.441 74.4723C481.441 74.4723 476.891 84.4575 463.738 79.8966Z" fill="white"/>
<path d="M466.571 77.0031C466.613 78.0353 466.961 79.0318 467.57 79.8664C468.179 80.7009 469.022 81.3359 469.993 81.6908C470.963 82.0458 472.017 82.1047 473.022 81.8602C474.026 81.6157 474.935 81.0787 475.633 80.3173C476.332 79.5559 476.788 78.6044 476.945 77.5833C477.102 76.5622 476.952 75.5175 476.515 74.5816C476.077 73.6457 475.371 72.8607 474.487 72.3261C473.603 71.7915 472.58 71.5314 471.547 71.5787C470.169 71.6419 468.872 72.2479 467.939 73.2644C467.007 74.2809 466.515 75.6251 466.571 77.0031Z" fill="black"/>
<path d="M480.99 75.0208C479.623 73.9699 478.004 73.2949 476.294 73.0627C474.545 72.7932 472.761 72.8344 471.026 73.1843C469.281 73.4631 467.645 74.2115 466.293 75.3492C464.979 76.5097 464.171 78.1378 464.042 79.8857C464.042 79.9664 464.01 80.0437 463.953 80.1007C463.896 80.1577 463.819 80.1898 463.738 80.1898C463.657 80.1898 463.58 80.1577 463.523 80.1007C463.466 80.0437 463.434 79.9664 463.434 79.8857C463.492 77.9323 464.323 76.0818 465.745 74.7411C467.17 73.4452 468.919 72.5584 470.807 72.1749C472.659 71.7371 474.574 71.626 476.464 71.8465C478.421 72.0335 480.291 72.7435 481.879 73.9019C482.007 74.0226 482.086 74.1861 482.101 74.3613C482.116 74.5365 482.067 74.7112 481.962 74.8523C481.857 74.9934 481.703 75.0909 481.531 75.1265C481.359 75.162 481.179 75.1331 481.027 75.0452L480.99 75.0208Z" fill="#1D0006"/>
<path d="M453.579 81.6251C453.579 81.6251 449.199 72.3211 441.789 82.1968C441.777 82.1968 448.712 89.6765 453.579 81.6251Z" fill="white"/>
<path d="M450.902 80.5419C451.534 83.0473 450.5 85.4797 448.59 85.9541C446.68 86.4284 444.624 84.7987 443.991 82.3054C443.358 79.8121 444.392 77.4405 446.29 76.8932C448.188 76.3459 450.257 78.0364 450.902 80.5419Z" fill="black"/>
<path d="M441.058 81.9409C441.572 80.6125 442.456 79.4589 443.605 78.6163C444.754 77.7737 446.121 77.2772 447.543 77.1854C448.935 77.0619 450.327 77.4315 451.474 78.2296C452.622 79.0277 453.452 80.2036 453.821 81.5517C453.839 81.6194 453.831 81.6918 453.797 81.7533C453.763 81.8147 453.706 81.8603 453.638 81.8801C453.575 81.8967 453.508 81.8898 453.45 81.8607C453.392 81.8316 453.346 81.7823 453.322 81.722C452.902 80.573 452.115 79.5943 451.083 78.9368C450.047 78.3234 448.833 78.079 447.64 78.2436C446.471 78.3905 445.367 78.868 444.46 79.6198C443.553 80.3717 442.879 81.3668 442.518 82.4882C442.488 82.5848 442.44 82.6747 442.376 82.7526C442.311 82.8306 442.232 82.8951 442.143 82.9426C442.054 82.99 441.956 83.0194 441.855 83.0291C441.755 83.0388 441.653 83.0285 441.557 82.999C441.46 82.9694 441.37 82.9212 441.292 82.8569C441.214 82.7926 441.149 82.7136 441.102 82.6244C441.055 82.5352 441.025 82.4375 441.015 82.3369C441.006 82.2363 441.016 82.1348 441.046 82.0382L441.058 81.9409Z" fill="#1D0006"/>
<path d="M455.794 87.2432L454.492 90.8553L457.12 92.0473" stroke="#1D0006" stroke-width="0.61" stroke-linecap="round" stroke-linejoin="round"/>
<path d="M455.779 98.7992C455.779 98.7992 455.633 97.2059 458.334 96.3667C462.325 95.1505 468.81 95.941 468.81 95.941C464.825 98.1104 460.306 99.1017 455.779 98.7992Z" fill="#DC3D82"/>
<path d="M455 98.7005C455 98.7005 460.865 100.148 469.442 95.6113" stroke="#1D0006" stroke-width="0.61" stroke-linecap="round" stroke-linejoin="round"/>
<path d="M462.361 100.16C462.361 100.488 461.631 100.877 460.609 101.048C459.587 101.218 458.723 101.048 458.674 100.768C458.626 100.488 459.404 100.05 460.414 99.8801C461.424 99.7098 462.3 99.8436 462.361 100.16Z" fill="#D9699F"/>
<path d="M494.777 80.7256C492.933 78.5963 491.56 76.1004 490.751 73.4024C489.941 70.7043 489.713 67.8654 490.081 65.0728C491.468 52.9957 498.817 47.9727 498.817 47.9727L510.156 67.4323L494.777 80.7256Z" fill="#412C36"/>
<path d="M509.346 91.2272C514.536 88.8596 516.823 82.7345 514.454 77.5465C512.086 72.3584 505.959 70.072 500.769 72.4396C495.579 74.8072 493.291 80.9323 495.66 86.1204C498.028 91.3084 504.156 93.5948 509.346 91.2272Z" fill="#E7B38E"/>
<path d="M508.134 78.804C508.134 78.804 502.403 78.4269 500.688 85.8824" stroke="#1D0006" stroke-width="0.61" stroke-linecap="round" stroke-linejoin="round"/>
<path d="M512.081 107.494C514.372 106.972 516.438 105.738 517.983 103.968C519.528 102.199 520.472 99.9848 520.679 97.6452C520.885 95.3056 520.345 92.9607 519.134 90.9475C517.924 88.9344 516.106 87.3568 513.942 86.4414L513.492 87.4995C515.47 88.3422 517.123 89.8018 518.203 91.6605C519.282 93.5191 519.732 95.6771 519.484 97.8121C519.236 99.9471 518.303 101.945 516.826 103.506C515.349 105.068 513.406 106.11 511.287 106.478C509.169 106.845 506.988 106.517 505.071 105.543C503.154 104.569 501.604 103.002 500.652 101.075C499.699 99.1478 499.396 96.9645 499.787 94.851C500.178 92.7374 501.243 90.8071 502.822 89.3482L502.043 88.509C500.249 90.1735 499.055 92.3831 498.645 94.7952C498.236 97.2074 498.633 99.6872 499.777 101.85C500.921 104.013 502.746 105.739 504.971 106.759C507.195 107.78 509.695 108.038 512.081 107.494Z" fill="#E69624"/>
<path d="M495.254 52.4719C495.254 52.4719 474.765 59.3679 454.982 54.2233C452.728 53.5934 450.381 53.3589 448.047 53.53C446.271 53.6008 444.58 54.304 443.278 55.5125C443.278 55.5125 451.794 38.1083 478.975 37.2691C506.156 36.4299 495.254 52.4719 495.254 52.4719Z" fill="#412C36"/>
<path d="M480.809 144.455L491.163 155.34L506.408 140.053L493.292 136.282L480.809 144.455Z" fill="#E7B38E"/>
<path d="M491.16 155.342L505.249 137.147L503.449 132.769L519.083 136.636L507.573 162.846L491.16 155.342Z" fill="#C99724"/>
<path d="M491.165 155.34L479.363 164.547L470.25 146.267L479.777 139.603L480.811 144.455L491.165 155.34Z" fill="#C99724"/>
</svg>
