<svg width="784" height="563" viewBox="0 0 784 563" fill="none" xmlns="http://www.w3.org/2000/svg">
<path d="M736.562 43.9962L674 36.9543L742.694 2L736.562 43.9962Z" stroke="#73C4E0" stroke-width="1.39" stroke-miterlimit="10"/>
<path d="M716.556 42.4298L701.25 62.1205V40.0217L741.717 3.35254" stroke="#73C4E0" stroke-width="1.39" stroke-miterlimit="10"/>
<path d="M454 379.56L483 380.501L454 360V379.56Z" stroke="#F7A4AD" stroke-width="1.12" stroke-linecap="round" stroke-linejoin="round"/>
<path d="M463.232 380.173L468.898 390.163L470.362 380.087L454.352 360.676" stroke="#F7A4AD" stroke-width="1.12" stroke-linecap="round" stroke-linejoin="round"/>
<path d="M443.02 431.708C444.236 441.438 448.75 450.9 456.209 457.249C463.667 463.597 474.24 466.516 483.669 463.865C485.943 463.292 487.989 462.041 489.533 460.277C493.561 455.412 491.517 448.772 488.317 445.682C484.509 442.034 478.486 441.109 474.215 444.138C469.945 447.166 467.962 452.651 467.937 457.918C467.888 462.989 469.425 467.949 472.334 472.103C475.243 476.258 479.378 479.4 484.161 481.09C488.945 482.78 494.137 482.933 499.011 481.528C503.886 480.123 508.2 477.23 511.349 473.254" stroke="#73C4E0" stroke-width="1.01" stroke-miterlimit="10"/>
<path opacity="0.1" d="M102.399 454.72C102.394 456.44 101.879 458.12 100.919 459.547C99.9592 460.975 98.5974 462.086 97.006 462.739C95.4146 463.393 93.665 463.56 91.9785 463.22C90.2919 462.88 88.7442 462.047 87.531 460.828C86.3178 459.608 85.4936 458.056 85.1626 456.369C84.8317 454.681 85.0089 452.933 85.6717 451.346C86.3346 449.759 87.4534 448.404 88.8866 447.452C90.3199 446.501 92.0032 445.995 93.7238 446C94.8662 446.003 95.9968 446.231 97.051 446.671C98.1052 447.111 99.0624 447.754 99.868 448.564C100.674 449.374 101.312 450.334 101.746 451.391C102.18 452.447 102.402 453.578 102.399 454.72V454.72Z" fill="#F0FBFF"/>
<path opacity="0.5" d="M454.399 41.7204C454.394 43.4403 453.879 45.1201 452.919 46.5475C451.959 47.9748 450.597 49.0856 449.006 49.7394C447.415 50.3931 445.665 50.5604 443.978 50.2201C442.292 49.8799 440.744 49.0473 439.531 47.8278C438.318 46.6082 437.494 45.0564 437.163 43.3687C436.832 41.6809 437.009 39.9329 437.672 38.3457C438.335 36.7586 439.453 35.4036 440.887 34.4521C442.32 33.5005 444.003 32.9952 445.724 33C446.866 33.0032 447.997 33.2313 449.051 33.6713C450.105 34.1112 451.062 34.7545 451.868 35.5642C452.673 36.374 453.312 37.3344 453.746 38.3907C454.18 39.447 454.402 40.5784 454.399 41.7204V41.7204Z" fill="#F0FBFF"/>
<path opacity="0.8" d="M433.267 241.631C433.267 242.746 432.936 243.836 432.316 244.762C431.696 245.689 430.814 246.41 429.784 246.836C428.753 247.261 427.619 247.371 426.525 247.152C425.432 246.933 424.428 246.394 423.642 245.604C422.855 244.814 422.32 243.809 422.105 242.715C421.891 241.621 422.006 240.488 422.436 239.459C422.866 238.431 423.592 237.553 424.522 236.937C425.451 236.321 426.543 235.995 427.658 236C428.396 236.002 429.127 236.149 429.808 236.432C430.489 236.716 431.108 237.131 431.629 237.654C432.15 238.177 432.562 238.798 432.843 239.48C433.124 240.162 433.268 240.893 433.267 241.631Z" fill="#F0FBFF"/>
<path d="M58.5034 342.44C71.2893 334.049 74.8528 316.886 66.4626 304.106C58.0724 291.326 40.9057 287.768 28.1197 296.159C15.3338 304.549 11.7703 321.712 20.1605 334.492C28.5507 347.273 45.7174 350.831 58.5034 342.44Z" fill="url(#paint0_linear_332_259)"/>
<path d="M49.7119 309.385C48.3259 308.758 46.7473 308.707 45.3229 309.242C43.8986 309.777 42.7449 310.856 42.1152 312.241L41.2549 314.146L39.3297 313.268C38.6436 312.955 37.9026 312.78 37.149 312.754C36.3953 312.727 35.6438 312.849 34.9373 313.113C34.2307 313.377 33.583 313.777 33.0312 314.291C32.4793 314.805 32.0341 315.422 31.721 316.108C31.4078 316.794 31.2329 317.535 31.2061 318.289C31.1793 319.042 31.3013 319.793 31.5649 320.5C31.8286 321.206 32.2289 321.853 32.7428 322.405C33.2568 322.956 33.8745 323.401 34.5605 323.714L41.6885 326.97C43.0767 327.597 44.6573 327.648 46.0835 327.112C47.5097 326.576 48.6652 325.497 49.2966 324.11L52.5353 316.965C53.1638 315.585 53.2196 314.012 52.6904 312.591C52.1611 311.171 51.0901 310.018 49.7119 309.385V309.385Z" fill="white"/>
<path d="M486.591 180.812L425.234 166.898C423.972 166.613 422.845 165.908 422.038 164.898C421.231 163.888 420.792 162.633 420.793 161.34V92.6962C420.794 91.8244 420.995 90.9646 421.381 90.1826C421.766 89.4007 422.326 88.7175 423.017 88.1855C423.708 87.6534 424.511 87.2868 425.366 87.1136C426.221 86.9405 427.104 86.9655 427.947 87.1867L489.256 103.387C490.472 103.709 491.548 104.423 492.316 105.42C493.084 106.416 493.501 107.638 493.502 108.896V175.253C493.499 176.103 493.307 176.942 492.939 177.708C492.57 178.474 492.035 179.148 491.373 179.68C490.711 180.213 489.937 180.591 489.11 180.787C488.283 180.983 487.422 180.991 486.591 180.812V180.812Z" stroke="#F7A4AD" stroke-width="1.12" stroke-linecap="round" stroke-linejoin="round"/>
<path d="M479.176 188.68C478.423 189.275 477.557 189.711 476.631 189.962C475.704 190.213 474.737 190.273 473.786 190.139L412.441 176.226C411.179 175.941 410.052 175.236 409.245 174.226C408.438 173.215 407.999 171.96 408 170.668V102.024C407.998 101.222 408.165 100.429 408.493 99.6976C408.82 98.9658 409.299 98.3119 409.898 97.7793" stroke="#F7A4AD" stroke-width="1.12" stroke-linecap="round" stroke-linejoin="round"/>
<path d="M490.267 180.411L478.66 189.071" stroke="#F7A4AD" stroke-width="1.12" stroke-linecap="round" stroke-linejoin="round"/>
<path d="M409.903 97.7799L423.444 87.8799" stroke="#F7A4AD" stroke-width="1.12" stroke-linecap="round" stroke-linejoin="round"/>
<path d="M474.092 122.482C470.32 116.997 464.005 115.805 459.966 119.794L457.302 122.434L454.807 118.785C451.048 113.3 444.733 112.084 440.67 116.061C436.606 120.038 436.375 127.7 440.134 133.185L449.405 146.746C449.401 146.778 449.401 146.811 449.405 146.843C450.704 148.811 452.559 150.348 454.734 151.258C456.207 151.879 457.831 152.045 459.399 151.735C460.967 151.425 462.406 150.653 463.531 149.519L473.581 139.607C477.632 135.63 477.851 127.955 474.092 122.482Z" fill="#FF4252"/>
<path d="M164.916 45.2642L194.847 81.7509C195.464 82.4967 196.316 83.0119 197.263 83.2128C198.211 83.4138 199.199 83.2886 200.066 82.8577L246.105 59.8103C246.69 59.5175 247.199 59.0945 247.594 58.5738C247.99 58.0531 248.26 57.4487 248.385 56.8071C248.509 56.1656 248.485 55.504 248.313 54.8733C248.142 54.2426 247.827 53.6598 247.395 53.1697L215.932 17.4491C215.31 16.7413 214.471 16.2594 213.547 16.0789C212.622 15.8984 211.664 16.0296 210.822 16.4518L166.34 38.7331C165.763 39.0166 165.257 39.4266 164.861 39.9326C164.465 40.4386 164.188 41.0274 164.051 41.6553C163.914 42.2831 163.921 42.9337 164.071 43.5586C164.221 44.1835 164.51 44.7665 164.916 45.2642V45.2642Z" fill="#F0FBFF"/>
<path d="M164.916 45.2642L194.847 81.7509C195.464 82.4967 196.316 83.0119 197.263 83.2128C198.211 83.4138 199.199 83.2886 200.066 82.8577L246.105 59.8103C246.69 59.5175 247.199 59.0945 247.594 58.5738C247.99 58.0531 248.26 57.4487 248.385 56.8071C248.509 56.1656 248.485 55.504 248.313 54.8733C248.142 54.2426 247.827 53.6598 247.395 53.1697L215.932 17.4491C215.31 16.7413 214.471 16.2594 213.547 16.0789C212.622 15.8984 211.664 16.0296 210.822 16.4518L166.34 38.7331C165.763 39.0166 165.257 39.4266 164.861 39.9326C164.465 40.4386 164.188 41.0274 164.051 41.6553C163.914 42.2831 163.921 42.9337 164.071 43.5586C164.221 44.1835 164.51 44.7665 164.916 45.2642V45.2642Z" stroke="#87BBDA" stroke-width="1.36" stroke-miterlimit="10"/>
<path d="M162.108 52.8779C161.964 53.5824 161.964 54.3087 162.109 55.0131C162.253 55.7175 162.538 56.3854 162.948 56.9766L192.878 93.4634C193.49 94.2137 194.34 94.7325 195.287 94.9338C196.234 95.1351 197.221 95.0068 198.085 94.5701L244.125 71.4862C244.665 71.2175 245.143 70.8366 245.525 70.3689C245.906 69.9012 246.184 69.3575 246.339 68.774" stroke="#87BBDA" stroke-width="1.36" stroke-miterlimit="10"/>
<path d="M163.946 42.6611L162.024 53.3517" stroke="#87BBDA" stroke-width="1.36" stroke-miterlimit="10"/>
<path d="M246.348 68.7742L248.441 56.3809" stroke="#87BBDA" stroke-width="1.36" stroke-miterlimit="10"/>
<path d="M212.317 36.0944C208.01 34.793 205.394 36.8241 204.725 40.6795V40.6795C204.553 41.6379 203.559 42.2096 202.644 41.8751L201.537 41.4701C196.67 39.439 190.952 42.2241 190.271 46.0674C189.589 49.9107 192.509 54.3134 196.804 55.8945L207.426 59.7986C208.945 60.3887 210.606 60.5115 212.195 60.1513C213.268 59.9093 214.244 59.353 214.998 58.5535C215.752 57.754 216.251 56.7477 216.429 55.6634L218.096 46.116C218.826 42.2971 216.697 37.42 212.317 36.0944Z" fill="url(#paint1_linear_332_259)"/>
<path d="M154.177 575.882H317.394C319.657 575.881 321.894 575.409 323.964 574.495C326.034 573.582 327.891 572.247 329.415 570.576C330.94 568.906 332.1 566.935 332.821 564.791C333.541 562.648 333.807 560.377 333.601 558.125L300.507 196.274C300.139 192.231 298.273 188.473 295.274 185.736C292.275 182.999 288.361 181.483 284.301 181.484H121.083C118.82 181.485 116.583 181.957 114.513 182.871C112.443 183.784 110.587 185.119 109.062 186.79C107.537 188.461 106.377 190.431 105.657 192.575C104.936 194.719 104.67 196.989 104.877 199.241L137.958 561.092C138.329 565.136 140.198 568.895 143.198 571.631C146.199 574.367 150.115 575.883 154.177 575.882Z" fill="#C74EF2"/>
<path d="M174.324 575.881H337.566C339.829 575.88 342.067 575.408 344.138 574.494C346.208 573.581 348.065 572.246 349.591 570.576C351.117 568.905 352.278 566.935 353 564.791C353.722 562.647 353.989 560.377 353.785 558.124L320.691 196.273C320.321 192.236 318.457 188.482 315.464 185.746C312.471 183.011 308.564 181.491 304.509 181.483H141.255C138.992 181.484 136.755 181.956 134.685 182.87C132.615 183.783 130.759 185.118 129.234 186.789C127.709 188.46 126.549 190.43 125.828 192.574C125.108 194.718 124.842 196.988 125.048 199.24L158.142 561.091C158.509 565.13 160.372 568.885 163.366 571.621C166.36 574.357 170.268 575.876 174.324 575.881V575.881Z" fill="#E9DFFF"/>
<path d="M304.509 191.724C306.016 191.718 307.471 192.279 308.584 193.295C309.698 194.311 310.388 195.708 310.519 197.209L343.577 559.097C343.645 559.93 343.541 560.769 343.271 561.56C343.001 562.352 342.57 563.079 342.006 563.696C341.442 564.314 340.757 564.808 339.993 565.149C339.229 565.49 338.403 565.669 337.566 565.677H174.324C172.817 565.682 171.362 565.122 170.249 564.106C169.136 563.09 168.445 561.693 168.314 560.191L135.244 198.304C135.176 197.47 135.28 196.632 135.55 195.84C135.82 195.049 136.251 194.322 136.815 193.704C137.379 193.087 138.064 192.592 138.828 192.252C139.592 191.911 140.418 191.731 141.255 191.724H304.509ZM304.509 181.483H141.255C138.992 181.484 136.755 181.956 134.685 182.87C132.615 183.783 130.759 185.118 129.234 186.789C127.709 188.46 126.549 190.43 125.828 192.574C125.108 194.718 124.842 196.988 125.048 199.24L158.142 561.091C158.509 565.13 160.372 568.885 163.366 571.621C166.36 574.357 170.268 575.876 174.324 575.881H337.566C339.829 575.88 342.067 575.408 344.138 574.494C346.208 573.581 348.065 572.246 349.591 570.576C351.117 568.905 352.278 566.935 353 564.791C353.722 562.647 353.989 560.377 353.785 558.124L320.691 196.273C320.321 192.236 318.457 188.482 315.464 185.746C312.471 183.011 308.564 181.491 304.509 181.483V181.483Z" fill="#A21DD1"/>
<path d="M188.234 203.826H270.141C271.433 203.825 272.71 203.552 273.89 203.025C275.069 202.497 276.124 201.726 276.985 200.763C277.847 199.8 278.495 198.666 278.888 197.436C279.281 196.205 279.41 194.906 279.266 193.622L278.122 182.676H177.758L179.121 195.653C179.366 197.898 180.432 199.973 182.114 201.481C183.795 202.989 185.974 203.824 188.234 203.826V203.826Z" fill="#C74EF2"/>
<path d="M252.273 191.931H210.918" stroke="white" stroke-width="1.05" stroke-linecap="round" stroke-linejoin="round"/>
<path d="M307.019 418.246C310.134 419.523 364.605 598.247 364.605 598.247L300.12 598.636L265.944 479.045L249.604 598.794L195.011 598.417C195.011 598.417 191.836 438.399 211.132 399.078L307.019 418.246Z" fill="#5E056C"/>
<path d="M265.949 479.046L286.341 466.628" stroke="#494949" stroke-width="0.63" stroke-linecap="round" stroke-linejoin="round"/>
<path d="M339.287 270.851C339.287 270.851 358.754 288.048 329.554 374.886L302.117 377.574L339.287 270.851Z" fill="#ED6470"/>
<path d="M395.511 340.287C395.511 340.287 386.897 331.907 397.117 320.73L412.52 303.241C412.849 302.881 413.251 302.595 413.699 302.402C414.147 302.209 414.631 302.114 415.119 302.122C415.606 302.13 416.087 302.241 416.528 302.449C416.97 302.657 417.362 302.956 417.679 303.326V303.326C418.125 303.849 418.404 304.493 418.483 305.175C418.561 305.857 418.433 306.548 418.117 307.157L412.8 317.945L439.798 303.898C440.267 303.629 440.789 303.465 441.328 303.417C441.867 303.37 442.41 303.44 442.919 303.623C443.428 303.805 443.891 304.096 444.277 304.476C444.662 304.855 444.961 305.314 445.152 305.819V305.819C445.457 306.625 445.474 307.511 445.198 308.327C444.923 309.143 444.374 309.839 443.643 310.295L426.074 320.937L426.269 321.959L445.991 313.567C446.497 313.41 447.032 313.365 447.557 313.436C448.082 313.507 448.586 313.691 449.033 313.975C449.48 314.26 449.859 314.639 450.145 315.085C450.431 315.531 450.616 316.034 450.688 316.559V316.559C450.777 317.38 450.585 318.208 450.143 318.906C449.701 319.604 449.035 320.131 448.254 320.402L429.067 329.779L429.177 331.068L447.427 325.62C449.069 325.316 452.427 323.455 453.328 326.325C454.544 329.657 450.396 330.728 448.558 331.385L429.469 338.414L429.529 339.631L447.001 335.155C447.387 335.148 447.769 335.228 448.12 335.387C448.472 335.546 448.783 335.782 449.033 336.076C449.282 336.371 449.462 336.717 449.561 337.09C449.66 337.463 449.675 337.853 449.605 338.232V338.232C449.494 338.804 449.193 339.323 448.752 339.705C448.311 340.086 447.754 340.308 447.171 340.336L427.157 346.259C427.157 346.259 408.347 356.135 401.217 348.509L395.511 340.287Z" fill="#C4735A"/>
<path d="M412.8 317.944C412.8 317.944 417.168 328.416 409.43 336.382" stroke="#1D0006" stroke-width="0.63" stroke-linecap="round" stroke-linejoin="round"/>
<path d="M368.547 338.827L398.684 330.046L409.075 348.885L374.874 362.483L368.547 338.827Z" fill="#C4735A"/>
<path d="M379.672 333.279L392.265 329.886L402.594 351.316L386.997 357.664L379.672 333.279Z" fill="#FFD1D5"/>
<path d="M310.12 349.907L372.73 329.231C375.521 328.361 378.537 328.57 381.181 329.818C383.824 331.066 385.902 333.262 387.002 335.969L393.718 352.498C394.847 355.285 394.855 358.4 393.739 361.193C392.624 363.985 390.471 366.239 387.732 367.482L328.516 395.807C323.483 398.098 317.769 398.401 312.522 396.655C307.275 394.909 302.883 391.243 300.228 386.394V386.394C293.962 374.791 297.868 354.638 310.12 349.907Z" fill="#ED6470"/>
<path d="M339.737 340.104L328.117 343.777" stroke="#1D0006" stroke-width="0.65" stroke-linecap="round" stroke-linejoin="round"/>
<path d="M318.033 247.743C318.033 247.743 301.851 241.456 278.101 242.38L273.453 253.399L297.264 261.912L320.661 260.696L322.765 257.473L318.033 247.743Z" fill="black"/>
<path d="M216.598 409.89C216.598 409.89 277.359 444.528 314.687 421.176L318.921 337.743L325.978 280.362L318.276 266.728L294.538 260.051L265.91 262.228L236.71 308.894L216.598 409.89Z" fill="#5725E4"/>
<path d="M267.653 259.443C267.653 259.443 294.76 289.581 324.447 270.547L319.459 257.473L303.739 249.592L273.626 249.969L267.653 259.443Z" fill="#C4735A"/>
<path d="M280.111 289.094C280.111 289.094 274.599 386.659 256.288 448.942C255.156 452.761 250.448 454.306 246.627 453.211C238.111 450.779 213.29 431.538 198.836 405.779L219.994 268.09C220.2 265.595 221.006 263.186 222.342 261.069C223.679 258.951 225.507 257.187 227.672 255.927C235.191 251.537 264.281 248.35 264.281 248.35C264.281 248.35 281.157 244.811 280.111 289.094Z" fill="#ED6470"/>
<path d="M279.084 269.235L256.867 280.813L260.189 248.899L278.098 242.368L279.084 269.235Z" fill="#C73743"/>
<path d="M305.25 453.979C304.958 456.412 313.365 457.628 314.983 455.682C318.293 450.501 321.493 444.615 321.979 438.485L329.364 327.65L343.174 285.824C343.985 283.233 344.057 280.467 343.383 277.838C342.708 275.208 341.312 272.818 339.353 270.938C333.445 265.302 326.629 260.702 319.193 257.328C319.193 257.328 319.899 329.888 305.25 453.979Z" fill="#ED6470"/>
<path d="M324.059 397.316L329.351 327.65L334.912 304.651" stroke="#1D0006" stroke-width="0.63" stroke-linecap="round" stroke-linejoin="round"/>
<path d="M319.082 269.855L333.548 284.23L327.404 258.787L318.035 247.731L319.082 269.855Z" fill="#C73743"/>
<path d="M232.538 254.287C232.538 254.287 250.216 286.505 198.678 358.226L186.304 378.585C184.608 381.38 182.36 383.8 179.697 385.697C177.033 387.593 174.011 388.927 170.815 389.617C167.618 390.307 164.315 390.338 161.106 389.709C157.897 389.079 154.85 387.802 152.152 385.956C147.188 382.563 143.676 377.433 142.311 371.579C140.946 365.724 141.827 359.571 144.779 354.334C162.664 322.7 198.933 260.466 232.538 254.287Z" fill="#ED6470"/>
<path d="M208.34 344.007L238.672 304.272" stroke="#1D0006" stroke-width="0.63" stroke-linecap="round" stroke-linejoin="round"/>
<path d="M211.33 435.674C211.33 435.674 218.131 425.762 230.87 433.923L250.738 446.085C251.149 446.348 251.499 446.696 251.765 447.104C252.031 447.513 252.207 447.973 252.282 448.455C252.357 448.937 252.329 449.429 252.199 449.899C252.069 450.369 251.841 450.806 251.529 451.181V451.181C251.095 451.7 250.516 452.08 249.867 452.273C249.218 452.465 248.526 452.462 247.879 452.264L236.333 448.797L254.765 473.012C255.112 473.427 255.364 473.912 255.504 474.434C255.643 474.956 255.668 475.503 255.575 476.035C255.483 476.568 255.275 477.073 254.967 477.518C254.659 477.962 254.258 478.333 253.792 478.607C253.047 479.044 252.173 479.21 251.32 479.077C250.466 478.944 249.685 478.52 249.108 477.877L235.627 462.383L234.654 462.747L246.285 480.76C246.523 481.231 246.656 481.749 246.674 482.277C246.692 482.804 246.596 483.33 246.391 483.817C246.186 484.304 245.878 484.74 245.488 485.096C245.098 485.453 244.635 485.72 244.132 485.88C243.337 486.106 242.489 486.056 241.727 485.738C240.964 485.42 240.332 484.852 239.934 484.129L227.378 466.858L226.161 467.187L234.678 484.287C235.25 485.856 237.196 489.358 233.279 491.061C231.794 491.548 229.763 487.826 229.191 486.379L219.019 468.768L217.803 469.023L225.2 485.479C225.272 485.859 225.259 486.25 225.161 486.625C225.063 486.999 224.883 487.347 224.633 487.643C224.384 487.938 224.072 488.175 223.719 488.335C223.367 488.495 222.983 488.575 222.596 488.568V488.568C222.027 488.55 221.48 488.345 221.04 487.984C220.6 487.624 220.292 487.128 220.163 486.573L210.831 467.88C210.831 467.88 197.898 451.023 204.2 442.716L211.33 435.674Z" fill="#C4735A"/>
<path d="M208.191 408.868L221.964 437.06L205.161 450.5L185.938 419.121L208.191 408.868Z" fill="#C4735A"/>
<path d="M215.546 418.878L221.034 430.712L201.664 444.528L192.758 430.25L215.546 418.878Z" fill="#FFD1D5"/>
<path d="M187.399 353.191L218.315 411.363C219.651 413.962 219.96 416.969 219.18 419.786C218.4 422.602 216.588 425.022 214.106 426.565L198.946 435.991C196.389 437.589 193.312 438.134 190.362 437.51C187.412 436.886 184.819 435.143 183.129 432.646L145.132 379.096C142.025 374.518 140.768 368.934 141.612 363.467C142.456 358 145.34 353.056 149.682 349.627V349.627C160.048 341.503 180.586 341.928 187.399 353.191Z" fill="#ED6470"/>
<path d="M194.092 365.778L185.125 349.298" stroke="#1D0006" stroke-width="0.63" stroke-linecap="round" stroke-linejoin="round"/>
<path d="M202.512 381.613L218.682 411.715C219.652 413.533 220.064 415.598 219.864 417.649C219.665 419.7 218.864 421.647 217.562 423.245V423.245" stroke="#1D0006" stroke-width="0.63" stroke-linecap="round" stroke-linejoin="round"/>
<path d="M282.747 161.685C282.747 161.685 270.008 157.805 265.713 170.843C261.418 183.881 289.451 204.557 289.451 204.557L282.747 161.685Z" fill="#1F0C03"/>
<path d="M301.499 142.892C301.499 142.892 330.067 127.154 348.402 139.073C371.969 154.422 339.398 179.622 339.398 179.622C339.398 179.622 297.934 171.242 301.499 142.892Z" fill="#1F0C03"/>
<path d="M274.176 173.092L303.072 219.515C325.471 222.628 343.746 206.416 346.715 185.047C349.683 163.678 336.239 145.216 313.864 142.102C291.489 138.989 277.157 151.662 274.176 173.092Z" fill="#1F0C03"/>
<path d="M352.99 205.34C355.03 200.144 352.471 194.278 347.273 192.239C342.075 190.199 336.207 192.758 334.167 197.954C332.127 203.15 334.687 209.016 339.884 211.055C345.082 213.094 350.95 210.536 352.99 205.34Z" fill="#AC503C"/>
<path d="M318.761 221.049L312.835 263.094L281.567 253.899L299.026 200.884L318.761 221.049Z" fill="#C4735A"/>
<path d="M315.838 241.09C315.838 241.09 300.191 230.594 296.59 210.587L318.49 224.087L315.838 241.09Z" fill="#AC503C"/>
<path d="M343.805 162.777C346.588 167.361 348.286 172.519 348.769 177.858C349.378 187.941 349.986 202.706 345.752 211.353C339.669 223.588 331.456 233.817 312.026 228.757C310.429 228.339 308.886 227.739 307.427 226.97C300.869 223.576 285.052 212.971 285.757 190.142C287.278 139.499 328.499 140.46 343.805 162.777Z" fill="#C4735A"/>
<path d="M296.437 192.721C296.749 188.17 296.046 183.607 294.38 179.36C292.714 175.114 290.125 171.29 286.801 168.165L277.992 183.088L290.914 194.825L296.437 192.721Z" fill="#1F0C03"/>
<path d="M273.857 198.34C274.188 200.427 275.131 202.37 276.566 203.922C278.001 205.475 279.864 206.567 281.92 207.061C283.976 207.555 286.132 207.428 288.116 206.698C290.1 205.967 291.823 204.665 293.067 202.956C294.311 201.247 295.021 199.208 295.106 197.096C295.191 194.984 294.647 192.894 293.545 191.091C292.442 189.287 290.829 187.851 288.91 186.964C286.991 186.076 284.852 185.777 282.763 186.105C279.959 186.547 277.446 188.085 275.776 190.379C274.106 192.674 273.416 195.537 273.857 198.34V198.34Z" fill="#C4735A"/>
<path d="M281.082 193.731C281.082 193.731 286.983 193.038 289.149 200.652" stroke="#1D0006" stroke-width="0.63" stroke-linecap="round" stroke-linejoin="round"/>
<path d="M289.699 176.387C289.699 176.387 302.085 169.199 298.593 155.845H286.147L279.625 168.287L289.699 176.387Z" fill="#1F0C03"/>
<path d="M298.613 157.294C298.613 157.294 307.69 164.105 323.738 160.079C339.786 156.053 344.081 163.18 344.081 163.18C344.081 163.18 332.863 141.167 303.675 146.627C274.487 152.088 298.613 157.294 298.613 157.294Z" fill="#1F0C03"/>
<path d="M307.545 142.626C307.545 142.626 293.991 135.682 284.672 141.021C275.352 146.36 273.381 163.375 279.622 168.349C279.622 168.349 297.216 144.913 307.545 142.626Z" fill="#1F0C03"/>
<path d="M339.382 171.754C339.382 171.754 338.02 174.588 342.108 175.633C344.071 176.033 345.971 176.7 347.753 177.616C348.21 177.85 348.729 177.933 349.235 177.855C349.742 177.776 350.211 177.539 350.576 177.178V177.178C350.784 176.866 350.911 176.506 350.945 176.133C350.979 175.759 350.919 175.382 350.77 175.038C350.534 173.768 349.933 172.595 349.041 171.662C348.149 170.729 347.003 170.076 345.746 169.783C340.903 168.482 339.382 171.754 339.382 171.754Z" fill="#1F0C03"/>
<path d="M327.367 169.906C327.367 169.906 328.45 173.823 322.5 173.823C318.228 173.981 313.98 174.535 309.81 175.477C309.106 175.629 308.374 175.574 307.7 175.32C307.027 175.065 306.441 174.621 306.014 174.042V174.042C305.73 173.629 305.607 173.127 305.668 172.63C305.728 172.132 305.968 171.674 306.343 171.342C310.119 168.452 314.674 166.758 319.422 166.477C326.491 166.355 327.367 169.906 327.367 169.906Z" fill="#1F0C03"/>
<path d="M326.107 191.604C326.107 191.604 323.005 179.965 308.028 187.761C308.028 187.761 313.417 197.296 326.107 191.604Z" fill="white"/>
<path d="M323.048 188.974C323.091 190.005 322.826 191.025 322.289 191.906C321.751 192.786 320.965 193.488 320.029 193.922C319.093 194.356 318.049 194.503 317.029 194.344C316.01 194.185 315.06 193.727 314.3 193.029C313.541 192.331 313.005 191.423 312.761 190.421C312.517 189.419 312.576 188.367 312.931 187.398C313.285 186.429 313.918 185.586 314.751 184.977C315.584 184.368 316.579 184.02 317.61 183.975C318.295 183.946 318.98 184.052 319.624 184.288C320.269 184.523 320.861 184.883 321.366 185.347C321.871 185.812 322.28 186.371 322.568 186.993C322.857 187.616 323.02 188.289 323.048 188.974V188.974Z" fill="black"/>
<path d="M307.544 187.236C309.024 185.95 310.823 185.085 312.752 184.731C314.613 184.34 316.528 184.283 318.409 184.56C320.321 184.769 322.139 185.496 323.665 186.664C325.186 187.862 326.174 189.609 326.415 191.529C326.42 191.569 326.417 191.609 326.406 191.647C326.395 191.685 326.377 191.72 326.352 191.751C326.327 191.782 326.296 191.807 326.261 191.825C326.226 191.844 326.187 191.855 326.147 191.858C326.069 191.868 325.989 191.847 325.925 191.8C325.861 191.752 325.819 191.681 325.807 191.602C325.529 189.872 324.58 188.321 323.167 187.285C321.733 186.274 320.05 185.673 318.3 185.546C316.542 185.347 314.762 185.463 313.044 185.886C311.365 186.262 309.816 187.076 308.554 188.246C308.49 188.323 308.41 188.385 308.32 188.43C308.23 188.474 308.131 188.499 308.031 188.503C307.931 188.507 307.831 188.489 307.737 188.452C307.644 188.415 307.56 188.359 307.49 188.287C307.419 188.215 307.365 188.129 307.33 188.035C307.295 187.941 307.28 187.841 307.287 187.741C307.293 187.64 307.32 187.543 307.367 187.454C307.413 187.365 307.478 187.286 307.557 187.224L307.544 187.236Z" fill="#1D0006"/>
<path d="M336.383 192.429C336.383 192.429 339.924 182.797 348.148 191.979C348.148 191.979 341.858 200.031 336.383 192.429Z" fill="white"/>
<path d="M338.939 191.127C338.525 193.681 339.766 195.992 341.701 196.308C343.636 196.624 345.546 194.812 345.959 192.258C346.373 189.704 345.132 187.393 343.198 187.089C341.263 186.785 339.353 188.585 338.939 191.127Z" fill="black"/>
<path d="M347.457 192.283C346.996 191.203 346.238 190.275 345.271 189.608C344.304 188.941 343.168 188.561 341.994 188.513C340.79 188.458 339.603 188.809 338.624 189.51C337.655 190.255 336.958 191.298 336.641 192.478V192.478C336.621 192.545 336.575 192.602 336.514 192.636C336.452 192.67 336.38 192.679 336.312 192.66C336.248 192.643 336.192 192.602 336.156 192.546C336.12 192.49 336.106 192.422 336.117 192.356C336.376 190.987 337.104 189.752 338.177 188.864C339.251 187.975 340.601 187.49 341.994 187.491C343.415 187.459 344.816 187.835 346.03 188.574C347.244 189.314 348.221 190.386 348.844 191.663C348.906 191.841 348.9 192.036 348.828 192.21C348.755 192.384 348.621 192.525 348.451 192.607C348.28 192.688 348.086 192.704 347.905 192.651C347.724 192.598 347.569 192.48 347.469 192.32L347.457 192.283Z" fill="#1D0006"/>
<path d="M333.197 195.081L336.543 202.512L333.039 204.482" stroke="#1D0006" stroke-width="0.61" stroke-linecap="round" stroke-linejoin="round"/>
<path d="M334.461 208.824L317.427 205.832C317.427 205.832 315.943 213.786 324.947 215.185C333.95 216.583 334.461 208.824 334.461 208.824Z" fill="black"/>
<path d="M335.101 211.609L314.977 208.155L316.206 203.107L339.408 205.151L335.101 211.609Z" fill="white"/>
<path d="M314.918 217.337C315.167 218.444 315.738 219.453 316.56 220.236C317.382 221.019 318.418 221.541 319.536 221.736C320.655 221.931 321.806 221.79 322.844 221.331C323.883 220.872 324.762 220.115 325.37 219.157C325.979 218.199 326.29 217.082 326.263 215.947C326.237 214.812 325.874 213.711 325.222 212.782C324.569 211.853 323.656 211.138 322.598 210.728C321.539 210.318 320.382 210.23 319.274 210.477C317.788 210.811 316.494 211.721 315.678 213.007C314.861 214.293 314.588 215.85 314.918 217.337V217.337Z" fill="#D95758"/>
<path opacity="0.22" d="M315.528 177.36L328.68 196.492C328.68 196.492 324.276 204.3 317.73 203.193L304.383 184.5C304.383 184.5 308.398 176.631 315.528 177.36Z" fill="white"/>
<path opacity="0.22" d="M346.564 178.31L357.745 197.308C357.745 197.308 353.852 205.14 348.182 204.106L336.879 185.571C336.879 185.571 340.432 177.653 346.564 178.31Z" fill="white"/>
<path d="M329.966 190.824C329.88 193.485 329.007 196.062 327.457 198.227C325.906 200.392 323.749 202.05 321.256 202.989C318.764 203.929 316.049 204.108 313.454 203.505C310.859 202.902 308.502 201.544 306.68 199.601C304.858 197.659 303.652 195.22 303.217 192.593C302.781 189.966 303.134 187.269 304.232 184.843C305.33 182.417 307.123 180.371 309.384 178.963C311.645 177.555 314.273 176.849 316.935 176.935C320.505 177.052 323.882 178.581 326.325 181.185C328.768 183.789 330.077 187.256 329.966 190.824V190.824Z" stroke="white" stroke-width="0.79" stroke-miterlimit="10"/>
<path d="M358.932 191.628C358.64 199.059 353.213 204.934 346.765 204.776C340.316 204.618 335.377 198.439 335.669 191.008C335.961 183.577 341.375 177.702 347.836 177.873C354.296 178.043 359.26 184.197 358.932 191.628Z" stroke="white" stroke-width="0.74" stroke-miterlimit="10"/>
<path d="M329.973 190.823C330.876 190.404 331.866 190.202 332.861 190.236C333.857 190.27 334.831 190.538 335.703 191.018" stroke="white" stroke-width="0.79" stroke-miterlimit="10"/>
<path d="M294.645 193.501L303.101 190.546" stroke="white" stroke-width="0.79" stroke-miterlimit="10"/>
<path d="M734.55 575.879H571.332C569.071 575.875 566.837 575.4 564.77 574.485C562.703 573.57 560.849 572.235 559.327 570.564C557.805 568.894 556.647 566.925 555.928 564.783C555.209 562.641 554.944 560.372 555.15 558.122L588.232 196.271C588.602 192.232 590.467 188.476 593.463 185.74C596.458 183.005 600.368 181.486 604.426 181.481H767.644C769.909 181.477 772.151 181.946 774.225 182.857C776.299 183.768 778.16 185.102 779.689 186.773C781.218 188.445 782.381 190.417 783.103 192.563C783.826 194.709 784.093 196.983 783.886 199.238L750.792 561.089C750.424 565.138 748.553 568.902 745.546 571.639C742.54 574.377 738.617 575.889 734.55 575.879V575.879Z" fill="#C74EF2"/>
<path d="M714.374 575.881H551.156C548.893 575.88 546.655 575.408 544.585 574.494C542.515 573.581 540.657 572.246 539.132 570.576C537.606 568.905 536.445 566.935 535.723 564.791C535.001 562.647 534.733 560.377 534.938 558.124L568.032 196.273C568.402 192.231 570.269 188.474 573.267 185.738C576.266 183.002 580.178 181.485 584.238 181.483H747.468C749.73 181.484 751.968 181.956 754.038 182.87C756.108 183.783 757.964 185.118 759.489 186.789C761.014 188.46 762.174 190.43 762.894 192.574C763.615 194.718 763.88 196.988 763.674 199.24L730.58 561.091C730.213 565.134 728.346 568.892 725.348 571.629C722.349 574.366 718.435 575.882 714.374 575.881Z" fill="#E9DFFF"/>
<path d="M747.468 191.724C748.303 191.733 749.128 191.914 749.891 192.255C750.653 192.597 751.337 193.091 751.9 193.709C752.462 194.326 752.892 195.053 753.162 195.843C753.431 196.634 753.535 197.471 753.466 198.304L720.385 560.155C720.253 561.656 719.563 563.053 718.449 564.069C717.336 565.085 715.882 565.646 714.374 565.64H551.156C550.32 565.633 549.494 565.453 548.73 565.113C547.966 564.772 547.281 564.277 546.717 563.66C546.152 563.042 545.722 562.315 545.452 561.524C545.181 560.732 545.077 559.894 545.146 559.06L578.264 197.209C578.392 195.709 579.08 194.312 580.192 193.296C581.303 192.28 582.756 191.719 584.262 191.724H747.468ZM747.468 181.483H584.238C580.178 181.485 576.266 183.002 573.267 185.738C570.269 188.474 568.402 192.231 568.032 196.273L534.938 558.124C534.733 560.377 535.001 562.647 535.723 564.791C536.445 566.935 537.606 568.905 539.132 570.576C540.657 572.246 542.515 573.581 544.585 574.494C546.655 575.408 548.893 575.88 551.156 575.881H714.374C718.435 575.882 722.349 574.366 725.348 571.629C728.346 568.892 730.213 565.134 730.58 561.091L763.674 199.24C763.88 196.988 763.615 194.718 762.894 192.574C762.174 190.43 761.014 188.46 759.489 186.789C757.964 185.118 756.108 183.783 754.038 182.87C751.968 181.956 749.73 181.484 747.468 181.483Z" fill="#A21DD1"/>
<path d="M700.5 203.825H618.593C617.3 203.824 616.023 203.551 614.843 203.024C613.664 202.496 612.609 201.725 611.748 200.762C610.887 199.799 610.238 198.665 609.845 197.435C609.452 196.204 609.324 194.905 609.467 193.621L610.611 182.675H710.975L709.673 195.688C709.418 197.937 708.34 200.012 706.647 201.514C704.953 203.016 702.764 203.839 700.5 203.825V203.825Z" fill="#C74EF2"/>
<path d="M636.457 191.932H677.812" stroke="white" stroke-width="1.05" stroke-linecap="round" stroke-linejoin="round"/>
<path d="M616.897 375.701C588.025 488.044 581.613 572.73 581.613 572.73L634.685 568.947L680.201 399.624L616.897 375.701Z" fill="#3E96E7"/>
<path d="M725.176 467.5L740.567 580.403L687.374 569.019L622.063 371.796L674.976 359.828L689.661 374.496C705.162 396.327 720.748 435.039 725.176 467.5Z" fill="#3E96E7"/>
<path d="M658.126 481.706L646.446 447.712L633.926 442.823" stroke="#1D0006" stroke-width="0.65" stroke-linecap="round" stroke-linejoin="round"/>
<path d="M547.438 311.24L525.392 369.887C523.894 373.928 524.031 378.394 525.773 382.336C527.515 386.278 530.726 389.386 534.724 391V391C538.683 392.592 543.104 392.595 547.066 391.009C551.028 389.423 554.225 386.37 555.991 382.487L584.875 319.498L547.438 311.24Z" fill="#E7B38E"/>
<path d="M576.661 264.902C576.661 264.902 565.407 265.705 554.298 274.973C543.19 284.24 529.125 325.58 529.125 325.58C529.125 325.58 536.766 342.145 582.732 348.007L576.661 264.902Z" fill="#F5C045"/>
<path d="M489.893 299.214L489.479 295.565C488.922 290.668 487.217 285.972 484.503 281.858L479.733 274.561C479.465 274.157 479.111 273.817 478.698 273.564C478.285 273.311 477.822 273.15 477.34 273.094C476.859 273.037 476.371 273.086 475.91 273.236C475.45 273.386 475.027 273.635 474.672 273.965V273.965C474.047 274.542 473.611 275.294 473.42 276.123C473.229 276.951 473.292 277.818 473.601 278.611L476.898 287.209L452.273 267.202C451.996 266.962 451.671 266.784 451.319 266.68C450.968 266.576 450.598 266.548 450.235 266.599C449.872 266.65 449.524 266.777 449.214 266.974C448.904 267.17 448.641 267.431 448.44 267.738L447.868 268.613C447.539 269.11 447.393 269.706 447.455 270.298C447.518 270.891 447.784 271.443 448.209 271.861L464.281 285.92L443.598 272.323C443.304 272.105 442.968 271.952 442.611 271.874C442.254 271.795 441.884 271.792 441.526 271.866C441.168 271.939 440.829 272.087 440.532 272.3C440.235 272.513 439.986 272.786 439.802 273.101L439.425 273.77C439.112 274.316 439.01 274.958 439.138 275.574C439.266 276.19 439.614 276.738 440.118 277.115L457.748 290.165L442.186 283.196C441.838 283.027 441.456 282.938 441.068 282.937C440.681 282.935 440.298 283.02 439.948 283.186C439.598 283.351 439.289 283.593 439.045 283.894C438.8 284.195 438.627 284.546 438.536 284.923L438.463 285.239C438.337 285.778 438.386 286.343 438.605 286.851C438.824 287.359 439.201 287.783 439.68 288.061L455.327 296.453L446.287 294.02C445.887 293.838 445.447 293.76 445.009 293.795C444.571 293.83 444.149 293.976 443.784 294.22C443.418 294.464 443.121 294.797 442.92 295.187C442.719 295.578 442.622 296.014 442.637 296.453V296.453C442.654 296.897 442.787 297.328 443.021 297.706C443.256 298.083 443.585 298.393 443.975 298.605L483.687 319.281L488.055 310.135C489.685 306.74 490.322 302.954 489.893 299.214V299.214Z" fill="#E7B38E"/>
<path d="M476.902 287.27C475.899 289.549 475.411 292.021 475.474 294.51C475.537 297 476.149 299.444 477.267 301.67" stroke="#1D0006" stroke-width="0.52" stroke-linecap="round" stroke-linejoin="round"/>
<path d="M554.245 369.669L489.797 300.977L478.981 312.713L527.38 385.018L554.245 369.669Z" fill="#E7B38E"/>
<path d="M533.707 347.775L544.852 359.731" stroke="#1D0006" stroke-width="0.64" stroke-linecap="round" stroke-linejoin="round"/>
<path d="M590.154 262.337C590.154 262.337 568.436 264.587 559.81 273.112C551.184 281.638 566.927 331.272 566.927 331.272L611.945 398.736C611.945 398.736 645.878 407.505 682.135 382.925L680.918 281.833L667.535 265.17C662.474 258.895 649.771 254.224 641.753 255.063L623.09 255.672L590.154 262.337Z" fill="#F5C045"/>
<path d="M577.605 347.241C577.605 347.241 563.966 327.295 563.09 313.126" stroke="#1D0006" stroke-width="0.64" stroke-linecap="round" stroke-linejoin="round"/>
<path d="M705.59 302.24C705.59 302.24 692.121 320.837 671.231 326.419L683.653 301.645L705.59 302.24Z" fill="#1F0C03"/>
<path d="M653.039 320.18L683.456 374.63C685.562 378.372 689.047 381.143 693.167 382.354C697.288 383.565 701.718 383.12 705.515 381.113V381.113C709.27 379.132 712.117 375.78 713.463 371.755C714.809 367.73 714.551 363.34 712.742 359.5L683.335 297.011L653.039 320.18Z" fill="#E7B38E"/>
<path d="M638.208 255.283C645.779 254.351 653.463 255.274 660.597 257.971C667.732 260.668 674.103 265.059 679.162 270.766C700.113 294.117 705.588 302.242 705.588 302.242C705.588 302.242 673.662 309.138 654.488 327.637L624.07 291.43L638.208 255.283Z" fill="#F5C045"/>
<path d="M654.433 327.635L640.66 304.648" stroke="#1D0006" stroke-width="0.64" stroke-linecap="round" stroke-linejoin="round"/>
<path d="M692.36 349.419L618.738 413.988L628.18 427.038L706.79 380.384L692.36 349.419Z" fill="#E7B38E"/>
<path d="M620.273 407.65L616.89 406.24C612.336 404.353 607.4 403.565 602.485 403.941L593.834 404.585C593.351 404.623 592.882 404.764 592.46 405.001C592.037 405.238 591.671 405.564 591.387 405.956C591.104 406.349 590.909 406.798 590.817 407.273C590.724 407.749 590.737 408.238 590.853 408.709V408.709C591.055 409.535 591.5 410.282 592.131 410.852C592.763 411.422 593.551 411.79 594.394 411.907L603.519 413.196L574.039 424.982C573.693 425.112 573.379 425.314 573.117 425.574C572.856 425.835 572.653 426.148 572.522 426.493C572.39 426.838 572.334 427.207 572.357 427.576C572.379 427.944 572.48 428.304 572.652 428.63L573.138 429.555C573.426 430.069 573.881 430.469 574.427 430.69C574.973 430.912 575.579 430.94 576.143 430.771L596.255 423.546L574.355 435.04C574.025 435.188 573.731 435.404 573.49 435.674C573.25 435.944 573.069 436.261 572.96 436.606C572.851 436.95 572.816 437.314 572.857 437.673C572.898 438.031 573.015 438.378 573.199 438.688L573.588 439.345C573.912 439.886 574.423 440.289 575.024 440.477C575.625 440.666 576.275 440.626 576.849 440.367L596.778 431.391L583.127 441.583C582.811 441.804 582.548 442.093 582.358 442.43C582.168 442.766 582.056 443.14 582.03 443.526C582.005 443.911 582.066 444.297 582.209 444.655C582.353 445.014 582.575 445.336 582.86 445.597L583.103 445.828C583.51 446.201 584.027 446.434 584.576 446.493C585.125 446.552 585.679 446.434 586.157 446.156L601.085 436.56L594.54 443.261C594.195 443.529 593.924 443.879 593.751 444.28C593.578 444.68 593.508 445.118 593.55 445.552C593.591 445.986 593.741 446.403 593.987 446.764C594.232 447.125 594.565 447.418 594.953 447.616V447.616C595.353 447.812 595.796 447.904 596.241 447.883C596.685 447.862 597.117 447.728 597.496 447.494L634.836 422.878L628.96 414.619C626.779 411.525 623.767 409.109 620.273 407.65Z" fill="#E7B38E"/>
<path d="M643.342 160.051C635.324 168.82 613.326 172.956 603.787 164.235C594.249 155.515 594.833 133.343 602.851 124.574C610.868 115.805 626.649 120.099 636.188 128.819C645.726 137.539 651.36 151.295 643.342 160.051Z" fill="#412C36"/>
<path d="M622.207 168.566C619.701 173.918 610.588 174.939 601.864 170.841C593.141 166.742 588.116 159.08 590.634 153.728C593.153 148.377 602.424 146.662 611.135 150.761C619.847 154.86 624.726 163.203 622.207 168.566Z" fill="#E27CAE"/>
<path d="M570.668 159.906C570.668 159.906 543.816 155.041 535.919 168.505C528.023 181.968 557.576 196.66 557.576 196.66L570.668 159.906Z" fill="#412C36"/>
<path d="M592.865 225.67C615.119 221.41 629.863 200.747 625.796 179.517C621.73 158.287 600.392 144.53 578.138 148.79C555.884 153.05 541.141 173.713 545.207 194.943C549.274 216.172 570.611 229.929 592.865 225.67Z" fill="#412C36"/>
<path d="M557.651 235.031C559.937 234.504 561.998 233.268 563.539 231.5C565.079 229.731 566.021 227.52 566.229 225.184C566.437 222.849 565.9 220.507 564.696 218.494C563.492 216.481 561.682 214.901 559.525 213.979L559.063 215.037C561.038 215.878 562.689 217.336 563.767 219.192C564.846 221.048 565.295 223.203 565.048 225.336C564.801 227.468 563.87 229.463 562.395 231.023C560.919 232.583 558.979 233.625 556.863 233.992C554.747 234.359 552.569 234.032 550.655 233.06C548.74 232.087 547.191 230.522 546.24 228.598C545.288 226.673 544.985 224.493 545.375 222.382C545.765 220.271 546.828 218.343 548.404 216.885L547.614 216.046C545.82 217.711 544.625 219.92 544.216 222.332C543.806 224.744 544.204 227.224 545.347 229.387C546.491 231.551 548.317 233.276 550.541 234.296C552.766 235.317 555.265 235.575 557.651 235.031V235.031Z" fill="#E69624"/>
<path d="M559.106 216.071C562.485 211.61 561.608 205.256 557.146 201.878C552.684 198.499 546.327 199.377 542.947 203.837C539.568 208.297 540.446 214.652 544.908 218.03C549.37 221.408 555.726 220.531 559.106 216.071Z" fill="#D9A07D"/>
<path d="M576.879 228.112L584.812 263.456L610.411 259.053L589.484 207.363L576.879 228.112Z" fill="#E7B38E"/>
<path d="M580.697 245.723C580.697 245.723 593.825 236.419 596.405 216.218L576.938 228.112L580.697 245.723Z" fill="#CB8D6D"/>
<path d="M547.842 173.746C545.775 176.373 544.66 179.623 544.679 182.965C544.594 192.853 544.07 210.33 549.375 219.793C556.274 232.089 568.733 239.362 585.352 232.782C585.352 232.782 607.581 224.366 606.815 197.378C605.598 154.384 565.861 151.477 547.842 173.746Z" fill="#E7B38E"/>
<path d="M559.781 217.799C559.781 217.799 559.781 222.165 565.865 221.18C567.506 220.953 569.043 220.243 570.28 219.14C571.517 218.038 572.398 216.593 572.812 214.989L559.781 217.799Z" fill="#DC3D82"/>
<path d="M553.403 184.499C553.403 184.499 555.07 186.761 551.115 188.148C549.23 188.735 547.424 189.552 545.738 190.58C545.314 190.855 544.819 191.001 544.314 191.001C543.809 191.001 543.315 190.855 542.891 190.58V190.58C542.653 190.351 542.486 190.059 542.408 189.738C542.331 189.417 542.346 189.081 542.453 188.768C542.604 187.561 543.104 186.424 543.89 185.496C544.676 184.567 545.716 183.887 546.881 183.538C551.493 181.909 553.403 184.499 553.403 184.499Z" fill="#412C36"/>
<path d="M565.077 181.007C565.077 181.007 564.335 184.133 570.272 183.294C574.488 182.814 578.733 182.632 582.974 182.747C583.666 182.778 584.356 182.648 584.99 182.367C585.623 182.086 586.183 181.663 586.624 181.129V181.129C586.745 180.968 586.827 180.781 586.865 180.583C586.902 180.386 586.893 180.182 586.839 179.988C586.785 179.794 586.687 179.615 586.553 179.465C586.418 179.315 586.251 179.198 586.065 179.122C581.826 177.404 577.229 176.756 572.681 177.237C565.649 178.186 565.077 181.007 565.077 181.007Z" fill="#412C36"/>
<path d="M567.738 198.897C567.738 198.897 569.807 187.002 585.441 193.472C585.441 193.472 580.891 203.457 567.738 198.897Z" fill="white"/>
<path d="M570.571 196.003C570.613 197.035 570.961 198.032 571.57 198.866C572.179 199.701 573.022 200.336 573.993 200.691C574.963 201.046 576.017 201.105 577.022 200.86C578.026 200.616 578.935 200.079 579.633 199.317C580.332 198.556 580.788 197.604 580.945 196.583C581.102 195.562 580.952 194.517 580.515 193.582C580.077 192.646 579.371 191.861 578.487 191.326C577.603 190.792 576.58 190.531 575.547 190.579C574.169 190.642 572.872 191.248 571.939 192.264C571.007 193.281 570.515 194.625 570.571 196.003V196.003Z" fill="black"/>
<path d="M584.99 194.021C583.623 192.97 582.004 192.295 580.294 192.063C578.545 191.793 576.761 191.834 575.026 192.184C573.281 192.463 571.645 193.211 570.293 194.349C568.979 195.51 568.171 197.138 568.042 198.886V198.886C568.042 198.966 568.01 199.044 567.953 199.101C567.896 199.158 567.819 199.19 567.738 199.19C567.657 199.19 567.58 199.158 567.523 199.101C567.466 199.044 567.434 198.966 567.434 198.886C567.492 196.932 568.323 195.082 569.745 193.741C571.17 192.445 572.919 191.558 574.807 191.175C576.659 190.737 578.574 190.626 580.464 190.846C582.421 191.033 584.291 191.743 585.879 192.902C586.007 193.023 586.086 193.186 586.101 193.361C586.116 193.537 586.067 193.711 585.962 193.852C585.857 193.993 585.703 194.091 585.531 194.126C585.359 194.162 585.179 194.133 585.027 194.045V194.045L584.99 194.021Z" fill="#1D0006"/>
<path d="M557.579 200.625C557.579 200.625 553.199 191.321 545.789 201.197C545.777 201.197 552.712 208.677 557.579 200.625Z" fill="white"/>
<path d="M554.902 199.542C555.534 202.047 554.5 204.48 552.59 204.954C550.68 205.428 548.624 203.799 547.991 201.305C547.358 198.812 548.392 196.44 550.29 195.893C552.188 195.346 554.257 197.036 554.902 199.542Z" fill="black"/>
<path d="M545.058 200.941C545.572 199.612 546.456 198.459 547.605 197.616C548.754 196.774 550.121 196.277 551.543 196.185C552.935 196.062 554.327 196.432 555.474 197.23C556.622 198.028 557.452 199.204 557.821 200.552C557.839 200.619 557.831 200.692 557.797 200.753C557.763 200.815 557.706 200.86 557.638 200.88C557.575 200.897 557.508 200.89 557.45 200.861C557.392 200.832 557.346 200.782 557.322 200.722C556.902 199.573 556.115 198.594 555.083 197.937C554.047 197.323 552.833 197.079 551.64 197.244C550.471 197.391 549.367 197.868 548.46 198.62C547.553 199.372 546.879 200.367 546.518 201.488C546.488 201.585 546.44 201.675 546.376 201.753C546.311 201.831 546.232 201.895 546.143 201.943C546.054 201.99 545.956 202.019 545.855 202.029C545.755 202.039 545.653 202.029 545.557 201.999C545.46 201.969 545.37 201.921 545.292 201.857C545.214 201.793 545.149 201.714 545.102 201.624C545.055 201.535 545.025 201.437 545.015 201.337C545.006 201.236 545.016 201.135 545.046 201.038V201.038L545.058 200.941Z" fill="#1D0006"/>
<path d="M559.794 206.243L558.492 209.855L561.12 211.047" stroke="#1D0006" stroke-width="0.61" stroke-linecap="round" stroke-linejoin="round"/>
<path d="M559.779 217.799C559.779 217.799 559.633 216.206 562.334 215.367C566.325 214.15 572.81 214.941 572.81 214.941C568.825 217.11 564.306 218.102 559.779 217.799V217.799Z" fill="#DC3D82"/>
<path d="M559 217.701C559 217.701 564.865 219.148 573.442 214.611" stroke="#1D0006" stroke-width="0.61" stroke-linecap="round" stroke-linejoin="round"/>
<path d="M566.361 219.16C566.361 219.488 565.631 219.877 564.609 220.048C563.587 220.218 562.723 220.048 562.674 219.768C562.626 219.488 563.404 219.05 564.414 218.88C565.424 218.71 566.3 218.844 566.361 219.16Z" fill="#D9699F"/>
<path d="M598.777 199.726C596.933 197.596 595.56 195.1 594.751 192.402C593.941 189.704 593.713 186.865 594.081 184.073C595.468 171.996 602.817 166.973 602.817 166.973L614.156 186.432L598.777 199.726Z" fill="#412C36"/>
<path d="M613.346 210.227C618.536 207.86 620.823 201.735 618.454 196.546C616.086 191.358 609.959 189.072 604.769 191.44C599.579 193.807 597.291 199.932 599.66 205.12C602.028 210.308 608.156 212.595 613.346 210.227Z" fill="#E7B38E"/>
<path d="M612.134 197.804C612.134 197.804 606.403 197.427 604.688 204.882" stroke="#1D0006" stroke-width="0.61" stroke-linecap="round" stroke-linejoin="round"/>
<path d="M616.081 226.494C618.372 225.972 620.438 224.738 621.983 222.968C623.528 221.199 624.472 218.985 624.679 216.645C624.885 214.306 624.345 211.961 623.134 209.948C621.924 207.934 620.106 206.357 617.942 205.441L617.492 206.5C619.47 207.342 621.123 208.802 622.203 210.66C623.282 212.519 623.732 214.677 623.484 216.812C623.236 218.947 622.303 220.945 620.826 222.506C619.349 224.068 617.406 225.11 615.287 225.478C613.169 225.845 610.988 225.517 609.071 224.543C607.154 223.569 605.604 222.002 604.652 220.075C603.699 218.148 603.396 215.964 603.787 213.851C604.178 211.737 605.243 209.807 606.822 208.348L606.043 207.509C604.249 209.174 603.055 211.383 602.645 213.795C602.236 216.207 602.633 218.687 603.777 220.85C604.921 223.013 606.746 224.739 608.971 225.759C611.195 226.78 613.695 227.038 616.081 226.494V226.494Z" fill="#E69624"/>
<path d="M599.254 171.472C599.254 171.472 578.765 178.368 558.982 173.223C556.728 172.593 554.381 172.359 552.047 172.53C550.271 172.601 548.58 173.304 547.278 174.512C547.278 174.512 555.794 157.108 582.975 156.269C610.156 155.43 599.254 171.472 599.254 171.472Z" fill="#412C36"/>
<path d="M584.809 263.455L595.163 274.34L610.408 259.053L597.292 255.282L584.809 263.455Z" fill="#E7B38E"/>
<path d="M595.16 274.342L609.249 256.147L607.449 251.769L623.083 255.636L611.573 281.846L595.16 274.342Z" fill="#C99724"/>
<path d="M595.165 274.34L583.363 283.547L574.25 265.267L583.777 258.603L584.811 263.455L595.165 274.34Z" fill="#C99724"/>
<defs>
<linearGradient id="paint0_linear_332_259" x1="4.84933" y1="303.714" x2="51.0381" y2="295.315" gradientUnits="userSpaceOnUse">
<stop offset="0.0201594" stop-color="#99F7BE"/>
<stop offset="1" stop-color="#229F98"/>
</linearGradient>
<linearGradient id="paint1_linear_332_259" x1="192.246" y1="32.8287" x2="213.204" y2="42.9421" gradientUnits="userSpaceOnUse">
<stop offset="0.0201594" stop-color="#99F7BE"/>
<stop offset="1" stop-color="#229F98"/>
</linearGradient>
</defs>
</svg>
